<?xml version="1.0" encoding="UTF-8" standalone="no"?>
<!DOCTYPE svg PUBLIC "-//W3C//DTD SVG 1.1//EN"
 "http://www.w3.org/Graphics/SVG/1.1/DTD/svg11.dtd">
<!-- Generated by graphviz version 12.2.1 (20241206.2353)
 -->
<!-- Title: IncludeHierarchy Pages: 1 -->
<svg width="1252pt" height="1574pt"
 viewBox="0.00 0.00 1252.25 1574.00" xmlns="http://www.w3.org/2000/svg" xmlns:xlink="http://www.w3.org/1999/xlink">
<g id="graph0" class="graph" transform="scale(1 1) rotate(0) translate(4 1570)">
<title>IncludeHierarchy</title>
<polygon fill="#222831" stroke="none" points="-4,4 -4,-1570 1248.25,-1570 1248.25,4 -4,4"/>
<!-- application.cpp -->
<g id="node1" class="node">
<title>application.cpp</title>
<polygon fill="#76abae" stroke="black" points="79.75,-981 0,-981 0,-945 79.75,-945 79.75,-981"/>
<text text-anchor="middle" x="39.88" y="-959.12" font-family="Times New Roman,serif" font-size="10.00">application.cpp</text>
</g>
<!-- logger.hpp -->
<g id="node2" class="node">
<title>logger.hpp</title>
<polygon fill="#76abae" stroke="black" points="447.62,-982 387.38,-982 387.38,-946 447.62,-946 447.62,-982"/>
<text text-anchor="middle" x="417.5" y="-960.12" font-family="Times New Roman,serif" font-size="10.00">logger.hpp</text>
</g>
<!-- application.cpp&#45;&gt;logger.hpp -->
<g id="edge1" class="edge">
<title>application.cpp&#45;&gt;logger.hpp</title>
<path fill="none" stroke="#eeeeee" d="M80.01,-963.1C151.56,-963.29 302.82,-963.7 375.63,-963.89"/>
<polygon fill="#eeeeee" stroke="#eeeeee" points="375.52,-967.39 385.53,-963.92 375.53,-960.39 375.52,-967.39"/>
</g>
<!-- application.hpp -->
<g id="node3" class="node">
<title>application.hpp</title>
<polygon fill="#76abae" stroke="black" points="261.25,-909 180.75,-909 180.75,-873 261.25,-873 261.25,-909"/>
<text text-anchor="middle" x="221" y="-887.12" font-family="Times New Roman,serif" font-size="10.00">application.hpp</text>
</g>
<!-- application.cpp&#45;&gt;application.hpp -->
<g id="edge2" class="edge">
<title>application.cpp&#45;&gt;application.hpp</title>
<path fill="none" stroke="#eeeeee" d="M80.18,-947.2C106.58,-936.59 141.57,-922.52 169.95,-911.12"/>
<polygon fill="#eeeeee" stroke="#eeeeee" points="171.1,-914.43 179.07,-907.45 168.48,-907.93 171.1,-914.43"/>
</g>
<!-- string -->
<g id="node16" class="node">
<title>string</title>
<polygon fill="#76abae" stroke="black" points="1244.25,-945 1190.25,-945 1190.25,-909 1244.25,-909 1244.25,-945"/>
<text text-anchor="middle" x="1217.25" y="-923.12" font-family="Times New Roman,serif" font-size="10.00">string</text>
</g>
<!-- logger.hpp&#45;&gt;string -->
<g id="edge34" class="edge">
<title>logger.hpp&#45;&gt;string</title>
<path fill="none" stroke="#eeeeee" d="M447.94,-963.52C543.03,-961.81 850.47,-955.26 1104.25,-938 1129.09,-936.31 1156.94,-933.58 1178.66,-931.26"/>
<polygon fill="#eeeeee" stroke="#eeeeee" points="1178.97,-934.75 1188.53,-930.19 1178.21,-927.79 1178.97,-934.75"/>
</g>
<!-- fstream -->
<g id="node28" class="node">
<title>fstream</title>
<polygon fill="#76abae" stroke="black" points="661.62,-1127 607.62,-1127 607.62,-1091 661.62,-1091 661.62,-1127"/>
<text text-anchor="middle" x="634.62" y="-1105.12" font-family="Times New Roman,serif" font-size="10.00">fstream</text>
</g>
<!-- logger.hpp&#45;&gt;fstream -->
<g id="edge32" class="edge">
<title>logger.hpp&#45;&gt;fstream</title>
<path fill="none" stroke="#eeeeee" d="M447.66,-982.44C455.91,-987.9 464.8,-994.02 472.75,-1000 512.82,-1030.14 516.7,-1045.69 558.75,-1073 570.75,-1080.79 584.7,-1087.96 597.28,-1093.8"/>
<polygon fill="#eeeeee" stroke="#eeeeee" points="595.52,-1096.85 606.07,-1097.77 598.39,-1090.47 595.52,-1096.85"/>
</g>
<!-- iostream -->
<g id="node29" class="node">
<title>iostream</title>
<polygon fill="#76abae" stroke="black" points="661.62,-1055 607.62,-1055 607.62,-1019 661.62,-1019 661.62,-1055"/>
<text text-anchor="middle" x="634.62" y="-1033.12" font-family="Times New Roman,serif" font-size="10.00">iostream</text>
</g>
<!-- logger.hpp&#45;&gt;iostream -->
<g id="edge33" class="edge">
<title>logger.hpp&#45;&gt;iostream</title>
<path fill="none" stroke="#eeeeee" d="M447.96,-974C486.54,-987.09 554.2,-1010.05 596.32,-1024.34"/>
<polygon fill="#eeeeee" stroke="#eeeeee" points="595.19,-1027.65 605.78,-1027.55 597.44,-1021.02 595.19,-1027.65"/>
</g>
<!-- renderer.hpp -->
<g id="node4" class="node">
<title>renderer.hpp</title>
<polygon fill="#76abae" stroke="black" points="668.12,-763 601.12,-763 601.12,-727 668.12,-727 668.12,-763"/>
<text text-anchor="middle" x="634.62" y="-741.12" font-family="Times New Roman,serif" font-size="10.00">renderer.hpp</text>
</g>
<!-- application.hpp&#45;&gt;renderer.hpp -->
<g id="edge3" class="edge">
<title>application.hpp&#45;&gt;renderer.hpp</title>
<path fill="none" stroke="#eeeeee" d="M239.03,-872.74C263.61,-847.66 311.65,-803.28 362.25,-782 437.59,-750.32 534.1,-744.5 589.39,-744.1"/>
<polygon fill="#eeeeee" stroke="#eeeeee" points="589.36,-747.6 599.35,-744.09 589.35,-740.6 589.36,-747.6"/>
</g>
<!-- resources_loader.hpp -->
<g id="node5" class="node">
<title>resources_loader.hpp</title>
<polygon fill="#76abae" stroke="black" points="468.62,-1274 366.38,-1274 366.38,-1238 468.62,-1238 468.62,-1274"/>
<text text-anchor="middle" x="417.5" y="-1252.12" font-family="Times New Roman,serif" font-size="10.00">resources_loader.hpp</text>
</g>
<!-- application.hpp&#45;&gt;resources_loader.hpp -->
<g id="edge4" class="edge">
<title>application.hpp&#45;&gt;resources_loader.hpp</title>
<path fill="none" stroke="#eeeeee" d="M231.78,-909.35C263.43,-968.75 363.26,-1156.08 401.44,-1227.74"/>
<polygon fill="#eeeeee" stroke="#eeeeee" points="398.31,-1229.31 406.11,-1236.49 404.49,-1226.02 398.31,-1229.31"/>
</g>
<!-- input_manager.hpp -->
<g id="node6" class="node">
<title>input_manager.hpp</title>
<polygon fill="#76abae" stroke="black" points="899.88,-908 804.38,-908 804.38,-872 899.88,-872 899.88,-908"/>
<text text-anchor="middle" x="852.12" y="-886.12" font-family="Times New Roman,serif" font-size="10.00">input_manager.hpp</text>
</g>
<!-- application.hpp&#45;&gt;input_manager.hpp -->
<g id="edge5" class="edge">
<title>application.hpp&#45;&gt;input_manager.hpp</title>
<path fill="none" stroke="#eeeeee" d="M261.55,-885.39C324.36,-876.79 450.86,-860.75 558.75,-855 626.1,-851.41 643.56,-846.79 710.5,-855 738.13,-858.39 768.14,-865.38 793.31,-872.24"/>
<polygon fill="#eeeeee" stroke="#eeeeee" points="792.12,-875.54 802.69,-874.85 794,-868.79 792.12,-875.54"/>
</g>
<!-- scripts_manager.hpp -->
<g id="node7" class="node">
<title>scripts_manager.hpp</title>
<polygon fill="#76abae" stroke="black" points="467.5,-690 367.5,-690 367.5,-654 467.5,-654 467.5,-690"/>
<text text-anchor="middle" x="417.5" y="-668.12" font-family="Times New Roman,serif" font-size="10.00">scripts_manager.hpp</text>
</g>
<!-- application.hpp&#45;&gt;scripts_manager.hpp -->
<g id="edge6" class="edge">
<title>application.hpp&#45;&gt;scripts_manager.hpp</title>
<path fill="none" stroke="#eeeeee" d="M234.84,-872.73C258.31,-839.91 310.49,-769.49 362.25,-717 368.92,-710.24 376.53,-703.44 383.9,-697.25"/>
<polygon fill="#eeeeee" stroke="#eeeeee" points="385.69,-700.3 391.2,-691.25 381.25,-694.89 385.69,-700.3"/>
</g>
<!-- entt.hpp -->
<g id="node9" class="node">
<title>entt.hpp</title>
<polygon fill="#76abae" stroke="black" points="879.12,-754 825.12,-754 825.12,-718 879.12,-718 879.12,-754"/>
<text text-anchor="middle" x="852.12" y="-732.12" font-family="Times New Roman,serif" font-size="10.00">entt.hpp</text>
</g>
<!-- renderer.hpp&#45;&gt;entt.hpp -->
<g id="edge48" class="edge">
<title>renderer.hpp&#45;&gt;entt.hpp</title>
<path fill="none" stroke="#eeeeee" d="M668.35,-743.63C707.36,-742 772.41,-739.29 813.47,-737.57"/>
<polygon fill="#eeeeee" stroke="#eeeeee" points="813.52,-741.07 823.37,-737.16 813.23,-734.08 813.52,-741.07"/>
</g>
<!-- resource_container.hpp -->
<g id="node10" class="node">
<title>resource_container.hpp</title>
<polygon fill="#76abae" stroke="black" points="907.75,-1273 796.5,-1273 796.5,-1237 907.75,-1237 907.75,-1273"/>
<text text-anchor="middle" x="852.12" y="-1251.12" font-family="Times New Roman,serif" font-size="10.00">resource_container.hpp</text>
</g>
<!-- renderer.hpp&#45;&gt;resource_container.hpp -->
<g id="edge49" class="edge">
<title>renderer.hpp&#45;&gt;resource_container.hpp</title>
<path fill="none" stroke="#eeeeee" d="M650.17,-763.16C666.54,-784.25 693.1,-820.57 710.5,-855 777.2,-987.02 825.83,-1158.22 843.66,-1225.77"/>
<polygon fill="#eeeeee" stroke="#eeeeee" points="840.24,-1226.52 846.16,-1235.32 847.02,-1224.76 840.24,-1226.52"/>
</g>
<!-- camera.hpp -->
<g id="node12" class="node">
<title>camera.hpp</title>
<polygon fill="#76abae" stroke="black" points="883.38,-664 820.88,-664 820.88,-628 883.38,-628 883.38,-664"/>
<text text-anchor="middle" x="852.12" y="-642.12" font-family="Times New Roman,serif" font-size="10.00">camera.hpp</text>
</g>
<!-- renderer.hpp&#45;&gt;camera.hpp -->
<g id="edge50" class="edge">
<title>renderer.hpp&#45;&gt;camera.hpp</title>
<path fill="none" stroke="#eeeeee" d="M668.35,-729.96C706.37,-712.5 769.13,-683.67 810.3,-664.75"/>
<polygon fill="#eeeeee" stroke="#eeeeee" points="811.53,-668.04 819.16,-660.69 808.61,-661.68 811.53,-668.04"/>
</g>
<!-- resources_loader.hpp&#45;&gt;resource_container.hpp -->
<g id="edge60" class="edge">
<title>resources_loader.hpp&#45;&gt;resource_container.hpp</title>
<path fill="none" stroke="#eeeeee" d="M468.97,-1255.88C547.26,-1255.7 697.98,-1255.35 784.91,-1255.15"/>
<polygon fill="#eeeeee" stroke="#eeeeee" points="784.71,-1258.65 794.7,-1255.13 784.7,-1251.65 784.71,-1258.65"/>
</g>
<!-- startup_options.hpp -->
<g id="node40" class="node">
<title>startup_options.hpp</title>
<polygon fill="#76abae" stroke="black" points="683.5,-1200 585.75,-1200 585.75,-1164 683.5,-1164 683.5,-1200"/>
<text text-anchor="middle" x="634.62" y="-1178.12" font-family="Times New Roman,serif" font-size="10.00">startup_options.hpp</text>
</g>
<!-- resources_loader.hpp&#45;&gt;startup_options.hpp -->
<g id="edge59" class="edge">
<title>resources_loader.hpp&#45;&gt;startup_options.hpp</title>
<path fill="none" stroke="#eeeeee" d="M468.94,-1238.65C500.65,-1227.74 541.7,-1213.62 574.88,-1202.21"/>
<polygon fill="#eeeeee" stroke="#eeeeee" points="575.6,-1205.66 583.92,-1199.1 573.33,-1199.04 575.6,-1205.66"/>
</g>
<!-- map -->
<g id="node15" class="node">
<title>map</title>
<polygon fill="#76abae" stroke="black" points="1076,-1129 1022,-1129 1022,-1093 1076,-1093 1076,-1129"/>
<text text-anchor="middle" x="1049" y="-1107.12" font-family="Times New Roman,serif" font-size="10.00">map</text>
</g>
<!-- input_manager.hpp&#45;&gt;map -->
<g id="edge15" class="edge">
<title>input_manager.hpp&#45;&gt;map</title>
<path fill="none" stroke="#eeeeee" d="M865.97,-908.49C889.44,-941.71 941.69,-1012.97 993.75,-1066 1000.2,-1072.57 1007.54,-1079.16 1014.7,-1085.2"/>
<polygon fill="#eeeeee" stroke="#eeeeee" points="1012.47,-1087.9 1022.41,-1091.55 1016.91,-1082.49 1012.47,-1087.9"/>
</g>
<!-- input_manager.hpp&#45;&gt;string -->
<g id="edge16" class="edge">
<title>input_manager.hpp&#45;&gt;string</title>
<path fill="none" stroke="#eeeeee" d="M900.22,-894.8C973.18,-902.23 1112.03,-916.38 1178.7,-923.17"/>
<polygon fill="#eeeeee" stroke="#eeeeee" points="1178.09,-926.63 1188.39,-924.16 1178.8,-919.67 1178.09,-926.63"/>
</g>
<!-- SDL.h -->
<g id="node17" class="node">
<title>SDL.h</title>
<polygon fill="#76abae" stroke="black" points="1244.25,-1201 1190.25,-1201 1190.25,-1165 1244.25,-1165 1244.25,-1201"/>
<text text-anchor="middle" x="1217.25" y="-1179.12" font-family="Times New Roman,serif" font-size="10.00">SDL.h</text>
</g>
<!-- input_manager.hpp&#45;&gt;SDL.h -->
<g id="edge17" class="edge">
<title>input_manager.hpp&#45;&gt;SDL.h</title>
<path fill="none" stroke="#eeeeee" d="M880.4,-908.32C927.49,-940.34 1026.46,-1009.33 1104.25,-1075 1135.37,-1101.26 1168.67,-1134.05 1190.8,-1156.56"/>
<polygon fill="#eeeeee" stroke="#eeeeee" points="1188.15,-1158.86 1197.65,-1163.57 1193.16,-1153.97 1188.15,-1158.86"/>
</g>
<!-- ScriptsExecutionEnviroment.hpp -->
<g id="node8" class="node">
<title>ScriptsExecutionEnviroment.hpp</title>
<polygon fill="#76abae" stroke="black" points="710.5,-691 558.75,-691 558.75,-655 710.5,-655 710.5,-691"/>
<text text-anchor="middle" x="634.62" y="-669.12" font-family="Times New Roman,serif" font-size="10.00">ScriptsExecutionEnviroment.hpp</text>
</g>
<!-- scripts_manager.hpp&#45;&gt;ScriptsExecutionEnviroment.hpp -->
<g id="edge13" class="edge">
<title>scripts_manager.hpp&#45;&gt;ScriptsExecutionEnviroment.hpp</title>
<path fill="none" stroke="#eeeeee" d="M467.85,-672.23C491.3,-672.34 520.02,-672.47 546.94,-672.6"/>
<polygon fill="#eeeeee" stroke="#eeeeee" points="546.81,-676.1 556.82,-672.64 546.84,-669.1 546.81,-676.1"/>
</g>
<!-- script.hpp -->
<g id="node14" class="node">
<title>script.hpp</title>
<polygon fill="#76abae" stroke="black" points="662.88,-545 606.38,-545 606.38,-509 662.88,-509 662.88,-545"/>
<text text-anchor="middle" x="634.62" y="-523.12" font-family="Times New Roman,serif" font-size="10.00">script.hpp</text>
</g>
<!-- scripts_manager.hpp&#45;&gt;script.hpp -->
<g id="edge14" class="edge">
<title>scripts_manager.hpp&#45;&gt;script.hpp</title>
<path fill="none" stroke="#eeeeee" d="M446.41,-653.55C454.88,-647.93 464.21,-641.73 472.75,-636 515.72,-607.18 564.94,-573.78 597.5,-551.62"/>
<polygon fill="#eeeeee" stroke="#eeeeee" points="599.09,-554.77 605.39,-546.25 595.15,-548.99 599.09,-554.77"/>
</g>
<!-- ScriptsExecutionEnviroment.hpp&#45;&gt;input_manager.hpp -->
<g id="edge9" class="edge">
<title>ScriptsExecutionEnviroment.hpp&#45;&gt;input_manager.hpp</title>
<path fill="none" stroke="#eeeeee" d="M682.36,-691.35C692.17,-696.3 702.08,-702.2 710.5,-709 765.5,-753.4 811.88,-823.33 835.12,-861.98"/>
<polygon fill="#eeeeee" stroke="#eeeeee" points="831.91,-863.43 840.01,-870.25 837.93,-859.86 831.91,-863.43"/>
</g>
<!-- ScriptsExecutionEnviroment.hpp&#45;&gt;entt.hpp -->
<g id="edge7" class="edge">
<title>ScriptsExecutionEnviroment.hpp&#45;&gt;entt.hpp</title>
<path fill="none" stroke="#eeeeee" d="M698.83,-691.48C736.21,-702.41 782.28,-715.87 813.9,-725.12"/>
<polygon fill="#eeeeee" stroke="#eeeeee" points="812.82,-728.45 823.4,-727.9 814.79,-721.73 812.82,-728.45"/>
</g>
<!-- ScriptsExecutionEnviroment.hpp&#45;&gt;resource_container.hpp -->
<g id="edge8" class="edge">
<title>ScriptsExecutionEnviroment.hpp&#45;&gt;resource_container.hpp</title>
<path fill="none" stroke="#eeeeee" d="M688.92,-691.33C697.03,-696.05 704.64,-701.87 710.5,-709 777.64,-790.79 831.68,-1123.89 846.86,-1225.46"/>
<polygon fill="#eeeeee" stroke="#eeeeee" points="843.37,-1225.79 848.29,-1235.17 850.29,-1224.76 843.37,-1225.79"/>
</g>
<!-- resource_container.hpp&#45;&gt;map -->
<g id="edge37" class="edge">
<title>resource_container.hpp&#45;&gt;map</title>
<path fill="none" stroke="#eeeeee" d="M876.14,-1236.54C903.69,-1214.62 951.42,-1177.24 993.75,-1147 999.6,-1142.82 1005.9,-1138.49 1012.06,-1134.35"/>
<polygon fill="#eeeeee" stroke="#eeeeee" points="1013.89,-1137.33 1020.28,-1128.87 1010.01,-1131.5 1013.89,-1137.33"/>
</g>
<!-- uncompiled_script.hpp -->
<g id="node30" class="node">
<title>uncompiled_script.hpp</title>
<polygon fill="#76abae" stroke="black" points="1104.25,-1417 993.75,-1417 993.75,-1381 1104.25,-1381 1104.25,-1417"/>
<text text-anchor="middle" x="1049" y="-1395.12" font-family="Times New Roman,serif" font-size="10.00">uncompiled_script.hpp</text>
</g>
<!-- resource_container.hpp&#45;&gt;uncompiled_script.hpp -->
<g id="edge41" class="edge">
<title>resource_container.hpp&#45;&gt;uncompiled_script.hpp</title>
<path fill="none" stroke="#eeeeee" d="M876.14,-1273.46C903.69,-1295.38 951.42,-1332.76 993.75,-1363 999.05,-1366.79 1004.72,-1370.7 1010.32,-1374.48"/>
<polygon fill="#eeeeee" stroke="#eeeeee" points="1008.07,-1377.19 1018.33,-1379.84 1011.97,-1371.37 1008.07,-1377.19"/>
</g>
<!-- memory -->
<g id="node32" class="node">
<title>memory</title>
<polygon fill="#76abae" stroke="black" points="1076,-1201 1022,-1201 1022,-1165 1076,-1165 1076,-1201"/>
<text text-anchor="middle" x="1049" y="-1179.12" font-family="Times New Roman,serif" font-size="10.00">memory</text>
</g>
<!-- resource_container.hpp&#45;&gt;memory -->
<g id="edge38" class="edge">
<title>resource_container.hpp&#45;&gt;memory</title>
<path fill="none" stroke="#eeeeee" d="M903.06,-1236.55C936.7,-1224.12 980.36,-1207.99 1010.93,-1196.7"/>
<polygon fill="#eeeeee" stroke="#eeeeee" points="1011.97,-1200.04 1020.14,-1193.3 1009.54,-1193.48 1011.97,-1200.04"/>
</g>
<!-- queue -->
<g id="node33" class="node">
<title>queue</title>
<polygon fill="#76abae" stroke="black" points="1076,-1273 1022,-1273 1022,-1237 1076,-1237 1076,-1273"/>
<text text-anchor="middle" x="1049" y="-1251.12" font-family="Times New Roman,serif" font-size="10.00">queue</text>
</g>
<!-- resource_container.hpp&#45;&gt;queue -->
<g id="edge39" class="edge">
<title>resource_container.hpp&#45;&gt;queue</title>
<path fill="none" stroke="#eeeeee" d="M908.19,-1255C940.83,-1255 981.36,-1255 1010.36,-1255"/>
<polygon fill="#eeeeee" stroke="#eeeeee" points="1010.13,-1258.5 1020.13,-1255 1010.13,-1251.5 1010.13,-1258.5"/>
</g>
<!-- image.hpp -->
<g id="node34" class="node">
<title>image.hpp</title>
<polygon fill="#76abae" stroke="black" points="1078.38,-1345 1019.62,-1345 1019.62,-1309 1078.38,-1309 1078.38,-1345"/>
<text text-anchor="middle" x="1049" y="-1323.12" font-family="Times New Roman,serif" font-size="10.00">image.hpp</text>
</g>
<!-- resource_container.hpp&#45;&gt;image.hpp -->
<g id="edge40" class="edge">
<title>resource_container.hpp&#45;&gt;image.hpp</title>
<path fill="none" stroke="#eeeeee" d="M903.06,-1273.45C935.9,-1285.58 978.28,-1301.24 1008.71,-1312.49"/>
<polygon fill="#eeeeee" stroke="#eeeeee" points="1007.34,-1315.71 1017.93,-1315.89 1009.76,-1309.14 1007.34,-1315.71"/>
</g>
<!-- components.hpp -->
<g id="node11" class="node">
<title>components.hpp</title>
<polygon fill="#76abae" stroke="black" points="459.25,-400 375.75,-400 375.75,-364 459.25,-364 459.25,-400"/>
<text text-anchor="middle" x="417.5" y="-378.12" font-family="Times New Roman,serif" font-size="10.00">components.hpp</text>
</g>
<!-- components.hpp&#45;&gt;camera.hpp -->
<g id="edge10" class="edge">
<title>components.hpp&#45;&gt;camera.hpp</title>
<path fill="none" stroke="#eeeeee" d="M451.33,-400.36C458.89,-405.47 466.52,-411.45 472.75,-418 524.38,-472.3 499.38,-517.3 558.75,-563 634.01,-620.93 747.98,-638.43 809.02,-643.72"/>
<polygon fill="#eeeeee" stroke="#eeeeee" points="808.74,-647.2 818.98,-644.5 809.29,-640.23 808.74,-647.2"/>
</g>
<!-- graphic.hpp -->
<g id="node13" class="node">
<title>graphic.hpp</title>
<polygon fill="#76abae" stroke="black" points="667,-399 602.25,-399 602.25,-363 667,-363 667,-399"/>
<text text-anchor="middle" x="634.62" y="-377.12" font-family="Times New Roman,serif" font-size="10.00">graphic.hpp</text>
</g>
<!-- components.hpp&#45;&gt;graphic.hpp -->
<g id="edge11" class="edge">
<title>components.hpp&#45;&gt;graphic.hpp</title>
<path fill="none" stroke="#eeeeee" d="M459.72,-381.81C497.32,-381.63 552.64,-381.38 590.75,-381.2"/>
<polygon fill="#eeeeee" stroke="#eeeeee" points="590.48,-384.7 600.46,-381.15 590.45,-377.7 590.48,-384.7"/>
</g>
<!-- components.hpp&#45;&gt;script.hpp -->
<g id="edge12" class="edge">
<title>components.hpp&#45;&gt;script.hpp</title>
<path fill="none" stroke="#eeeeee" d="M446.41,-400.45C454.88,-406.07 464.21,-412.27 472.75,-418 515.72,-446.82 564.94,-480.22 597.5,-502.38"/>
<polygon fill="#eeeeee" stroke="#eeeeee" points="595.15,-505.01 605.39,-507.75 599.09,-499.23 595.15,-505.01"/>
</g>
<!-- graphic.hpp&#45;&gt;string -->
<g id="edge18" class="edge">
<title>graphic.hpp&#45;&gt;string</title>
<path fill="none" stroke="#eeeeee" d="M667.41,-377.96C720.84,-374.38 830.37,-373.71 907.75,-418 1098.5,-527.19 1185.24,-806.31 1209.13,-897.61"/>
<polygon fill="#eeeeee" stroke="#eeeeee" points="1205.73,-898.45 1211.6,-907.27 1212.51,-896.72 1205.73,-898.45"/>
</g>
<!-- script.hpp&#45;&gt;string -->
<g id="edge27" class="edge">
<title>script.hpp&#45;&gt;string</title>
<path fill="none" stroke="#eeeeee" d="M663.36,-530.77C714.78,-538.74 826.99,-560.76 907.75,-610 1038.8,-689.9 1153.27,-838.27 1197.16,-899.49"/>
<polygon fill="#eeeeee" stroke="#eeeeee" points="1194.31,-901.52 1202.95,-907.64 1200.02,-897.46 1194.31,-901.52"/>
</g>
<!-- lua.hpp -->
<g id="node24" class="node">
<title>lua.hpp</title>
<polygon fill="#76abae" stroke="black" points="879.12,-472 825.12,-472 825.12,-436 879.12,-436 879.12,-472"/>
<text text-anchor="middle" x="852.12" y="-450.12" font-family="Times New Roman,serif" font-size="10.00">lua.hpp</text>
</g>
<!-- script.hpp&#45;&gt;lua.hpp -->
<g id="edge28" class="edge">
<title>script.hpp&#45;&gt;lua.hpp</title>
<path fill="none" stroke="#eeeeee" d="M663.36,-517.61C701.76,-504.6 771.23,-481.07 814.05,-466.56"/>
<polygon fill="#eeeeee" stroke="#eeeeee" points="815.07,-469.91 823.42,-463.39 812.82,-463.28 815.07,-469.91"/>
</g>
<!-- scripts_manager.cpp -->
<g id="node18" class="node">
<title>scripts_manager.cpp</title>
<polygon fill="#76abae" stroke="black" points="270.62,-618 171.38,-618 171.38,-582 270.62,-582 270.62,-618"/>
<text text-anchor="middle" x="221" y="-596.12" font-family="Times New Roman,serif" font-size="10.00">scripts_manager.cpp</text>
</g>
<!-- scripts_manager.cpp&#45;&gt;logger.hpp -->
<g id="edge21" class="edge">
<title>scripts_manager.cpp&#45;&gt;logger.hpp</title>
<path fill="none" stroke="#eeeeee" d="M231.78,-618.3C263.43,-677.54 363.26,-864.35 401.44,-935.82"/>
<polygon fill="#eeeeee" stroke="#eeeeee" points="398.3,-937.37 406.1,-944.54 404.48,-934.07 398.3,-937.37"/>
</g>
<!-- scripts_manager.cpp&#45;&gt;scripts_manager.hpp -->
<g id="edge19" class="edge">
<title>scripts_manager.cpp&#45;&gt;scripts_manager.hpp</title>
<path fill="none" stroke="#eeeeee" d="M271.08,-618.17C297.01,-627.77 329.05,-639.63 356.46,-649.77"/>
<polygon fill="#eeeeee" stroke="#eeeeee" points="355.08,-653 365.68,-653.19 357.51,-646.43 355.08,-653"/>
</g>
<!-- scripts_manager.cpp&#45;&gt;script.hpp -->
<g id="edge20" class="edge">
<title>scripts_manager.cpp&#45;&gt;script.hpp</title>
<path fill="none" stroke="#eeeeee" d="M271.01,-585.93C297.8,-578.62 331.66,-569.99 362.25,-564 444.46,-547.9 542.04,-536.44 594.9,-530.85"/>
<polygon fill="#eeeeee" stroke="#eeeeee" points="595.01,-534.36 604.6,-529.84 594.29,-527.4 595.01,-534.36"/>
</g>
<!-- cpp_lua_functions.hpp -->
<g id="node19" class="node">
<title>cpp_lua_functions.hpp</title>
<polygon fill="#76abae" stroke="black" points="472.75,-472 362.25,-472 362.25,-436 472.75,-436 472.75,-472"/>
<text text-anchor="middle" x="417.5" y="-450.12" font-family="Times New Roman,serif" font-size="10.00">cpp_lua_functions.hpp</text>
</g>
<!-- scripts_manager.cpp&#45;&gt;cpp_lua_functions.hpp -->
<g id="edge22" class="edge">
<title>scripts_manager.cpp&#45;&gt;cpp_lua_functions.hpp</title>
<path fill="none" stroke="#eeeeee" d="M246.63,-581.51C281.27,-555.51 344.46,-508.08 383.24,-478.97"/>
<polygon fill="#eeeeee" stroke="#eeeeee" points="384.96,-482.05 390.86,-473.25 380.76,-476.45 384.96,-482.05"/>
</g>
<!-- format -->
<g id="node20" class="node">
<title>format</title>
<polygon fill="#76abae" stroke="black" points="444.5,-1054 390.5,-1054 390.5,-1018 444.5,-1018 444.5,-1054"/>
<text text-anchor="middle" x="417.5" y="-1032.12" font-family="Times New Roman,serif" font-size="10.00">format</text>
</g>
<!-- scripts_manager.cpp&#45;&gt;format -->
<g id="edge23" class="edge">
<title>scripts_manager.cpp&#45;&gt;format</title>
<path fill="none" stroke="#eeeeee" d="M224.22,-618.3C232.36,-678.78 265.34,-875.4 362.25,-1000 367.31,-1006.5 373.88,-1012.22 380.7,-1017.07"/>
<polygon fill="#eeeeee" stroke="#eeeeee" points="378.47,-1019.8 388.76,-1022.32 382.29,-1013.93 378.47,-1019.8"/>
</g>
<!-- unordered_map -->
<g id="node21" class="node">
<title>unordered_map</title>
<polygon fill="#76abae" stroke="black" points="457.38,-618 377.62,-618 377.62,-582 457.38,-582 457.38,-618"/>
<text text-anchor="middle" x="417.5" y="-596.12" font-family="Times New Roman,serif" font-size="10.00">unordered_map</text>
</g>
<!-- scripts_manager.cpp&#45;&gt;unordered_map -->
<g id="edge24" class="edge">
<title>scripts_manager.cpp&#45;&gt;unordered_map</title>
<path fill="none" stroke="#eeeeee" d="M271.08,-600C300.09,-600 336.75,-600 366,-600"/>
<polygon fill="#eeeeee" stroke="#eeeeee" points="365.71,-603.5 375.71,-600 365.71,-596.5 365.71,-603.5"/>
</g>
<!-- LuaBridge.h -->
<g id="node22" class="node">
<title>LuaBridge.h</title>
<polygon fill="#76abae" stroke="black" points="451,-328 384,-328 384,-292 451,-292 451,-328"/>
<text text-anchor="middle" x="417.5" y="-306.12" font-family="Times New Roman,serif" font-size="10.00">LuaBridge.h</text>
</g>
<!-- scripts_manager.cpp&#45;&gt;LuaBridge.h -->
<g id="edge25" class="edge">
<title>scripts_manager.cpp&#45;&gt;LuaBridge.h</title>
<path fill="none" stroke="#eeeeee" d="M228.63,-581.52C245.36,-536.85 292.94,-421.19 362.25,-346 365.89,-342.05 370.05,-338.33 374.4,-334.89"/>
<polygon fill="#eeeeee" stroke="#eeeeee" points="376.29,-337.84 382.3,-329.12 372.16,-332.19 376.29,-337.84"/>
</g>
<!-- cpp_lua_functions.hpp&#45;&gt;ScriptsExecutionEnviroment.hpp -->
<g id="edge68" class="edge">
<title>cpp_lua_functions.hpp&#45;&gt;ScriptsExecutionEnviroment.hpp</title>
<path fill="none" stroke="#eeeeee" d="M430.05,-472.27C452.04,-506.04 502.73,-579.19 558.75,-628 567.41,-635.55 577.5,-642.57 587.42,-648.71"/>
<polygon fill="#eeeeee" stroke="#eeeeee" points="585.54,-651.67 595.92,-653.78 589.12,-645.65 585.54,-651.67"/>
</g>
<!-- cpp_lua_functions.hpp&#45;&gt;lua.hpp -->
<g id="edge69" class="edge">
<title>cpp_lua_functions.hpp&#45;&gt;lua.hpp</title>
<path fill="none" stroke="#eeeeee" d="M472.85,-454C561.82,-454 736.31,-454 813.2,-454"/>
<polygon fill="#eeeeee" stroke="#eeeeee" points="813.17,-457.5 823.17,-454 813.17,-450.5 813.17,-457.5"/>
</g>
<!-- input_manager.cpp -->
<g id="node23" class="node">
<title>input_manager.cpp</title>
<polygon fill="#76abae" stroke="black" points="682,-909 587.25,-909 587.25,-873 682,-873 682,-909"/>
<text text-anchor="middle" x="634.62" y="-887.12" font-family="Times New Roman,serif" font-size="10.00">input_manager.cpp</text>
</g>
<!-- input_manager.cpp&#45;&gt;input_manager.hpp -->
<g id="edge26" class="edge">
<title>input_manager.cpp&#45;&gt;input_manager.hpp</title>
<path fill="none" stroke="#eeeeee" d="M682.39,-890.78C714.75,-890.63 758.06,-890.43 792.7,-890.27"/>
<polygon fill="#eeeeee" stroke="#eeeeee" points="792.59,-893.77 802.57,-890.23 792.55,-886.77 792.59,-893.77"/>
</g>
<!-- logger.cpp -->
<g id="node25" class="node">
<title>logger.cpp</title>
<polygon fill="#76abae" stroke="black" points="250.75,-108 191.25,-108 191.25,-72 250.75,-72 250.75,-108"/>
<text text-anchor="middle" x="221" y="-86.12" font-family="Times New Roman,serif" font-size="10.00">logger.cpp</text>
</g>
<!-- logger.cpp&#45;&gt;logger.hpp -->
<g id="edge30" class="edge">
<title>logger.cpp&#45;&gt;logger.hpp</title>
<path fill="none" stroke="#eeeeee" d="M230.15,-108.29C242.09,-135.86 264.23,-189.95 276.25,-238 343.31,-506.18 280.97,-589.79 362.25,-854 371.24,-883.21 387.2,-914.24 399.49,-935.87"/>
<polygon fill="#eeeeee" stroke="#eeeeee" points="396.38,-937.48 404.42,-944.37 402.43,-933.97 396.38,-937.48"/>
</g>
<!-- ctime -->
<g id="node26" class="node">
<title>ctime</title>
<polygon fill="#76abae" stroke="black" points="444.5,-108 390.5,-108 390.5,-72 444.5,-72 444.5,-108"/>
<text text-anchor="middle" x="417.5" y="-86.12" font-family="Times New Roman,serif" font-size="10.00">ctime</text>
</g>
<!-- logger.cpp&#45;&gt;ctime -->
<g id="edge29" class="edge">
<title>logger.cpp&#45;&gt;ctime</title>
<path fill="none" stroke="#eeeeee" d="M251.12,-90C285.16,-90 341.59,-90 378.91,-90"/>
<polygon fill="#eeeeee" stroke="#eeeeee" points="378.79,-93.5 388.79,-90 378.79,-86.5 378.79,-93.5"/>
</g>
<!-- chrono -->
<g id="node27" class="node">
<title>chrono</title>
<polygon fill="#76abae" stroke="black" points="444.5,-36 390.5,-36 390.5,0 444.5,0 444.5,-36"/>
<text text-anchor="middle" x="417.5" y="-14.12" font-family="Times New Roman,serif" font-size="10.00">chrono</text>
</g>
<!-- logger.cpp&#45;&gt;chrono -->
<g id="edge31" class="edge">
<title>logger.cpp&#45;&gt;chrono</title>
<path fill="none" stroke="#eeeeee" d="M251.12,-79.22C285.46,-66.51 342.57,-45.37 379.88,-31.56"/>
<polygon fill="#eeeeee" stroke="#eeeeee" points="380.72,-34.98 388.88,-28.22 378.29,-28.41 380.72,-34.98"/>
</g>
<!-- uncompiled_script.hpp&#45;&gt;string -->
<g id="edge36" class="edge">
<title>uncompiled_script.hpp&#45;&gt;string</title>
<path fill="none" stroke="#eeeeee" d="M1085.92,-1380.62C1092.82,-1375.7 1099.4,-1369.82 1104.25,-1363 1152,-1295.85 1197.07,-1043.53 1211.48,-956.63"/>
<polygon fill="#eeeeee" stroke="#eeeeee" points="1214.94,-957.2 1213.1,-946.77 1208.03,-956.07 1214.94,-957.2"/>
</g>
<!-- vector -->
<g id="node31" class="node">
<title>vector</title>
<polygon fill="#76abae" stroke="black" points="1244.25,-1417 1190.25,-1417 1190.25,-1381 1244.25,-1381 1244.25,-1417"/>
<text text-anchor="middle" x="1217.25" y="-1395.12" font-family="Times New Roman,serif" font-size="10.00">vector</text>
</g>
<!-- uncompiled_script.hpp&#45;&gt;vector -->
<g id="edge35" class="edge">
<title>uncompiled_script.hpp&#45;&gt;vector</title>
<path fill="none" stroke="#eeeeee" d="M1104.44,-1399C1128.73,-1399 1156.74,-1399 1178.65,-1399"/>
<polygon fill="#eeeeee" stroke="#eeeeee" points="1178.62,-1402.5 1188.62,-1399 1178.62,-1395.5 1178.62,-1402.5"/>
</g>
<!-- image.hpp&#45;&gt;string -->
<g id="edge44" class="edge">
<title>image.hpp&#45;&gt;string</title>
<path fill="none" stroke="#eeeeee" d="M1078.63,-1313.1C1087.92,-1307.38 1097.55,-1299.96 1104.25,-1291 1183.42,-1185.04 1207.25,-1022.41 1213.88,-956.38"/>
<polygon fill="#eeeeee" stroke="#eeeeee" points="1217.34,-957 1214.79,-946.72 1210.37,-956.34 1217.34,-957"/>
</g>
<!-- image.hpp&#45;&gt;SDL.h -->
<g id="edge43" class="edge">
<title>image.hpp&#45;&gt;SDL.h</title>
<path fill="none" stroke="#eeeeee" d="M1078.84,-1309.25C1087.26,-1303.71 1096.32,-1297.37 1104.25,-1291 1136.19,-1265.36 1169.58,-1232.2 1191.51,-1209.43"/>
<polygon fill="#eeeeee" stroke="#eeeeee" points="1193.9,-1211.99 1198.27,-1202.34 1188.84,-1207.16 1193.9,-1211.99"/>
</g>
<!-- main.cpp -->
<g id="node35" class="node">
<title>main.cpp</title>
<polygon fill="#76abae" stroke="black" points="66.88,-909 12.88,-909 12.88,-873 66.88,-873 66.88,-909"/>
<text text-anchor="middle" x="39.88" y="-887.12" font-family="Times New Roman,serif" font-size="10.00">main.cpp</text>
</g>
<!-- main.cpp&#45;&gt;application.hpp -->
<g id="edge42" class="edge">
<title>main.cpp&#45;&gt;application.hpp</title>
<path fill="none" stroke="#eeeeee" d="M67.31,-891C94.03,-891 136.02,-891 169.2,-891"/>
<polygon fill="#eeeeee" stroke="#eeeeee" points="169.02,-894.5 179.02,-891 169.02,-887.5 169.02,-894.5"/>
</g>
<!-- renderer.cpp -->
<g id="node36" class="node">
<title>renderer.cpp</title>
<polygon fill="#76abae" stroke="black" points="450.62,-836 384.38,-836 384.38,-800 450.62,-800 450.62,-836"/>
<text text-anchor="middle" x="417.5" y="-814.12" font-family="Times New Roman,serif" font-size="10.00">renderer.cpp</text>
</g>
<!-- renderer.cpp&#45;&gt;renderer.hpp -->
<g id="edge45" class="edge">
<title>renderer.cpp&#45;&gt;renderer.hpp</title>
<path fill="none" stroke="#eeeeee" d="M450.71,-807.07C487.75,-794.5 548.75,-773.8 590.02,-759.8"/>
<polygon fill="#eeeeee" stroke="#eeeeee" points="591.07,-763.14 599.41,-756.61 588.82,-756.51 591.07,-763.14"/>
</g>
<!-- renderer.cpp&#45;&gt;graphic.hpp -->
<g id="edge46" class="edge">
<title>renderer.cpp&#45;&gt;graphic.hpp</title>
<path fill="none" stroke="#eeeeee" d="M428.18,-799.53C439.41,-777.85 458.24,-740.7 472.75,-708 514.84,-613.18 510.16,-582.66 558.75,-491 574.49,-461.31 596.52,-429.84 612.61,-408.2"/>
<polygon fill="#eeeeee" stroke="#eeeeee" points="615.2,-410.59 618.41,-400.49 609.6,-406.38 615.2,-410.59"/>
</g>
<!-- renderer.cpp&#45;&gt;iostream -->
<g id="edge47" class="edge">
<title>renderer.cpp&#45;&gt;iostream</title>
<path fill="none" stroke="#eeeeee" d="M436.47,-836.3C474.51,-875.02 563.31,-965.42 607.58,-1010.48"/>
<polygon fill="#eeeeee" stroke="#eeeeee" points="604.99,-1012.84 614.49,-1017.52 609.98,-1007.94 604.99,-1012.84"/>
</g>
<!-- resources_loader.cpp -->
<g id="node37" class="node">
<title>resources_loader.cpp</title>
<polygon fill="#76abae" stroke="black" points="271.75,-1237 170.25,-1237 170.25,-1201 271.75,-1201 271.75,-1237"/>
<text text-anchor="middle" x="221" y="-1215.12" font-family="Times New Roman,serif" font-size="10.00">resources_loader.cpp</text>
</g>
<!-- resources_loader.cpp&#45;&gt;logger.hpp -->
<g id="edge55" class="edge">
<title>resources_loader.cpp&#45;&gt;logger.hpp</title>
<path fill="none" stroke="#eeeeee" d="M230.39,-1200.79C249.44,-1160.85 299.24,-1064.05 362.25,-1000 366.87,-995.3 372.2,-990.88 377.68,-986.85"/>
<polygon fill="#eeeeee" stroke="#eeeeee" points="379.45,-989.87 385.69,-981.31 375.47,-984.12 379.45,-989.87"/>
</g>
<!-- resources_loader.cpp&#45;&gt;resources_loader.hpp -->
<g id="edge54" class="edge">
<title>resources_loader.cpp&#45;&gt;resources_loader.hpp</title>
<path fill="none" stroke="#eeeeee" d="M272.09,-1228.53C297.3,-1233.32 328.09,-1239.18 354.76,-1244.25"/>
<polygon fill="#eeeeee" stroke="#eeeeee" points="353.94,-1247.66 364.42,-1246.09 355.25,-1240.79 353.94,-1247.66"/>
</g>
<!-- resources_loader.cpp&#45;&gt;format -->
<g id="edge52" class="edge">
<title>resources_loader.cpp&#45;&gt;format</title>
<path fill="none" stroke="#eeeeee" d="M239.68,-1200.63C265.83,-1173.7 316.63,-1122.23 362.25,-1081 369.43,-1074.51 377.35,-1067.74 384.86,-1061.48"/>
<polygon fill="#eeeeee" stroke="#eeeeee" points="386.78,-1064.43 392.27,-1055.37 382.33,-1059.03 386.78,-1064.43"/>
</g>
<!-- resources_loader.cpp&#45;&gt;fstream -->
<g id="edge58" class="edge">
<title>resources_loader.cpp&#45;&gt;fstream</title>
<path fill="none" stroke="#eeeeee" d="M272.06,-1205.62C355.65,-1183.28 521.78,-1138.89 596.13,-1119.02"/>
<polygon fill="#eeeeee" stroke="#eeeeee" points="597.03,-1122.4 605.78,-1116.44 595.22,-1115.64 597.03,-1122.4"/>
</g>
<!-- resources_loader.cpp&#45;&gt;iostream -->
<g id="edge57" class="edge">
<title>resources_loader.cpp&#45;&gt;iostream</title>
<path fill="none" stroke="#eeeeee" d="M254.38,-1200.65C282.49,-1185.03 324.5,-1162.41 362.25,-1145 444.57,-1107.03 544.27,-1069.42 596.92,-1050.19"/>
<polygon fill="#eeeeee" stroke="#eeeeee" points="597.79,-1053.59 606,-1046.89 595.4,-1047.02 597.79,-1053.59"/>
</g>
<!-- resources_loader.cpp&#45;&gt;image.hpp -->
<g id="edge56" class="edge">
<title>resources_loader.cpp&#45;&gt;image.hpp</title>
<path fill="none" stroke="#eeeeee" d="M236.46,-1237.26C259.6,-1264.91 307.92,-1316.47 362.25,-1338 591.88,-1428.98 899.64,-1365.29 1008.13,-1337.86"/>
<polygon fill="#eeeeee" stroke="#eeeeee" points="1008.9,-1341.27 1017.71,-1335.39 1007.16,-1334.49 1008.9,-1341.27"/>
</g>
<!-- document.h -->
<g id="node38" class="node">
<title>document.h</title>
<polygon fill="#76abae" stroke="black" points="449.5,-1566 385.5,-1566 385.5,-1530 449.5,-1530 449.5,-1566"/>
<text text-anchor="middle" x="417.5" y="-1544.12" font-family="Times New Roman,serif" font-size="10.00">document.h</text>
</g>
<!-- resources_loader.cpp&#45;&gt;document.h -->
<g id="edge51" class="edge">
<title>resources_loader.cpp&#45;&gt;document.h</title>
<path fill="none" stroke="#eeeeee" d="M227.03,-1237.41C241.23,-1286.71 285.65,-1423.9 362.25,-1512 366.28,-1516.64 371.05,-1520.93 376.06,-1524.81"/>
<polygon fill="#eeeeee" stroke="#eeeeee" points="373.82,-1527.52 383.99,-1530.47 377.88,-1521.82 373.82,-1527.52"/>
</g>
<!-- sstream -->
<g id="node39" class="node">
<title>sstream</title>
<polygon fill="#76abae" stroke="black" points="444.5,-1494 390.5,-1494 390.5,-1458 444.5,-1458 444.5,-1494"/>
<text text-anchor="middle" x="417.5" y="-1472.12" font-family="Times New Roman,serif" font-size="10.00">sstream</text>
</g>
<!-- resources_loader.cpp&#45;&gt;sstream -->
<g id="edge53" class="edge">
<title>resources_loader.cpp&#45;&gt;sstream</title>
<path fill="none" stroke="#eeeeee" d="M231.66,-1237.28C252.43,-1275.63 304.18,-1366.3 362.25,-1431 368.34,-1437.79 375.48,-1444.44 382.55,-1450.45"/>
<polygon fill="#eeeeee" stroke="#eeeeee" points="380.25,-1453.1 390.2,-1456.74 384.7,-1447.69 380.25,-1453.1"/>
</g>
<!-- resource_container.cpp -->
<g id="node41" class="node">
<title>resource_container.cpp</title>
<polygon fill="#76abae" stroke="black" points="276.25,-1055 165.75,-1055 165.75,-1019 276.25,-1019 276.25,-1055"/>
<text text-anchor="middle" x="221" y="-1033.12" font-family="Times New Roman,serif" font-size="10.00">resource_container.cpp</text>
</g>
<!-- resource_container.cpp&#45;&gt;logger.hpp -->
<g id="edge61" class="edge">
<title>resource_container.cpp&#45;&gt;logger.hpp</title>
<path fill="none" stroke="#eeeeee" d="M271.08,-1018.58C303.65,-1006.35 345.88,-990.51 376.42,-979.04"/>
<polygon fill="#eeeeee" stroke="#eeeeee" points="377.56,-982.35 385.69,-975.56 375.1,-975.8 377.56,-982.35"/>
</g>
<!-- resource_container.cpp&#45;&gt;resource_container.hpp -->
<g id="edge62" class="edge">
<title>resource_container.cpp&#45;&gt;resource_container.hpp</title>
<path fill="none" stroke="#eeeeee" d="M229.22,-1055.35C250.84,-1109.23 316.37,-1264.87 362.25,-1292 501.41,-1374.28 703.17,-1314.1 798.05,-1277.56"/>
<polygon fill="#eeeeee" stroke="#eeeeee" points="799.09,-1280.91 807.13,-1274.01 796.54,-1274.4 799.09,-1280.91"/>
</g>
<!-- resource_container.cpp&#45;&gt;format -->
<g id="edge63" class="edge">
<title>resource_container.cpp&#45;&gt;format</title>
<path fill="none" stroke="#eeeeee" d="M276.7,-1036.72C309.29,-1036.55 349.82,-1036.34 378.83,-1036.19"/>
<polygon fill="#eeeeee" stroke="#eeeeee" points="378.62,-1039.69 388.61,-1036.14 378.59,-1032.69 378.62,-1039.69"/>
</g>
<!-- cpp_lua_functions.cpp -->
<g id="node42" class="node">
<title>cpp_lua_functions.cpp</title>
<polygon fill="#76abae" stroke="black" points="275.88,-292 166.12,-292 166.12,-256 275.88,-256 275.88,-292"/>
<text text-anchor="middle" x="221" y="-270.12" font-family="Times New Roman,serif" font-size="10.00">cpp_lua_functions.cpp</text>
</g>
<!-- cpp_lua_functions.cpp&#45;&gt;graphic.hpp -->
<g id="edge66" class="edge">
<title>cpp_lua_functions.cpp&#45;&gt;graphic.hpp</title>
<path fill="none" stroke="#eeeeee" d="M276.14,-265.13C327.84,-258.71 407.33,-254.23 472.75,-274 525.35,-289.9 576.51,-329.27 606.54,-355.56"/>
<polygon fill="#eeeeee" stroke="#eeeeee" points="603.87,-357.87 613.66,-361.92 608.53,-352.65 603.87,-357.87"/>
</g>
<!-- cpp_lua_functions.cpp&#45;&gt;cpp_lua_functions.hpp -->
<g id="edge65" class="edge">
<title>cpp_lua_functions.cpp&#45;&gt;cpp_lua_functions.hpp</title>
<path fill="none" stroke="#eeeeee" d="M237.31,-292.04C261.99,-320.56 312.82,-377.02 362.25,-418 366.93,-421.88 372.03,-425.71 377.18,-429.36"/>
<polygon fill="#eeeeee" stroke="#eeeeee" points="374.92,-432.05 385.15,-434.81 378.88,-426.28 374.92,-432.05"/>
</g>
<!-- cpp_lua_functions.cpp&#45;&gt;LuaBridge.h -->
<g id="edge67" class="edge">
<title>cpp_lua_functions.cpp&#45;&gt;LuaBridge.h</title>
<path fill="none" stroke="#eeeeee" d="M276.18,-284.03C306.51,-289.64 343.84,-296.55 372.37,-301.83"/>
<polygon fill="#eeeeee" stroke="#eeeeee" points="371.67,-305.26 382.14,-303.64 372.94,-298.38 371.67,-305.26"/>
</g>
<!-- cpp_lua_functions.cpp&#45;&gt;lua.hpp -->
<g id="edge64" class="edge">
<title>cpp_lua_functions.cpp&#45;&gt;lua.hpp</title>
<path fill="none" stroke="#eeeeee" d="M276.23,-260.37C327.3,-249.57 405.76,-238.24 472.75,-251 584.37,-272.26 611.78,-288.74 710.5,-345 752.46,-368.91 795.61,-404.26 822.85,-428.17"/>
<polygon fill="#eeeeee" stroke="#eeeeee" points="820.52,-430.78 830.33,-434.8 825.17,-425.54 820.52,-430.78"/>
</g>
</g>
</svg>
