<?xml version="1.0" encoding="UTF-8" standalone="no"?>
<!DOCTYPE svg PUBLIC "-//W3C//DTD SVG 1.1//EN"
 "http://www.w3.org/Graphics/SVG/1.1/DTD/svg11.dtd">
<!-- Generated by graphviz version 12.2.1 (20241206.2353)
 -->
<!-- Title: IncludeHierarchy Pages: 1 -->
<svg width="1264pt" height="1845pt"
 viewBox="0.00 0.00 1264.25 1845.00" xmlns="http://www.w3.org/2000/svg" xmlns:xlink="http://www.w3.org/1999/xlink">
<g id="graph0" class="graph" transform="scale(1 1) rotate(0) translate(4 1841)">
<title>IncludeHierarchy</title>
<polygon fill="#222831" stroke="none" points="-4,4 -4,-1841 1260.25,-1841 1260.25,4 -4,4"/>
<!-- program_time.cpp -->
<g id="node1" class="node">
<title>program_time.cpp</title>
<polygon fill="#76abae" stroke="black" points="272.12,-1744 181.88,-1744 181.88,-1708 272.12,-1708 272.12,-1744"/>
<text text-anchor="middle" x="227" y="-1722.12" font-family="Times New Roman,serif" font-size="10.00">program_time.cpp</text>
</g>
<!-- program_time.hpp -->
<g id="node2" class="node">
<title>program_time.hpp</title>
<polygon fill="#76abae" stroke="black" points="469,-1634 378,-1634 378,-1598 469,-1598 469,-1634"/>
<text text-anchor="middle" x="423.5" y="-1612.12" font-family="Times New Roman,serif" font-size="10.00">program_time.hpp</text>
</g>
<!-- program_time.cpp&#45;&gt;program_time.hpp -->
<g id="edge1" class="edge">
<title>program_time.cpp&#45;&gt;program_time.hpp</title>
<path fill="none" stroke="#eeeeee" d="M260.55,-1707.59C293.37,-1689.03 344.18,-1660.29 380.12,-1639.97"/>
<polygon fill="#eeeeee" stroke="#eeeeee" points="381.54,-1643.19 388.52,-1635.22 378.09,-1637.09 381.54,-1643.19"/>
</g>
<!-- SDL.h -->
<g id="node3" class="node">
<title>SDL.h</title>
<polygon fill="#76abae" stroke="black" points="1256.25,-1344 1202.25,-1344 1202.25,-1308 1256.25,-1308 1256.25,-1344"/>
<text text-anchor="middle" x="1229.25" y="-1322.12" font-family="Times New Roman,serif" font-size="10.00">SDL.h</text>
</g>
<!-- program_time.cpp&#45;&gt;SDL.h -->
<g id="edge2" class="edge">
<title>program_time.cpp&#45;&gt;SDL.h</title>
<path fill="none" stroke="#eeeeee" d="M268.52,-1744.45C341.65,-1776.02 501.23,-1837 642.62,-1837 642.62,-1837 642.62,-1837 865.12,-1837 1102.99,-1837 1199.38,-1464.55 1222.48,-1355.6"/>
<polygon fill="#eeeeee" stroke="#eeeeee" points="1225.88,-1356.47 1224.47,-1345.97 1219.02,-1355.06 1225.88,-1356.47"/>
</g>
<!-- application.cpp -->
<g id="node4" class="node">
<title>application.cpp</title>
<polygon fill="#76abae" stroke="black" points="82.75,-1126 3,-1126 3,-1090 82.75,-1090 82.75,-1126"/>
<text text-anchor="middle" x="42.88" y="-1104.12" font-family="Times New Roman,serif" font-size="10.00">application.cpp</text>
</g>
<!-- application.cpp&#45;&gt;program_time.hpp -->
<g id="edge3" class="edge">
<title>application.cpp&#45;&gt;program_time.hpp</title>
<path fill="none" stroke="#eeeeee" d="M48.11,-1126.15C60.18,-1174.75 98.7,-1310.04 171.75,-1397 209.77,-1442.26 238.02,-1431.79 282.25,-1471 326.11,-1509.89 326.43,-1529.92 368.25,-1571 375.03,-1577.66 382.68,-1584.41 390.06,-1590.6"/>
<polygon fill="#eeeeee" stroke="#eeeeee" points="387.41,-1592.95 397.35,-1596.59 391.85,-1587.54 387.41,-1592.95"/>
</g>
<!-- logger.hpp -->
<g id="node5" class="node">
<title>logger.hpp</title>
<polygon fill="#76abae" stroke="black" points="453.62,-254 393.38,-254 393.38,-218 453.62,-218 453.62,-254"/>
<text text-anchor="middle" x="423.5" y="-232.12" font-family="Times New Roman,serif" font-size="10.00">logger.hpp</text>
</g>
<!-- application.cpp&#45;&gt;logger.hpp -->
<g id="edge4" class="edge">
<title>application.cpp&#45;&gt;logger.hpp</title>
<path fill="none" stroke="#eeeeee" d="M43.45,-1089.71C42.33,-1009.1 46.03,-679.62 171.75,-454 222.48,-362.97 326.48,-291.86 383.3,-257.88"/>
<polygon fill="#eeeeee" stroke="#eeeeee" points="384.86,-261.02 391.7,-252.93 381.31,-254.99 384.86,-261.02"/>
</g>
<!-- application.hpp -->
<g id="node6" class="node">
<title>application.hpp</title>
<polygon fill="#76abae" stroke="black" points="267.25,-1525 186.75,-1525 186.75,-1489 267.25,-1489 267.25,-1525"/>
<text text-anchor="middle" x="227" y="-1503.12" font-family="Times New Roman,serif" font-size="10.00">application.hpp</text>
</g>
<!-- application.cpp&#45;&gt;application.hpp -->
<g id="edge5" class="edge">
<title>application.cpp&#45;&gt;application.hpp</title>
<path fill="none" stroke="#eeeeee" d="M46.92,-1126.12C56.84,-1181.06 92.3,-1348.92 171.75,-1462 176.75,-1469.11 183.14,-1475.74 189.78,-1481.61"/>
<polygon fill="#eeeeee" stroke="#eeeeee" points="187.14,-1483.96 197.07,-1487.64 191.6,-1478.57 187.14,-1483.96"/>
</g>
<!-- script.hpp -->
<g id="node7" class="node">
<title>script.hpp</title>
<polygon fill="#76abae" stroke="black" points="671.88,-763 615.38,-763 615.38,-727 671.88,-727 671.88,-763"/>
<text text-anchor="middle" x="643.62" y="-741.12" font-family="Times New Roman,serif" font-size="10.00">script.hpp</text>
</g>
<!-- application.cpp&#45;&gt;script.hpp -->
<g id="edge6" class="edge">
<title>application.cpp&#45;&gt;script.hpp</title>
<path fill="none" stroke="#eeeeee" d="M48.21,-1089.54C59.95,-1043.43 96.7,-922.06 171.75,-855 297.28,-742.83 515.08,-738.89 603.57,-742.46"/>
<polygon fill="#eeeeee" stroke="#eeeeee" points="603.26,-745.95 613.42,-742.91 603.59,-738.95 603.26,-745.95"/>
</g>
<!-- string -->
<g id="node18" class="node">
<title>string</title>
<polygon fill="#76abae" stroke="black" points="1256.25,-873 1202.25,-873 1202.25,-837 1256.25,-837 1256.25,-873"/>
<text text-anchor="middle" x="1229.25" y="-851.12" font-family="Times New Roman,serif" font-size="10.00">string</text>
</g>
<!-- logger.hpp&#45;&gt;string -->
<g id="edge37" class="edge">
<title>logger.hpp&#45;&gt;string</title>
<path fill="none" stroke="#eeeeee" d="M453.88,-251.68C508.54,-281.31 628.82,-348.73 722.5,-417 916.89,-558.67 1127.72,-757.74 1201.2,-828.65"/>
<polygon fill="#eeeeee" stroke="#eeeeee" points="1198.76,-831.16 1208.38,-835.6 1203.63,-826.13 1198.76,-831.16"/>
</g>
<!-- fstream -->
<g id="node30" class="node">
<title>fstream</title>
<polygon fill="#76abae" stroke="black" points="670.62,-218 616.62,-218 616.62,-182 670.62,-182 670.62,-218"/>
<text text-anchor="middle" x="643.62" y="-196.12" font-family="Times New Roman,serif" font-size="10.00">fstream</text>
</g>
<!-- logger.hpp&#45;&gt;fstream -->
<g id="edge35" class="edge">
<title>logger.hpp&#45;&gt;fstream</title>
<path fill="none" stroke="#eeeeee" d="M453.92,-231.14C493.03,-224.69 562.2,-213.27 605.05,-206.2"/>
<polygon fill="#eeeeee" stroke="#eeeeee" points="605.61,-209.66 614.9,-204.58 604.47,-202.75 605.61,-209.66"/>
</g>
<!-- iostream -->
<g id="node31" class="node">
<title>iostream</title>
<polygon fill="#76abae" stroke="black" points="670.62,-471 616.62,-471 616.62,-435 670.62,-435 670.62,-471"/>
<text text-anchor="middle" x="643.62" y="-449.12" font-family="Times New Roman,serif" font-size="10.00">iostream</text>
</g>
<!-- logger.hpp&#45;&gt;iostream -->
<g id="edge36" class="edge">
<title>logger.hpp&#45;&gt;iostream</title>
<path fill="none" stroke="#eeeeee" d="M454.03,-253.45C462.37,-258.94 471.22,-265.32 478.75,-272 522.85,-311.13 525.05,-329.41 564.75,-373 581.38,-391.26 600.74,-411.16 616,-426.54"/>
<polygon fill="#eeeeee" stroke="#eeeeee" points="613.41,-428.9 622.95,-433.51 618.37,-423.96 613.41,-428.9"/>
</g>
<!-- renderer.hpp -->
<g id="node8" class="node">
<title>renderer.hpp</title>
<polygon fill="#76abae" stroke="black" points="677.12,-1202 610.12,-1202 610.12,-1166 677.12,-1166 677.12,-1202"/>
<text text-anchor="middle" x="643.62" y="-1180.12" font-family="Times New Roman,serif" font-size="10.00">renderer.hpp</text>
</g>
<!-- application.hpp&#45;&gt;renderer.hpp -->
<g id="edge7" class="edge">
<title>application.hpp&#45;&gt;renderer.hpp</title>
<path fill="none" stroke="#eeeeee" d="M238.62,-1525.25C258.9,-1558.02 306.66,-1625.89 368.25,-1652 413.46,-1671.17 440.78,-1683.15 478.75,-1652 630.09,-1527.82 443.62,-1373.79 564.75,-1220 573.46,-1208.94 586.36,-1201.14 599.16,-1195.7"/>
<polygon fill="#eeeeee" stroke="#eeeeee" points="600.28,-1199.02 608.38,-1192.2 597.79,-1192.47 600.28,-1199.02"/>
</g>
<!-- resources_loader.hpp -->
<g id="node9" class="node">
<title>resources_loader.hpp</title>
<polygon fill="#76abae" stroke="black" points="474.62,-1344 372.38,-1344 372.38,-1308 474.62,-1308 474.62,-1344"/>
<text text-anchor="middle" x="423.5" y="-1322.12" font-family="Times New Roman,serif" font-size="10.00">resources_loader.hpp</text>
</g>
<!-- application.hpp&#45;&gt;resources_loader.hpp -->
<g id="edge8" class="edge">
<title>application.hpp&#45;&gt;resources_loader.hpp</title>
<path fill="none" stroke="#eeeeee" d="M243.29,-1488.82C267.93,-1460.09 318.71,-1403.22 368.25,-1362 372.92,-1358.11 378.02,-1354.27 383.17,-1350.63"/>
<polygon fill="#eeeeee" stroke="#eeeeee" points="384.87,-1353.71 391.14,-1345.17 380.91,-1347.93 384.87,-1353.71"/>
</g>
<!-- input_manager.hpp -->
<g id="node10" class="node">
<title>input_manager.hpp</title>
<polygon fill="#76abae" stroke="black" points="911.88,-1309 816.38,-1309 816.38,-1273 911.88,-1273 911.88,-1309"/>
<text text-anchor="middle" x="864.12" y="-1287.12" font-family="Times New Roman,serif" font-size="10.00">input_manager.hpp</text>
</g>
<!-- application.hpp&#45;&gt;input_manager.hpp -->
<g id="edge9" class="edge">
<title>application.hpp&#45;&gt;input_manager.hpp</title>
<path fill="none" stroke="#eeeeee" d="M235.26,-1525.23C251.92,-1564.18 297,-1654.84 368.25,-1690 412.29,-1711.73 432.1,-1705.36 478.75,-1690 606.67,-1647.89 630.43,-1608.28 722.5,-1510 779.03,-1449.66 826.6,-1363.68 849.13,-1319.55"/>
<polygon fill="#eeeeee" stroke="#eeeeee" points="852.25,-1321.13 853.63,-1310.63 846,-1317.98 852.25,-1321.13"/>
</g>
<!-- scripts_manager.hpp -->
<g id="node11" class="node">
<title>scripts_manager.hpp</title>
<polygon fill="#76abae" stroke="black" points="473.5,-1488 373.5,-1488 373.5,-1452 473.5,-1452 473.5,-1488"/>
<text text-anchor="middle" x="423.5" y="-1466.12" font-family="Times New Roman,serif" font-size="10.00">scripts_manager.hpp</text>
</g>
<!-- application.hpp&#45;&gt;scripts_manager.hpp -->
<g id="edge10" class="edge">
<title>application.hpp&#45;&gt;scripts_manager.hpp</title>
<path fill="none" stroke="#eeeeee" d="M267.36,-1499.51C294.55,-1494.34 331.22,-1487.36 362.09,-1481.49"/>
<polygon fill="#eeeeee" stroke="#eeeeee" points="362.52,-1484.97 371.69,-1479.67 361.21,-1478.1 362.52,-1484.97"/>
</g>
<!-- script.hpp&#45;&gt;string -->
<g id="edge19" class="edge">
<title>script.hpp&#45;&gt;string</title>
<path fill="none" stroke="#eeeeee" d="M672.3,-749.91C745.1,-762.85 947.9,-799.19 1116.25,-832 1141.19,-836.86 1169.19,-842.61 1190.95,-847.14"/>
<polygon fill="#eeeeee" stroke="#eeeeee" points="1190.04,-850.53 1200.55,-849.15 1191.48,-843.68 1190.04,-850.53"/>
</g>
<!-- entt.hpp -->
<g id="node20" class="node">
<title>entt.hpp</title>
<polygon fill="#76abae" stroke="black" points="891.12,-1219 837.12,-1219 837.12,-1183 891.12,-1183 891.12,-1219"/>
<text text-anchor="middle" x="864.12" y="-1197.12" font-family="Times New Roman,serif" font-size="10.00">entt.hpp</text>
</g>
<!-- renderer.hpp&#45;&gt;entt.hpp -->
<g id="edge51" class="edge">
<title>renderer.hpp&#45;&gt;entt.hpp</title>
<path fill="none" stroke="#eeeeee" d="M677.34,-1186.55C716.97,-1189.63 783.61,-1194.81 825.38,-1198.06"/>
<polygon fill="#eeeeee" stroke="#eeeeee" points="824.97,-1201.54 835.21,-1198.83 825.51,-1194.56 824.97,-1201.54"/>
</g>
<!-- resource_container.hpp -->
<g id="node21" class="node">
<title>resource_container.hpp</title>
<polygon fill="#76abae" stroke="black" points="919.75,-1055 808.5,-1055 808.5,-1019 919.75,-1019 919.75,-1055"/>
<text text-anchor="middle" x="864.12" y="-1033.12" font-family="Times New Roman,serif" font-size="10.00">resource_container.hpp</text>
</g>
<!-- renderer.hpp&#45;&gt;resource_container.hpp -->
<g id="edge52" class="edge">
<title>renderer.hpp&#45;&gt;resource_container.hpp</title>
<path fill="none" stroke="#eeeeee" d="M671.86,-1165.68C710.89,-1139.42 782.84,-1091.01 826.5,-1061.64"/>
<polygon fill="#eeeeee" stroke="#eeeeee" points="828.3,-1064.65 834.64,-1056.16 824.39,-1058.84 828.3,-1064.65"/>
</g>
<!-- camera.hpp -->
<g id="node23" class="node">
<title>camera.hpp</title>
<polygon fill="#76abae" stroke="black" points="895.38,-1129 832.88,-1129 832.88,-1093 895.38,-1093 895.38,-1129"/>
<text text-anchor="middle" x="864.12" y="-1107.12" font-family="Times New Roman,serif" font-size="10.00">camera.hpp</text>
</g>
<!-- renderer.hpp&#45;&gt;camera.hpp -->
<g id="edge53" class="edge">
<title>renderer.hpp&#45;&gt;camera.hpp</title>
<path fill="none" stroke="#eeeeee" d="M677.34,-1173.07C715.91,-1160.18 780.08,-1138.75 821.99,-1124.74"/>
<polygon fill="#eeeeee" stroke="#eeeeee" points="822.85,-1128.15 831.22,-1121.66 820.63,-1121.51 822.85,-1128.15"/>
</g>
<!-- resources_loader.hpp&#45;&gt;resource_container.hpp -->
<g id="edge66" class="edge">
<title>resources_loader.hpp&#45;&gt;resource_container.hpp</title>
<path fill="none" stroke="#eeeeee" d="M457.29,-1307.6C464.84,-1302.49 472.49,-1296.52 478.75,-1290 529.83,-1236.76 507.9,-1195.03 564.75,-1148 632.78,-1091.71 732.1,-1062.45 797.17,-1048.4"/>
<polygon fill="#eeeeee" stroke="#eeeeee" points="797.55,-1051.9 806.62,-1046.43 796.12,-1045.05 797.55,-1051.9"/>
</g>
<!-- startup_options.hpp -->
<g id="node45" class="node">
<title>startup_options.hpp</title>
<polygon fill="#76abae" stroke="black" points="692.5,-982 594.75,-982 594.75,-946 692.5,-946 692.5,-982"/>
<text text-anchor="middle" x="643.62" y="-960.12" font-family="Times New Roman,serif" font-size="10.00">startup_options.hpp</text>
</g>
<!-- resources_loader.hpp&#45;&gt;startup_options.hpp -->
<g id="edge65" class="edge">
<title>resources_loader.hpp&#45;&gt;startup_options.hpp</title>
<path fill="none" stroke="#eeeeee" d="M459.91,-1307.65C466.93,-1302.7 473.68,-1296.79 478.75,-1290 556.85,-1185.32 483.45,-1111.22 564.75,-1009 571.17,-1000.92 579.47,-994.02 588.25,-988.22"/>
<polygon fill="#eeeeee" stroke="#eeeeee" points="589.87,-991.32 596.6,-983.14 586.24,-985.34 589.87,-991.32"/>
</g>
<!-- input_manager.hpp&#45;&gt;SDL.h -->
<g id="edge31" class="edge">
<title>input_manager.hpp&#45;&gt;SDL.h</title>
<path fill="none" stroke="#eeeeee" d="M912.22,-1295.54C985.18,-1302.57 1124.03,-1315.95 1190.7,-1322.38"/>
<polygon fill="#eeeeee" stroke="#eeeeee" points="1190.1,-1325.84 1200.39,-1323.31 1190.77,-1318.87 1190.1,-1325.84"/>
</g>
<!-- input_manager.hpp&#45;&gt;string -->
<g id="edge30" class="edge">
<title>input_manager.hpp&#45;&gt;string</title>
<path fill="none" stroke="#eeeeee" d="M912,-1289.54C968.03,-1285.25 1061.12,-1269.7 1116.25,-1215 1164.32,-1167.3 1207.86,-961.5 1222.78,-884.35"/>
<polygon fill="#eeeeee" stroke="#eeeeee" points="1226.2,-885.09 1224.64,-874.61 1219.33,-883.77 1226.2,-885.09"/>
</g>
<!-- map -->
<g id="node26" class="node">
<title>map</title>
<polygon fill="#76abae" stroke="black" points="1088,-1197 1034,-1197 1034,-1161 1088,-1161 1088,-1197"/>
<text text-anchor="middle" x="1061" y="-1175.12" font-family="Times New Roman,serif" font-size="10.00">map</text>
</g>
<!-- input_manager.hpp&#45;&gt;map -->
<g id="edge29" class="edge">
<title>input_manager.hpp&#45;&gt;map</title>
<path fill="none" stroke="#eeeeee" d="M897.3,-1272.51C932.19,-1252.46 987.72,-1220.54 1024.02,-1199.68"/>
<polygon fill="#eeeeee" stroke="#eeeeee" points="1025.48,-1202.88 1032.4,-1194.86 1021.99,-1196.81 1025.48,-1202.88"/>
</g>
<!-- scripts_execution_enviroment.hpp -->
<g id="node19" class="node">
<title>scripts_execution_enviroment.hpp</title>
<polygon fill="#76abae" stroke="black" points="722.5,-1274 564.75,-1274 564.75,-1238 722.5,-1238 722.5,-1274"/>
<text text-anchor="middle" x="643.62" y="-1252.12" font-family="Times New Roman,serif" font-size="10.00">scripts_execution_enviroment.hpp</text>
</g>
<!-- scripts_manager.hpp&#45;&gt;scripts_execution_enviroment.hpp -->
<g id="edge27" class="edge">
<title>scripts_manager.hpp&#45;&gt;scripts_execution_enviroment.hpp</title>
<path fill="none" stroke="#eeeeee" d="M457.29,-1451.6C464.84,-1446.49 472.49,-1440.52 478.75,-1434 529.83,-1380.76 509.75,-1341.18 564.75,-1292 569.85,-1287.44 575.63,-1283.36 581.68,-1279.73"/>
<polygon fill="#eeeeee" stroke="#eeeeee" points="582.95,-1283.02 590.02,-1275.12 579.57,-1276.89 582.95,-1283.02"/>
</g>
<!-- compiled_script.hpp -->
<g id="node25" class="node">
<title>compiled_script.hpp</title>
<polygon fill="#76abae" stroke="black" points="693.62,-1492 593.62,-1492 593.62,-1456 693.62,-1456 693.62,-1492"/>
<text text-anchor="middle" x="643.62" y="-1470.12" font-family="Times New Roman,serif" font-size="10.00">compiled_script.hpp</text>
</g>
<!-- scripts_manager.hpp&#45;&gt;compiled_script.hpp -->
<g id="edge28" class="edge">
<title>scripts_manager.hpp&#45;&gt;compiled_script.hpp</title>
<path fill="none" stroke="#eeeeee" d="M474,-1470.91C506.07,-1471.5 548.05,-1472.27 582.11,-1472.89"/>
<polygon fill="#eeeeee" stroke="#eeeeee" points="581.75,-1476.38 591.81,-1473.07 581.88,-1469.39 581.75,-1476.38"/>
</g>
<!-- scripts_manager.cpp -->
<g id="node12" class="node">
<title>scripts_manager.cpp</title>
<polygon fill="#76abae" stroke="black" points="276.62,-1128 177.38,-1128 177.38,-1092 276.62,-1092 276.62,-1128"/>
<text text-anchor="middle" x="227" y="-1106.12" font-family="Times New Roman,serif" font-size="10.00">scripts_manager.cpp</text>
</g>
<!-- scripts_manager.cpp&#45;&gt;logger.hpp -->
<g id="edge13" class="edge">
<title>scripts_manager.cpp&#45;&gt;logger.hpp</title>
<path fill="none" stroke="#eeeeee" d="M234.53,-1091.55C245.87,-1058.81 269.23,-988.26 282.25,-927 343.28,-639.8 212.85,-521.11 368.25,-272 372.23,-265.62 377.8,-260.13 383.87,-255.49"/>
<polygon fill="#eeeeee" stroke="#eeeeee" points="385.43,-258.66 391.74,-250.15 381.5,-252.87 385.43,-258.66"/>
</g>
<!-- scripts_manager.cpp&#45;&gt;script.hpp -->
<g id="edge12" class="edge">
<title>scripts_manager.cpp&#45;&gt;script.hpp</title>
<path fill="none" stroke="#eeeeee" d="M276.88,-1100.33C332.67,-1086.92 423.35,-1057.52 478.75,-1000 551,-924.98 493.64,-858.1 564.75,-782 575.5,-770.5 590.56,-762.2 604.58,-756.42"/>
<polygon fill="#eeeeee" stroke="#eeeeee" points="605.48,-759.82 613.59,-753.01 603,-753.27 605.48,-759.82"/>
</g>
<!-- scripts_manager.cpp&#45;&gt;scripts_manager.hpp -->
<g id="edge11" class="edge">
<title>scripts_manager.cpp&#45;&gt;scripts_manager.hpp</title>
<path fill="none" stroke="#eeeeee" d="M232.04,-1128.44C244.39,-1181.24 285.85,-1335.52 368.25,-1434 371.48,-1437.86 375.23,-1441.46 379.21,-1444.79"/>
<polygon fill="#eeeeee" stroke="#eeeeee" points="376.92,-1447.44 387.01,-1450.69 381.15,-1441.86 376.92,-1447.44"/>
</g>
<!-- cpp_lua_functions.hpp -->
<g id="node13" class="node">
<title>cpp_lua_functions.hpp</title>
<polygon fill="#76abae" stroke="black" points="478.75,-1416 368.25,-1416 368.25,-1380 478.75,-1380 478.75,-1416"/>
<text text-anchor="middle" x="423.5" y="-1394.12" font-family="Times New Roman,serif" font-size="10.00">cpp_lua_functions.hpp</text>
</g>
<!-- scripts_manager.cpp&#45;&gt;cpp_lua_functions.hpp -->
<g id="edge14" class="edge">
<title>scripts_manager.cpp&#45;&gt;cpp_lua_functions.hpp</title>
<path fill="none" stroke="#eeeeee" d="M234.67,-1128.34C251.49,-1172.65 299.24,-1287.38 368.25,-1362 371.85,-1365.89 375.95,-1369.57 380.25,-1372.97"/>
<polygon fill="#eeeeee" stroke="#eeeeee" points="377.9,-1375.59 388.03,-1378.68 382.04,-1369.94 377.9,-1375.59"/>
</g>
<!-- format -->
<g id="node14" class="node">
<title>format</title>
<polygon fill="#76abae" stroke="black" points="450.5,-982 396.5,-982 396.5,-946 450.5,-946 450.5,-982"/>
<text text-anchor="middle" x="423.5" y="-960.12" font-family="Times New Roman,serif" font-size="10.00">format</text>
</g>
<!-- scripts_manager.cpp&#45;&gt;format -->
<g id="edge15" class="edge">
<title>scripts_manager.cpp&#45;&gt;format</title>
<path fill="none" stroke="#eeeeee" d="M252.63,-1091.51C287.27,-1065.51 350.46,-1018.08 389.24,-988.97"/>
<polygon fill="#eeeeee" stroke="#eeeeee" points="390.96,-992.05 396.86,-983.25 386.76,-986.45 390.96,-992.05"/>
</g>
<!-- unordered_map -->
<g id="node15" class="node">
<title>unordered_map</title>
<polygon fill="#76abae" stroke="black" points="463.38,-1128 383.62,-1128 383.62,-1092 463.38,-1092 463.38,-1128"/>
<text text-anchor="middle" x="423.5" y="-1106.12" font-family="Times New Roman,serif" font-size="10.00">unordered_map</text>
</g>
<!-- scripts_manager.cpp&#45;&gt;unordered_map -->
<g id="edge16" class="edge">
<title>scripts_manager.cpp&#45;&gt;unordered_map</title>
<path fill="none" stroke="#eeeeee" d="M277.08,-1110C306.09,-1110 342.75,-1110 372,-1110"/>
<polygon fill="#eeeeee" stroke="#eeeeee" points="371.71,-1113.5 381.71,-1110 371.71,-1106.5 371.71,-1113.5"/>
</g>
<!-- LuaBridge.h -->
<g id="node16" class="node">
<title>LuaBridge.h</title>
<polygon fill="#76abae" stroke="black" points="457,-1200 390,-1200 390,-1164 457,-1164 457,-1200"/>
<text text-anchor="middle" x="423.5" y="-1178.12" font-family="Times New Roman,serif" font-size="10.00">LuaBridge.h</text>
</g>
<!-- scripts_manager.cpp&#45;&gt;LuaBridge.h -->
<g id="edge17" class="edge">
<title>scripts_manager.cpp&#45;&gt;LuaBridge.h</title>
<path fill="none" stroke="#eeeeee" d="M277.08,-1128.17C308.45,-1139.78 348.77,-1154.71 378.99,-1165.89"/>
<polygon fill="#eeeeee" stroke="#eeeeee" points="377.62,-1169.12 388.22,-1169.31 380.05,-1162.56 377.62,-1169.12"/>
</g>
<!-- cpp_lua_functions.hpp&#45;&gt;scripts_execution_enviroment.hpp -->
<g id="edge75" class="edge">
<title>cpp_lua_functions.hpp&#45;&gt;scripts_execution_enviroment.hpp</title>
<path fill="none" stroke="#eeeeee" d="M453.3,-1379.64C461.62,-1374.13 470.65,-1367.96 478.75,-1362 518.44,-1332.78 522.94,-1318.1 564.75,-1292 571.95,-1287.5 579.81,-1283.22 587.67,-1279.29"/>
<polygon fill="#eeeeee" stroke="#eeeeee" points="589.11,-1282.48 596.6,-1274.98 586.07,-1276.18 589.11,-1282.48"/>
</g>
<!-- lua.hpp -->
<g id="node44" class="node">
<title>lua.hpp</title>
<polygon fill="#76abae" stroke="black" points="891.12,-1492 837.12,-1492 837.12,-1456 891.12,-1456 891.12,-1492"/>
<text text-anchor="middle" x="864.12" y="-1470.12" font-family="Times New Roman,serif" font-size="10.00">lua.hpp</text>
</g>
<!-- cpp_lua_functions.hpp&#45;&gt;lua.hpp -->
<g id="edge76" class="edge">
<title>cpp_lua_functions.hpp&#45;&gt;lua.hpp</title>
<path fill="none" stroke="#eeeeee" d="M479.19,-1403.4C539.2,-1409.77 638.21,-1421.61 722.5,-1438 757.83,-1444.87 797.51,-1455.28 825.69,-1463.14"/>
<polygon fill="#eeeeee" stroke="#eeeeee" points="824.61,-1466.47 835.18,-1465.82 826.51,-1459.73 824.61,-1466.47"/>
</g>
<!-- input_manager.cpp -->
<g id="node17" class="node">
<title>input_manager.cpp</title>
<polygon fill="#76abae" stroke="black" points="691,-1346 596.25,-1346 596.25,-1310 691,-1310 691,-1346"/>
<text text-anchor="middle" x="643.62" y="-1324.12" font-family="Times New Roman,serif" font-size="10.00">input_manager.cpp</text>
</g>
<!-- input_manager.cpp&#45;&gt;input_manager.hpp -->
<g id="edge18" class="edge">
<title>input_manager.cpp&#45;&gt;input_manager.hpp</title>
<path fill="none" stroke="#eeeeee" d="M691.5,-1320.06C724.65,-1314.45 769.33,-1306.88 804.79,-1300.88"/>
<polygon fill="#eeeeee" stroke="#eeeeee" points="805.18,-1304.36 814.46,-1299.24 804.02,-1297.46 805.18,-1304.36"/>
</g>
<!-- scripts_execution_enviroment.hpp&#45;&gt;input_manager.hpp -->
<g id="edge22" class="edge">
<title>scripts_execution_enviroment.hpp&#45;&gt;input_manager.hpp</title>
<path fill="none" stroke="#eeeeee" d="M722.89,-1268.54C749.86,-1272.86 779.58,-1277.62 804.69,-1281.64"/>
<polygon fill="#eeeeee" stroke="#eeeeee" points="803.96,-1285.07 814.39,-1283.19 805.06,-1278.16 803.96,-1285.07"/>
</g>
<!-- scripts_execution_enviroment.hpp&#45;&gt;entt.hpp -->
<g id="edge20" class="edge">
<title>scripts_execution_enviroment.hpp&#45;&gt;entt.hpp</title>
<path fill="none" stroke="#eeeeee" d="M717.99,-1237.53C754.11,-1228.44 796.11,-1217.87 825.61,-1210.44"/>
<polygon fill="#eeeeee" stroke="#eeeeee" points="826.34,-1213.87 835.19,-1208.03 824.64,-1207.08 826.34,-1213.87"/>
</g>
<!-- scripts_execution_enviroment.hpp&#45;&gt;resource_container.hpp -->
<g id="edge21" class="edge">
<title>scripts_execution_enviroment.hpp&#45;&gt;resource_container.hpp</title>
<path fill="none" stroke="#eeeeee" d="M695.96,-1237.67C705.43,-1232.84 714.76,-1226.99 722.5,-1220 778.12,-1169.8 757.47,-1129.87 808.5,-1075 812.73,-1070.45 817.59,-1066.14 822.63,-1062.16"/>
<polygon fill="#eeeeee" stroke="#eeeeee" points="824.62,-1065.05 830.59,-1056.29 820.46,-1059.41 824.62,-1065.05"/>
</g>
<!-- resource_container.hpp&#45;&gt;map -->
<g id="edge40" class="edge">
<title>resource_container.hpp&#45;&gt;map</title>
<path fill="none" stroke="#eeeeee" d="M892.31,-1055.42C901.14,-1061.54 910.94,-1068.46 919.75,-1075 958.88,-1104.04 966.3,-1114.39 1005.75,-1143 1011.63,-1147.27 1017.99,-1151.66 1024.2,-1155.85"/>
<polygon fill="#eeeeee" stroke="#eeeeee" points="1022.24,-1158.75 1032.5,-1161.38 1026.12,-1152.93 1022.24,-1158.75"/>
</g>
<!-- uncompiled_script.hpp -->
<g id="node32" class="node">
<title>uncompiled_script.hpp</title>
<polygon fill="#76abae" stroke="black" points="1116.25,-1053 1005.75,-1053 1005.75,-1017 1116.25,-1017 1116.25,-1053"/>
<text text-anchor="middle" x="1061" y="-1031.12" font-family="Times New Roman,serif" font-size="10.00">uncompiled_script.hpp</text>
</g>
<!-- resource_container.hpp&#45;&gt;uncompiled_script.hpp -->
<g id="edge44" class="edge">
<title>resource_container.hpp&#45;&gt;uncompiled_script.hpp</title>
<path fill="none" stroke="#eeeeee" d="M920.19,-1036.43C943.21,-1036.2 970.16,-1035.92 994.22,-1035.68"/>
<polygon fill="#eeeeee" stroke="#eeeeee" points="993.93,-1039.18 1003.9,-1035.58 993.86,-1032.18 993.93,-1039.18"/>
</g>
<!-- memory -->
<g id="node34" class="node">
<title>memory</title>
<polygon fill="#76abae" stroke="black" points="1088,-1125 1034,-1125 1034,-1089 1088,-1089 1088,-1125"/>
<text text-anchor="middle" x="1061" y="-1103.12" font-family="Times New Roman,serif" font-size="10.00">memory</text>
</g>
<!-- resource_container.hpp&#45;&gt;memory -->
<g id="edge41" class="edge">
<title>resource_container.hpp&#45;&gt;memory</title>
<path fill="none" stroke="#eeeeee" d="M916.58,-1055.48C950.13,-1067.53 993.1,-1082.97 1023.23,-1093.79"/>
<polygon fill="#eeeeee" stroke="#eeeeee" points="1021.69,-1096.96 1032.28,-1097.04 1024.05,-1090.37 1021.69,-1096.96"/>
</g>
<!-- queue -->
<g id="node35" class="node">
<title>queue</title>
<polygon fill="#76abae" stroke="black" points="1088,-981 1034,-981 1034,-945 1088,-945 1088,-981"/>
<text text-anchor="middle" x="1061" y="-959.12" font-family="Times New Roman,serif" font-size="10.00">queue</text>
</g>
<!-- resource_container.hpp&#45;&gt;queue -->
<g id="edge42" class="edge">
<title>resource_container.hpp&#45;&gt;queue</title>
<path fill="none" stroke="#eeeeee" d="M913.8,-1018.52C947.63,-1005.67 992.04,-988.81 1023,-977.05"/>
<polygon fill="#eeeeee" stroke="#eeeeee" points="1024.23,-980.33 1032.34,-973.5 1021.74,-973.78 1024.23,-980.33"/>
</g>
<!-- image.hpp -->
<g id="node36" class="node">
<title>image.hpp</title>
<polygon fill="#76abae" stroke="black" points="1090.38,-909 1031.62,-909 1031.62,-873 1090.38,-873 1090.38,-909"/>
<text text-anchor="middle" x="1061" y="-887.12" font-family="Times New Roman,serif" font-size="10.00">image.hpp</text>
</g>
<!-- resource_container.hpp&#45;&gt;image.hpp -->
<g id="edge43" class="edge">
<title>resource_container.hpp&#45;&gt;image.hpp</title>
<path fill="none" stroke="#eeeeee" d="M887.6,-1018.53C915.02,-996.22 963.01,-957.82 1005.75,-927 1010.98,-923.23 1016.57,-919.35 1022.1,-915.61"/>
<polygon fill="#eeeeee" stroke="#eeeeee" points="1023.66,-918.77 1030.02,-910.3 1019.76,-912.96 1023.66,-918.77"/>
</g>
<!-- components.hpp -->
<g id="node22" class="node">
<title>components.hpp</title>
<polygon fill="#76abae" stroke="black" points="465.25,-1272 381.75,-1272 381.75,-1236 465.25,-1236 465.25,-1272"/>
<text text-anchor="middle" x="423.5" y="-1250.12" font-family="Times New Roman,serif" font-size="10.00">components.hpp</text>
</g>
<!-- components.hpp&#45;&gt;script.hpp -->
<g id="edge25" class="edge">
<title>components.hpp&#45;&gt;script.hpp</title>
<path fill="none" stroke="#eeeeee" d="M461,-1235.62C467.78,-1230.73 474.16,-1224.86 478.75,-1218 588.61,-1053.86 443.5,-937.91 564.75,-782 574.64,-769.29 589.96,-760.73 604.42,-755.07"/>
<polygon fill="#eeeeee" stroke="#eeeeee" points="605.49,-758.41 613.76,-751.79 603.17,-751.8 605.49,-758.41"/>
</g>
<!-- components.hpp&#45;&gt;camera.hpp -->
<g id="edge23" class="edge">
<title>components.hpp&#45;&gt;camera.hpp</title>
<path fill="none" stroke="#eeeeee" d="M453.3,-1235.64C461.62,-1230.13 470.65,-1223.96 478.75,-1218 518.44,-1188.78 519.42,-1167.34 564.75,-1148 650.49,-1111.42 761.82,-1107.87 821.3,-1109.07"/>
<polygon fill="#eeeeee" stroke="#eeeeee" points="820.88,-1112.56 830.97,-1109.32 821.07,-1105.56 820.88,-1112.56"/>
</g>
<!-- graphic.hpp -->
<g id="node24" class="node">
<title>graphic.hpp</title>
<polygon fill="#76abae" stroke="black" points="676,-836 611.25,-836 611.25,-800 676,-800 676,-836"/>
<text text-anchor="middle" x="643.62" y="-814.12" font-family="Times New Roman,serif" font-size="10.00">graphic.hpp</text>
</g>
<!-- components.hpp&#45;&gt;graphic.hpp -->
<g id="edge24" class="edge">
<title>components.hpp&#45;&gt;graphic.hpp</title>
<path fill="none" stroke="#eeeeee" d="M459.95,-1235.68C466.97,-1230.73 473.71,-1224.82 478.75,-1218 558.67,-1109.9 506.01,-1048.93 564.75,-928 579.53,-897.57 602.46,-866.42 619.62,-845.07"/>
<polygon fill="#eeeeee" stroke="#eeeeee" points="622.23,-847.4 625.85,-837.44 616.81,-842.97 622.23,-847.4"/>
</g>
<!-- graphic.hpp&#45;&gt;string -->
<g id="edge26" class="edge">
<title>graphic.hpp&#45;&gt;string</title>
<path fill="none" stroke="#eeeeee" d="M676.42,-820.02C776.27,-826.35 1083.31,-845.81 1190.7,-852.62"/>
<polygon fill="#eeeeee" stroke="#eeeeee" points="1190.2,-856.09 1200.4,-853.23 1190.64,-849.11 1190.2,-856.09"/>
</g>
<!-- compiled_script.hpp&#45;&gt;lua.hpp -->
<g id="edge64" class="edge">
<title>compiled_script.hpp&#45;&gt;lua.hpp</title>
<path fill="none" stroke="#eeeeee" d="M693.93,-1474C733.91,-1474 789.4,-1474 825.77,-1474"/>
<polygon fill="#eeeeee" stroke="#eeeeee" points="825.35,-1477.5 835.35,-1474 825.35,-1470.5 825.35,-1477.5"/>
</g>
<!-- logger.cpp -->
<g id="node27" class="node">
<title>logger.cpp</title>
<polygon fill="#76abae" stroke="black" points="256.75,-108 197.25,-108 197.25,-72 256.75,-72 256.75,-108"/>
<text text-anchor="middle" x="227" y="-86.12" font-family="Times New Roman,serif" font-size="10.00">logger.cpp</text>
</g>
<!-- logger.cpp&#45;&gt;logger.hpp -->
<g id="edge33" class="edge">
<title>logger.cpp&#45;&gt;logger.hpp</title>
<path fill="none" stroke="#eeeeee" d="M252.63,-108.49C287.27,-134.49 350.46,-181.92 389.24,-211.03"/>
<polygon fill="#eeeeee" stroke="#eeeeee" points="386.76,-213.55 396.86,-216.75 390.96,-207.95 386.76,-213.55"/>
</g>
<!-- ctime -->
<g id="node28" class="node">
<title>ctime</title>
<polygon fill="#76abae" stroke="black" points="450.5,-108 396.5,-108 396.5,-72 450.5,-72 450.5,-108"/>
<text text-anchor="middle" x="423.5" y="-86.12" font-family="Times New Roman,serif" font-size="10.00">ctime</text>
</g>
<!-- logger.cpp&#45;&gt;ctime -->
<g id="edge32" class="edge">
<title>logger.cpp&#45;&gt;ctime</title>
<path fill="none" stroke="#eeeeee" d="M257.12,-90C291.16,-90 347.59,-90 384.91,-90"/>
<polygon fill="#eeeeee" stroke="#eeeeee" points="384.79,-93.5 394.79,-90 384.79,-86.5 384.79,-93.5"/>
</g>
<!-- chrono -->
<g id="node29" class="node">
<title>chrono</title>
<polygon fill="#76abae" stroke="black" points="450.5,-36 396.5,-36 396.5,0 450.5,0 450.5,-36"/>
<text text-anchor="middle" x="423.5" y="-14.12" font-family="Times New Roman,serif" font-size="10.00">chrono</text>
</g>
<!-- logger.cpp&#45;&gt;chrono -->
<g id="edge34" class="edge">
<title>logger.cpp&#45;&gt;chrono</title>
<path fill="none" stroke="#eeeeee" d="M257.12,-79.22C291.46,-66.51 348.57,-45.37 385.88,-31.56"/>
<polygon fill="#eeeeee" stroke="#eeeeee" points="386.72,-34.98 394.88,-28.22 384.29,-28.41 386.72,-34.98"/>
</g>
<!-- uncompiled_script.hpp&#45;&gt;string -->
<g id="edge39" class="edge">
<title>uncompiled_script.hpp&#45;&gt;string</title>
<path fill="none" stroke="#eeeeee" d="M1093.42,-1016.64C1101.25,-1011.41 1109.37,-1005.38 1116.25,-999 1154.8,-963.24 1190.46,-913.29 1210.76,-882.61"/>
<polygon fill="#eeeeee" stroke="#eeeeee" points="1213.43,-884.91 1215.97,-874.63 1207.57,-881.09 1213.43,-884.91"/>
</g>
<!-- vector -->
<g id="node33" class="node">
<title>vector</title>
<polygon fill="#76abae" stroke="black" points="1256.25,-1053 1202.25,-1053 1202.25,-1017 1256.25,-1017 1256.25,-1053"/>
<text text-anchor="middle" x="1229.25" y="-1031.12" font-family="Times New Roman,serif" font-size="10.00">vector</text>
</g>
<!-- uncompiled_script.hpp&#45;&gt;vector -->
<g id="edge38" class="edge">
<title>uncompiled_script.hpp&#45;&gt;vector</title>
<path fill="none" stroke="#eeeeee" d="M1116.44,-1035C1140.73,-1035 1168.74,-1035 1190.65,-1035"/>
<polygon fill="#eeeeee" stroke="#eeeeee" points="1190.62,-1038.5 1200.62,-1035 1190.62,-1031.5 1190.62,-1038.5"/>
</g>
<!-- image.hpp&#45;&gt;SDL.h -->
<g id="edge46" class="edge">
<title>image.hpp&#45;&gt;SDL.h</title>
<path fill="none" stroke="#eeeeee" d="M1090.75,-904.8C1100.06,-910.52 1109.66,-917.95 1116.25,-927 1202.12,-1044.94 1222.22,-1226.37 1226.87,-1296.72"/>
<polygon fill="#eeeeee" stroke="#eeeeee" points="1223.35,-1296.5 1227.45,-1306.27 1230.34,-1296.08 1223.35,-1296.5"/>
</g>
<!-- image.hpp&#45;&gt;string -->
<g id="edge47" class="edge">
<title>image.hpp&#45;&gt;string</title>
<path fill="none" stroke="#eeeeee" d="M1090.58,-884.81C1118.32,-878.8 1160.58,-869.65 1190.95,-863.08"/>
<polygon fill="#eeeeee" stroke="#eeeeee" points="1191.45,-866.55 1200.48,-861.01 1189.97,-859.71 1191.45,-866.55"/>
</g>
<!-- main.cpp -->
<g id="node37" class="node">
<title>main.cpp</title>
<polygon fill="#76abae" stroke="black" points="69.88,-1525 15.88,-1525 15.88,-1489 69.88,-1489 69.88,-1525"/>
<text text-anchor="middle" x="42.88" y="-1503.12" font-family="Times New Roman,serif" font-size="10.00">main.cpp</text>
</g>
<!-- main.cpp&#45;&gt;application.hpp -->
<g id="edge45" class="edge">
<title>main.cpp&#45;&gt;application.hpp</title>
<path fill="none" stroke="#eeeeee" d="M70.36,-1507C97.75,-1507 141.19,-1507 175.23,-1507"/>
<polygon fill="#eeeeee" stroke="#eeeeee" points="174.86,-1510.5 184.86,-1507 174.86,-1503.5 174.86,-1510.5"/>
</g>
<!-- renderer.cpp -->
<g id="node38" class="node">
<title>renderer.cpp</title>
<polygon fill="#76abae" stroke="black" points="456.62,-836 390.38,-836 390.38,-800 456.62,-800 456.62,-836"/>
<text text-anchor="middle" x="423.5" y="-814.12" font-family="Times New Roman,serif" font-size="10.00">renderer.cpp</text>
</g>
<!-- renderer.cpp&#45;&gt;renderer.hpp -->
<g id="edge48" class="edge">
<title>renderer.cpp&#45;&gt;renderer.hpp</title>
<path fill="none" stroke="#eeeeee" d="M435.47,-836.4C471.04,-896.09 583.37,-1084.58 626,-1156.1"/>
<polygon fill="#eeeeee" stroke="#eeeeee" points="622.87,-1157.68 630.99,-1164.48 628.88,-1154.1 622.87,-1157.68"/>
</g>
<!-- renderer.cpp&#45;&gt;graphic.hpp -->
<g id="edge49" class="edge">
<title>renderer.cpp&#45;&gt;graphic.hpp</title>
<path fill="none" stroke="#eeeeee" d="M456.69,-818C494.6,-818 557.73,-818 599.76,-818"/>
<polygon fill="#eeeeee" stroke="#eeeeee" points="599.5,-821.5 609.5,-818 599.5,-814.5 599.5,-821.5"/>
</g>
<!-- renderer.cpp&#45;&gt;iostream -->
<g id="edge50" class="edge">
<title>renderer.cpp&#45;&gt;iostream</title>
<path fill="none" stroke="#eeeeee" d="M435.47,-799.65C471.04,-740.13 583.37,-552.15 626,-480.82"/>
<polygon fill="#eeeeee" stroke="#eeeeee" points="628.86,-482.85 630.99,-472.47 622.86,-479.26 628.86,-482.85"/>
</g>
<!-- resources_loader.cpp -->
<g id="node39" class="node">
<title>resources_loader.cpp</title>
<polygon fill="#76abae" stroke="black" points="277.75,-508 176.25,-508 176.25,-472 277.75,-472 277.75,-508"/>
<text text-anchor="middle" x="227" y="-486.12" font-family="Times New Roman,serif" font-size="10.00">resources_loader.cpp</text>
</g>
<!-- resources_loader.cpp&#45;&gt;logger.hpp -->
<g id="edge58" class="edge">
<title>resources_loader.cpp&#45;&gt;logger.hpp</title>
<path fill="none" stroke="#eeeeee" d="M236.56,-471.57C255.75,-431.64 305.53,-335.61 368.25,-272 372.88,-267.31 378.21,-262.89 383.69,-258.85"/>
<polygon fill="#eeeeee" stroke="#eeeeee" points="385.46,-261.88 391.7,-253.32 381.48,-256.12 385.46,-261.88"/>
</g>
<!-- resources_loader.cpp&#45;&gt;resources_loader.hpp -->
<g id="edge55" class="edge">
<title>resources_loader.cpp&#45;&gt;resources_loader.hpp</title>
<path fill="none" stroke="#eeeeee" d="M230.82,-508.49C248.66,-625.2 345.84,-1255.74 368.25,-1290 370.72,-1293.78 373.74,-1297.25 377.08,-1300.42"/>
<polygon fill="#eeeeee" stroke="#eeeeee" points="374.78,-1303.07 384.72,-1306.74 379.24,-1297.67 374.78,-1303.07"/>
</g>
<!-- resources_loader.cpp&#45;&gt;format -->
<g id="edge56" class="edge">
<title>resources_loader.cpp&#45;&gt;format</title>
<path fill="none" stroke="#eeeeee" d="M234.43,-508.42C253.36,-562.25 311.17,-723.74 368.25,-854 380.59,-882.16 396.26,-913.54 407.59,-935.56"/>
<polygon fill="#eeeeee" stroke="#eeeeee" points="404.36,-936.94 412.07,-944.21 410.58,-933.72 404.36,-936.94"/>
</g>
<!-- resources_loader.cpp&#45;&gt;fstream -->
<g id="edge61" class="edge">
<title>resources_loader.cpp&#45;&gt;fstream</title>
<path fill="none" stroke="#eeeeee" d="M230.26,-471.7C237.97,-418.31 268.52,-262.55 368.25,-200 441.68,-153.95 549.35,-173.36 605.48,-188.44"/>
<polygon fill="#eeeeee" stroke="#eeeeee" points="604.29,-191.75 614.86,-191.07 606.17,-185 604.29,-191.75"/>
</g>
<!-- resources_loader.cpp&#45;&gt;iostream -->
<g id="edge60" class="edge">
<title>resources_loader.cpp&#45;&gt;iostream</title>
<path fill="none" stroke="#eeeeee" d="M278.01,-485.54C362.25,-478.02 530.53,-463 605.31,-456.33"/>
<polygon fill="#eeeeee" stroke="#eeeeee" points="605.33,-459.84 614.98,-455.47 604.71,-452.87 605.33,-459.84"/>
</g>
<!-- resources_loader.cpp&#45;&gt;image.hpp -->
<g id="edge59" class="edge">
<title>resources_loader.cpp&#45;&gt;image.hpp</title>
<path fill="none" stroke="#eeeeee" d="M240.27,-508.38C262.09,-539.52 310.79,-602.34 368.25,-634 509.2,-711.67 571.41,-653.57 722.5,-709 837.94,-751.35 962.5,-827.34 1022.92,-866.38"/>
<polygon fill="#eeeeee" stroke="#eeeeee" points="1020.84,-869.2 1031.13,-871.71 1024.66,-863.33 1020.84,-869.2"/>
</g>
<!-- filesystem -->
<g id="node40" class="node">
<title>filesystem</title>
<polygon fill="#76abae" stroke="black" points="452.12,-544 394.88,-544 394.88,-508 452.12,-508 452.12,-544"/>
<text text-anchor="middle" x="423.5" y="-522.12" font-family="Times New Roman,serif" font-size="10.00">filesystem</text>
</g>
<!-- resources_loader.cpp&#45;&gt;filesystem -->
<g id="edge54" class="edge">
<title>resources_loader.cpp&#45;&gt;filesystem</title>
<path fill="none" stroke="#eeeeee" d="M278.09,-499.27C310.92,-505.35 353.23,-513.18 383.55,-518.79"/>
<polygon fill="#eeeeee" stroke="#eeeeee" points="382.58,-522.17 393.05,-520.55 383.85,-515.29 382.58,-522.17"/>
</g>
<!-- sstream -->
<g id="node41" class="node">
<title>sstream</title>
<polygon fill="#76abae" stroke="black" points="450.5,-398 396.5,-398 396.5,-362 450.5,-362 450.5,-398"/>
<text text-anchor="middle" x="423.5" y="-376.12" font-family="Times New Roman,serif" font-size="10.00">sstream</text>
</g>
<!-- resources_loader.cpp&#45;&gt;sstream -->
<g id="edge57" class="edge">
<title>resources_loader.cpp&#45;&gt;sstream</title>
<path fill="none" stroke="#eeeeee" d="M260.55,-471.59C295.35,-451.91 350.37,-420.8 386.45,-400.39"/>
<polygon fill="#eeeeee" stroke="#eeeeee" points="387.79,-403.65 394.77,-395.68 384.35,-397.56 387.79,-403.65"/>
</g>
<!-- document.h -->
<g id="node42" class="node">
<title>document.h</title>
<polygon fill="#76abae" stroke="black" points="455.5,-326 391.5,-326 391.5,-290 455.5,-290 455.5,-326"/>
<text text-anchor="middle" x="423.5" y="-304.12" font-family="Times New Roman,serif" font-size="10.00">document.h</text>
</g>
<!-- resources_loader.cpp&#45;&gt;document.h -->
<g id="edge62" class="edge">
<title>resources_loader.cpp&#45;&gt;document.h</title>
<path fill="none" stroke="#eeeeee" d="M243.26,-471.69C267.87,-442.74 318.61,-385.45 368.25,-344 372.86,-340.15 377.89,-336.35 382.97,-332.74"/>
<polygon fill="#eeeeee" stroke="#eeeeee" points="384.58,-335.89 390.84,-327.34 380.62,-330.11 384.58,-335.89"/>
</g>
<!-- SDL_image.h -->
<g id="node43" class="node">
<title>SDL_image.h</title>
<polygon fill="#76abae" stroke="black" points="459.62,-616 387.38,-616 387.38,-580 459.62,-580 459.62,-616"/>
<text text-anchor="middle" x="423.5" y="-594.12" font-family="Times New Roman,serif" font-size="10.00">SDL_image.h</text>
</g>
<!-- resources_loader.cpp&#45;&gt;SDL_image.h -->
<g id="edge63" class="edge">
<title>resources_loader.cpp&#45;&gt;SDL_image.h</title>
<path fill="none" stroke="#eeeeee" d="M260.99,-508.32C293.69,-526.47 343.91,-554.36 379.67,-574.22"/>
<polygon fill="#eeeeee" stroke="#eeeeee" points="377.58,-577.06 388.02,-578.85 380.98,-570.94 377.58,-577.06"/>
</g>
<!-- resource_container.cpp -->
<g id="node46" class="node">
<title>resource_container.cpp</title>
<polygon fill="#76abae" stroke="black" points="282.25,-909 171.75,-909 171.75,-873 282.25,-873 282.25,-909"/>
<text text-anchor="middle" x="227" y="-887.12" font-family="Times New Roman,serif" font-size="10.00">resource_container.cpp</text>
</g>
<!-- resource_container.cpp&#45;&gt;logger.hpp -->
<g id="edge67" class="edge">
<title>resource_container.cpp&#45;&gt;logger.hpp</title>
<path fill="none" stroke="#eeeeee" d="M230.3,-872.63C242.01,-781.13 297.31,-374.83 368.25,-272 372.34,-266.08 377.74,-260.87 383.56,-256.4"/>
<polygon fill="#eeeeee" stroke="#eeeeee" points="385.41,-259.37 391.67,-250.82 381.45,-253.61 385.41,-259.37"/>
</g>
<!-- resource_container.cpp&#45;&gt;format -->
<g id="edge69" class="edge">
<title>resource_container.cpp&#45;&gt;format</title>
<path fill="none" stroke="#eeeeee" d="M277.08,-909.42C310.76,-922.06 354.74,-938.57 385.49,-950.11"/>
<polygon fill="#eeeeee" stroke="#eeeeee" points="384.16,-953.35 394.75,-953.59 386.62,-946.79 384.16,-953.35"/>
</g>
<!-- resource_container.cpp&#45;&gt;resource_container.hpp -->
<g id="edge68" class="edge">
<title>resource_container.cpp&#45;&gt;resource_container.hpp</title>
<path fill="none" stroke="#eeeeee" d="M282.53,-885.12C376.08,-877.17 571.63,-870 722.5,-928 769.07,-945.9 812.85,-984.61 838.83,-1010.73"/>
<polygon fill="#eeeeee" stroke="#eeeeee" points="836.08,-1012.93 845.56,-1017.65 841.09,-1008.04 836.08,-1012.93"/>
</g>
<!-- cpp_lua_functions.cpp -->
<g id="node47" class="node">
<title>cpp_lua_functions.cpp</title>
<polygon fill="#76abae" stroke="black" points="281.88,-1379 172.12,-1379 172.12,-1343 281.88,-1343 281.88,-1379"/>
<text text-anchor="middle" x="227" y="-1357.12" font-family="Times New Roman,serif" font-size="10.00">cpp_lua_functions.cpp</text>
</g>
<!-- cpp_lua_functions.cpp&#45;&gt;program_time.hpp -->
<g id="edge73" class="edge">
<title>cpp_lua_functions.cpp&#45;&gt;program_time.hpp</title>
<path fill="none" stroke="#eeeeee" d="M254.21,-1379.28C263.8,-1386.82 274.25,-1396.1 282.25,-1406 334.21,-1470.33 316.29,-1506.67 368.25,-1571 373.87,-1577.96 380.71,-1584.62 387.61,-1590.57"/>
<polygon fill="#eeeeee" stroke="#eeeeee" points="385.18,-1593.11 395.12,-1596.76 389.62,-1587.7 385.18,-1593.11"/>
</g>
<!-- cpp_lua_functions.cpp&#45;&gt;cpp_lua_functions.hpp -->
<g id="edge72" class="edge">
<title>cpp_lua_functions.cpp&#45;&gt;cpp_lua_functions.hpp</title>
<path fill="none" stroke="#eeeeee" d="M282.18,-1371.31C305.27,-1375.7 332.43,-1380.87 356.67,-1385.48"/>
<polygon fill="#eeeeee" stroke="#eeeeee" points="355.97,-1388.91 366.45,-1387.34 357.28,-1382.03 355.97,-1388.91"/>
</g>
<!-- cpp_lua_functions.cpp&#45;&gt;LuaBridge.h -->
<g id="edge74" class="edge">
<title>cpp_lua_functions.cpp&#45;&gt;LuaBridge.h</title>
<path fill="none" stroke="#eeeeee" d="M243.74,-1342.63C268.6,-1314.19 319.19,-1258.53 368.25,-1218 372.93,-1214.13 378.04,-1210.3 383.19,-1206.66"/>
<polygon fill="#eeeeee" stroke="#eeeeee" points="384.89,-1209.74 391.17,-1201.2 380.94,-1203.96 384.89,-1209.74"/>
</g>
<!-- cpp_lua_functions.cpp&#45;&gt;components.hpp -->
<g id="edge71" class="edge">
<title>cpp_lua_functions.cpp&#45;&gt;components.hpp</title>
<path fill="none" stroke="#eeeeee" d="M261.44,-1342.61C294.1,-1324.64 343.96,-1297.21 379.54,-1277.63"/>
<polygon fill="#eeeeee" stroke="#eeeeee" points="380.77,-1280.95 387.85,-1273.06 377.4,-1274.82 380.77,-1280.95"/>
</g>
<!-- cpp_lua_functions.cpp&#45;&gt;lua.hpp -->
<g id="edge70" class="edge">
<title>cpp_lua_functions.cpp&#45;&gt;lua.hpp</title>
<path fill="none" stroke="#eeeeee" d="M270.16,-1379.39C274.43,-1382 278.55,-1384.88 282.25,-1388 331.83,-1429.88 310.71,-1475.99 368.25,-1506 522.01,-1586.18 740.17,-1520.38 826.2,-1488.68"/>
<polygon fill="#eeeeee" stroke="#eeeeee" points="827.19,-1492.05 835.32,-1485.25 824.73,-1485.49 827.19,-1492.05"/>
</g>
<!-- sfx_manager.hpp -->
<g id="node48" class="node">
<title>sfx_manager.hpp</title>
<polygon fill="#76abae" stroke="black" points="85.75,-1816 0,-1816 0,-1780 85.75,-1780 85.75,-1816"/>
<text text-anchor="middle" x="42.88" y="-1794.12" font-family="Times New Roman,serif" font-size="10.00">sfx_manager.hpp</text>
</g>
<!-- SDL_mixer.h -->
<g id="node49" class="node">
<title>SDL_mixer.h</title>
<polygon fill="#76abae" stroke="black" points="262.38,-1816 191.62,-1816 191.62,-1780 262.38,-1780 262.38,-1816"/>
<text text-anchor="middle" x="227" y="-1794.12" font-family="Times New Roman,serif" font-size="10.00">SDL_mixer.h</text>
</g>
<!-- sfx_manager.hpp&#45;&gt;SDL_mixer.h -->
<g id="edge77" class="edge">
<title>sfx_manager.hpp&#45;&gt;SDL_mixer.h</title>
<path fill="none" stroke="#eeeeee" d="M86.12,-1798C114.19,-1798 151.06,-1798 179.9,-1798"/>
<polygon fill="#eeeeee" stroke="#eeeeee" points="179.8,-1801.5 189.8,-1798 179.8,-1794.5 179.8,-1801.5"/>
</g>
</g>
</svg>
