<?xml version="1.0" encoding="UTF-8" standalone="no"?>
<!DOCTYPE svg PUBLIC "-//W3C//DTD SVG 1.1//EN"
 "http://www.w3.org/Graphics/SVG/1.1/DTD/svg11.dtd">
<!-- Generated by graphviz version 12.2.1 (20241206.2353)
 -->
<!-- Title: IncludeHierarchy Pages: 1 -->
<svg width="1252pt" height="1719pt"
 viewBox="0.00 0.00 1252.25 1719.00" xmlns="http://www.w3.org/2000/svg" xmlns:xlink="http://www.w3.org/1999/xlink">
<g id="graph0" class="graph" transform="scale(1 1) rotate(0) translate(4 1715)">
<title>IncludeHierarchy</title>
<polygon fill="#222831" stroke="none" points="-4,4 -4,-1715 1248.25,-1715 1248.25,4 -4,4"/>
<!-- program_time.cpp -->
<g id="node1" class="node">
<title>program_time.cpp</title>
<polygon fill="#76abae" stroke="black" points="266.12,-1711 175.88,-1711 175.88,-1675 266.12,-1675 266.12,-1711"/>
<text text-anchor="middle" x="221" y="-1689.12" font-family="Times New Roman,serif" font-size="10.00">program_time.cpp</text>
</g>
<!-- program_time.hpp -->
<g id="node2" class="node">
<title>program_time.hpp</title>
<polygon fill="#76abae" stroke="black" points="463,-1638 372,-1638 372,-1602 463,-1602 463,-1638"/>
<text text-anchor="middle" x="417.5" y="-1616.12" font-family="Times New Roman,serif" font-size="10.00">program_time.hpp</text>
</g>
<!-- program_time.cpp&#45;&gt;program_time.hpp -->
<g id="edge1" class="edge">
<title>program_time.cpp&#45;&gt;program_time.hpp</title>
<path fill="none" stroke="#eeeeee" d="M266.62,-1676.25C294.69,-1665.72 331.13,-1652.04 361.05,-1640.81"/>
<polygon fill="#eeeeee" stroke="#eeeeee" points="362.2,-1644.12 370.33,-1637.33 359.74,-1637.56 362.2,-1644.12"/>
</g>
<!-- SDL.h -->
<g id="node3" class="node">
<title>SDL.h</title>
<polygon fill="#76abae" stroke="black" points="1244.25,-1056 1190.25,-1056 1190.25,-1020 1244.25,-1020 1244.25,-1056"/>
<text text-anchor="middle" x="1217.25" y="-1034.12" font-family="Times New Roman,serif" font-size="10.00">SDL.h</text>
</g>
<!-- program_time.cpp&#45;&gt;SDL.h -->
<g id="edge2" class="edge">
<title>program_time.cpp&#45;&gt;SDL.h</title>
<path fill="none" stroke="#eeeeee" d="M266.47,-1693C341.95,-1693 499.99,-1693 633.62,-1693 633.62,-1693 633.62,-1693 853.12,-1693 1143.46,-1693 1203.58,-1194.66 1214.2,-1067.34"/>
<polygon fill="#eeeeee" stroke="#eeeeee" points="1217.66,-1067.96 1214.96,-1057.71 1210.68,-1067.4 1217.66,-1067.96"/>
</g>
<!-- application.cpp -->
<g id="node4" class="node">
<title>application.cpp</title>
<polygon fill="#76abae" stroke="black" points="79.75,-1272 0,-1272 0,-1236 79.75,-1236 79.75,-1272"/>
<text text-anchor="middle" x="39.88" y="-1250.12" font-family="Times New Roman,serif" font-size="10.00">application.cpp</text>
</g>
<!-- application.cpp&#45;&gt;program_time.hpp -->
<g id="edge3" class="edge">
<title>application.cpp&#45;&gt;program_time.hpp</title>
<path fill="none" stroke="#eeeeee" d="M42.07,-1272.37C46.7,-1327.67 68.48,-1493.71 165.75,-1574 220.4,-1619.11 304.78,-1625.79 360.32,-1624.46"/>
<polygon fill="#eeeeee" stroke="#eeeeee" points="360.32,-1627.96 370.2,-1624.12 360.08,-1620.97 360.32,-1627.96"/>
</g>
<!-- logger.hpp -->
<g id="node5" class="node">
<title>logger.hpp</title>
<polygon fill="#76abae" stroke="black" points="447.62,-326 387.38,-326 387.38,-290 447.62,-290 447.62,-326"/>
<text text-anchor="middle" x="417.5" y="-304.12" font-family="Times New Roman,serif" font-size="10.00">logger.hpp</text>
</g>
<!-- application.cpp&#45;&gt;logger.hpp -->
<g id="edge4" class="edge">
<title>application.cpp&#45;&gt;logger.hpp</title>
<path fill="none" stroke="#eeeeee" d="M43.07,-1235.79C58.4,-1108.92 149.34,-361.57 165.75,-345 220.81,-289.39 320.39,-293.19 376.06,-300.69"/>
<polygon fill="#eeeeee" stroke="#eeeeee" points="375.34,-304.12 385.74,-302.11 376.35,-297.2 375.34,-304.12"/>
</g>
<!-- application.hpp -->
<g id="node6" class="node">
<title>application.hpp</title>
<polygon fill="#76abae" stroke="black" points="261.25,-909 180.75,-909 180.75,-873 261.25,-873 261.25,-909"/>
<text text-anchor="middle" x="221" y="-887.12" font-family="Times New Roman,serif" font-size="10.00">application.hpp</text>
</g>
<!-- application.cpp&#45;&gt;application.hpp -->
<g id="edge5" class="edge">
<title>application.cpp&#45;&gt;application.hpp</title>
<path fill="none" stroke="#eeeeee" d="M49.76,-1236C78.77,-1177.22 170.86,-990.58 206.1,-919.16"/>
<polygon fill="#eeeeee" stroke="#eeeeee" points="209.11,-920.98 210.39,-910.47 202.83,-917.89 209.11,-920.98"/>
</g>
<!-- script.hpp -->
<g id="node7" class="node">
<title>script.hpp</title>
<polygon fill="#76abae" stroke="black" points="662.88,-1347 606.38,-1347 606.38,-1311 662.88,-1311 662.88,-1347"/>
<text text-anchor="middle" x="634.62" y="-1325.12" font-family="Times New Roman,serif" font-size="10.00">script.hpp</text>
</g>
<!-- application.cpp&#45;&gt;script.hpp -->
<g id="edge6" class="edge">
<title>application.cpp&#45;&gt;script.hpp</title>
<path fill="none" stroke="#eeeeee" d="M46.86,-1272.35C60.63,-1311.11 98.62,-1400.65 165.75,-1436 286.48,-1499.58 342.14,-1475.47 472.75,-1436 525.35,-1420.1 576.51,-1380.73 606.54,-1354.44"/>
<polygon fill="#eeeeee" stroke="#eeeeee" points="608.53,-1357.35 613.66,-1348.08 603.87,-1352.13 608.53,-1357.35"/>
</g>
<!-- string -->
<g id="node18" class="node">
<title>string</title>
<polygon fill="#76abae" stroke="black" points="1244.25,-873 1190.25,-873 1190.25,-837 1244.25,-837 1244.25,-873"/>
<text text-anchor="middle" x="1217.25" y="-851.12" font-family="Times New Roman,serif" font-size="10.00">string</text>
</g>
<!-- logger.hpp&#45;&gt;string -->
<g id="edge37" class="edge">
<title>logger.hpp&#45;&gt;string</title>
<path fill="none" stroke="#eeeeee" d="M447.89,-322.19C511.46,-352.87 666.47,-427.64 796.5,-490 933.18,-555.55 995.52,-531.38 1104.25,-637 1160.4,-691.55 1193.69,-780.29 1207.98,-825.9"/>
<polygon fill="#eeeeee" stroke="#eeeeee" points="1204.59,-826.78 1210.84,-835.33 1211.29,-824.75 1204.59,-826.78"/>
</g>
<!-- fstream -->
<g id="node30" class="node">
<title>fstream</title>
<polygon fill="#76abae" stroke="black" points="661.62,-546 607.62,-546 607.62,-510 661.62,-510 661.62,-546"/>
<text text-anchor="middle" x="634.62" y="-524.12" font-family="Times New Roman,serif" font-size="10.00">fstream</text>
</g>
<!-- logger.hpp&#45;&gt;fstream -->
<g id="edge35" class="edge">
<title>logger.hpp&#45;&gt;fstream</title>
<path fill="none" stroke="#eeeeee" d="M443.63,-326.3C453.3,-333.97 464.09,-343.35 472.75,-353 519.02,-404.56 508.72,-435.09 558.75,-483 569.99,-493.76 584.24,-503.12 597.29,-510.48"/>
<polygon fill="#eeeeee" stroke="#eeeeee" points="595.62,-513.55 606.08,-515.22 598.94,-507.39 595.62,-513.55"/>
</g>
<!-- iostream -->
<g id="node31" class="node">
<title>iostream</title>
<polygon fill="#76abae" stroke="black" points="661.62,-618 607.62,-618 607.62,-582 661.62,-582 661.62,-618"/>
<text text-anchor="middle" x="634.62" y="-596.12" font-family="Times New Roman,serif" font-size="10.00">iostream</text>
</g>
<!-- logger.hpp&#45;&gt;iostream -->
<g id="edge36" class="edge">
<title>logger.hpp&#45;&gt;iostream</title>
<path fill="none" stroke="#eeeeee" d="M445.76,-326.33C455.26,-333.75 465.37,-342.93 472.75,-353 532.63,-434.67 489.37,-490.24 558.75,-564 569.12,-575.03 583.57,-583.06 597.02,-588.71"/>
<polygon fill="#eeeeee" stroke="#eeeeee" points="595.48,-591.87 606.07,-592.19 597.99,-585.33 595.48,-591.87"/>
</g>
<!-- renderer.hpp -->
<g id="node8" class="node">
<title>renderer.hpp</title>
<polygon fill="#76abae" stroke="black" points="668.12,-690 601.12,-690 601.12,-654 668.12,-654 668.12,-690"/>
<text text-anchor="middle" x="634.62" y="-668.12" font-family="Times New Roman,serif" font-size="10.00">renderer.hpp</text>
</g>
<!-- application.hpp&#45;&gt;renderer.hpp -->
<g id="edge7" class="edge">
<title>application.hpp&#45;&gt;renderer.hpp</title>
<path fill="none" stroke="#eeeeee" d="M261.5,-876.57C312.01,-857.44 401.46,-821.24 472.75,-780 513.76,-756.27 519.29,-743.23 558.75,-717 569.29,-709.99 580.92,-702.77 591.8,-696.22"/>
<polygon fill="#eeeeee" stroke="#eeeeee" points="593.43,-699.32 600.23,-691.2 589.85,-693.31 593.43,-699.32"/>
</g>
<!-- resources_loader.hpp -->
<g id="node9" class="node">
<title>resources_loader.hpp</title>
<polygon fill="#76abae" stroke="black" points="468.62,-254 366.38,-254 366.38,-218 468.62,-218 468.62,-254"/>
<text text-anchor="middle" x="417.5" y="-232.12" font-family="Times New Roman,serif" font-size="10.00">resources_loader.hpp</text>
</g>
<!-- application.hpp&#45;&gt;resources_loader.hpp -->
<g id="edge8" class="edge">
<title>application.hpp&#45;&gt;resources_loader.hpp</title>
<path fill="none" stroke="#eeeeee" d="M224.3,-872.63C236.01,-781.13 291.31,-374.83 362.25,-272 364.81,-268.29 367.89,-264.85 371.27,-261.71"/>
<polygon fill="#eeeeee" stroke="#eeeeee" points="373.44,-264.46 378.98,-255.43 369.01,-259.03 373.44,-264.46"/>
</g>
<!-- input_manager.hpp -->
<g id="node10" class="node">
<title>input_manager.hpp</title>
<polygon fill="#76abae" stroke="black" points="899.88,-836 804.38,-836 804.38,-800 899.88,-800 899.88,-836"/>
<text text-anchor="middle" x="852.12" y="-814.12" font-family="Times New Roman,serif" font-size="10.00">input_manager.hpp</text>
</g>
<!-- application.hpp&#45;&gt;input_manager.hpp -->
<g id="edge9" class="edge">
<title>application.hpp&#45;&gt;input_manager.hpp</title>
<path fill="none" stroke="#eeeeee" d="M261.44,-886.32C311.88,-879.41 401.26,-864.05 472.75,-835 514.34,-818.1 515.55,-794.24 558.75,-782 623.64,-763.61 643.58,-773.57 710.5,-782 738.16,-785.48 768.18,-792.68 793.35,-799.73"/>
<polygon fill="#eeeeee" stroke="#eeeeee" points="792.15,-803.03 802.72,-802.42 794.08,-796.3 792.15,-803.03"/>
</g>
<!-- scripts_manager.hpp -->
<g id="node11" class="node">
<title>scripts_manager.hpp</title>
<polygon fill="#76abae" stroke="black" points="467.5,-982 367.5,-982 367.5,-946 467.5,-946 467.5,-982"/>
<text text-anchor="middle" x="417.5" y="-960.12" font-family="Times New Roman,serif" font-size="10.00">scripts_manager.hpp</text>
</g>
<!-- application.hpp&#45;&gt;scripts_manager.hpp -->
<g id="edge10" class="edge">
<title>application.hpp&#45;&gt;scripts_manager.hpp</title>
<path fill="none" stroke="#eeeeee" d="M261.36,-905.77C288.77,-916.06 325.81,-929.96 356.83,-941.61"/>
<polygon fill="#eeeeee" stroke="#eeeeee" points="355.52,-944.85 366.11,-945.09 357.98,-938.3 355.52,-944.85"/>
</g>
<!-- script.hpp&#45;&gt;string -->
<g id="edge26" class="edge">
<title>script.hpp&#45;&gt;string</title>
<path fill="none" stroke="#eeeeee" d="M663.1,-1330.91C715.04,-1333.19 829.45,-1331.75 907.75,-1283 1069.69,-1182.18 1172.31,-962.15 1204.96,-883.59"/>
<polygon fill="#eeeeee" stroke="#eeeeee" points="1208.15,-885.03 1208.69,-874.45 1201.67,-882.38 1208.15,-885.03"/>
</g>
<!-- entt.hpp -->
<g id="node13" class="node">
<title>entt.hpp</title>
<polygon fill="#76abae" stroke="black" points="879.12,-690 825.12,-690 825.12,-654 879.12,-654 879.12,-690"/>
<text text-anchor="middle" x="852.12" y="-668.12" font-family="Times New Roman,serif" font-size="10.00">entt.hpp</text>
</g>
<!-- renderer.hpp&#45;&gt;entt.hpp -->
<g id="edge51" class="edge">
<title>renderer.hpp&#45;&gt;entt.hpp</title>
<path fill="none" stroke="#eeeeee" d="M668.35,-672C707.36,-672 772.41,-672 813.47,-672"/>
<polygon fill="#eeeeee" stroke="#eeeeee" points="813.37,-675.5 823.37,-672 813.37,-668.5 813.37,-675.5"/>
</g>
<!-- resource_container.hpp -->
<g id="node14" class="node">
<title>resource_container.hpp</title>
<polygon fill="#76abae" stroke="black" points="907.75,-472 796.5,-472 796.5,-436 907.75,-436 907.75,-472"/>
<text text-anchor="middle" x="852.12" y="-450.12" font-family="Times New Roman,serif" font-size="10.00">resource_container.hpp</text>
</g>
<!-- renderer.hpp&#45;&gt;resource_container.hpp -->
<g id="edge52" class="edge">
<title>renderer.hpp&#45;&gt;resource_container.hpp</title>
<path fill="none" stroke="#eeeeee" d="M668.5,-660.13C682.33,-654.18 698.06,-646.07 710.5,-636 765.77,-591.26 812.19,-520.69 835.33,-481.88"/>
<polygon fill="#eeeeee" stroke="#eeeeee" points="838.16,-483.98 840.2,-473.58 832.12,-480.44 838.16,-483.98"/>
</g>
<!-- camera.hpp -->
<g id="node16" class="node">
<title>camera.hpp</title>
<polygon fill="#76abae" stroke="black" points="883.38,-763 820.88,-763 820.88,-727 883.38,-727 883.38,-763"/>
<text text-anchor="middle" x="852.12" y="-741.12" font-family="Times New Roman,serif" font-size="10.00">camera.hpp</text>
</g>
<!-- renderer.hpp&#45;&gt;camera.hpp -->
<g id="edge53" class="edge">
<title>renderer.hpp&#45;&gt;camera.hpp</title>
<path fill="none" stroke="#eeeeee" d="M668.35,-683.09C706.21,-695.91 768.6,-717.04 809.78,-730.99"/>
<polygon fill="#eeeeee" stroke="#eeeeee" points="808.51,-734.26 819.1,-734.15 810.75,-727.63 808.51,-734.26"/>
</g>
<!-- resources_loader.hpp&#45;&gt;resource_container.hpp -->
<g id="edge64" class="edge">
<title>resources_loader.hpp&#45;&gt;resource_container.hpp</title>
<path fill="none" stroke="#eeeeee" d="M469.12,-231.43C530.41,-228.29 634.79,-230.8 710.5,-274 772.63,-309.45 817.02,-384.31 837.83,-425.44"/>
<polygon fill="#eeeeee" stroke="#eeeeee" points="834.61,-426.83 842.17,-434.25 840.89,-423.73 834.61,-426.83"/>
</g>
<!-- startup_options.hpp -->
<g id="node43" class="node">
<title>startup_options.hpp</title>
<polygon fill="#76abae" stroke="black" points="683.5,-328 585.75,-328 585.75,-292 683.5,-292 683.5,-328"/>
<text text-anchor="middle" x="634.62" y="-306.12" font-family="Times New Roman,serif" font-size="10.00">startup_options.hpp</text>
</g>
<!-- resources_loader.hpp&#45;&gt;startup_options.hpp -->
<g id="edge63" class="edge">
<title>resources_loader.hpp&#45;&gt;startup_options.hpp</title>
<path fill="none" stroke="#eeeeee" d="M468.94,-253.35C500.65,-264.26 541.7,-278.38 574.88,-289.79"/>
<polygon fill="#eeeeee" stroke="#eeeeee" points="573.33,-292.96 583.92,-292.9 575.6,-286.34 573.33,-292.96"/>
</g>
<!-- input_manager.hpp&#45;&gt;SDL.h -->
<g id="edge31" class="edge">
<title>input_manager.hpp&#45;&gt;SDL.h</title>
<path fill="none" stroke="#eeeeee" d="M861.44,-836.5C879.51,-874.36 926.23,-960.51 993.75,-1001 1051.37,-1035.55 1131.69,-1040.41 1178.41,-1039.86"/>
<polygon fill="#eeeeee" stroke="#eeeeee" points="1178.37,-1043.36 1188.29,-1039.64 1178.22,-1036.36 1178.37,-1043.36"/>
</g>
<!-- input_manager.hpp&#45;&gt;string -->
<g id="edge30" class="edge">
<title>input_manager.hpp&#45;&gt;string</title>
<path fill="none" stroke="#eeeeee" d="M900.22,-822.8C973.18,-830.23 1112.03,-844.38 1178.7,-851.17"/>
<polygon fill="#eeeeee" stroke="#eeeeee" points="1178.09,-854.63 1188.39,-852.16 1178.8,-847.67 1178.09,-854.63"/>
</g>
<!-- map -->
<g id="node26" class="node">
<title>map</title>
<polygon fill="#76abae" stroke="black" points="1076,-691 1022,-691 1022,-655 1076,-655 1076,-691"/>
<text text-anchor="middle" x="1049" y="-669.12" font-family="Times New Roman,serif" font-size="10.00">map</text>
</g>
<!-- input_manager.hpp&#45;&gt;map -->
<g id="edge29" class="edge">
<title>input_manager.hpp&#45;&gt;map</title>
<path fill="none" stroke="#eeeeee" d="M881.14,-799.5C889.75,-793.69 899.21,-787.17 907.75,-781 945.57,-753.67 987.86,-720.77 1016.02,-698.52"/>
<polygon fill="#eeeeee" stroke="#eeeeee" points="1018.15,-701.29 1023.81,-692.34 1013.8,-695.81 1018.15,-701.29"/>
</g>
<!-- ScriptsExecutionEnviroment.hpp -->
<g id="node12" class="node">
<title>ScriptsExecutionEnviroment.hpp</title>
<polygon fill="#76abae" stroke="black" points="710.5,-836 558.75,-836 558.75,-800 710.5,-800 710.5,-836"/>
<text text-anchor="middle" x="634.62" y="-814.12" font-family="Times New Roman,serif" font-size="10.00">ScriptsExecutionEnviroment.hpp</text>
</g>
<!-- scripts_manager.hpp&#45;&gt;ScriptsExecutionEnviroment.hpp -->
<g id="edge27" class="edge">
<title>scripts_manager.hpp&#45;&gt;ScriptsExecutionEnviroment.hpp</title>
<path fill="none" stroke="#eeeeee" d="M442.4,-945.86C469.97,-925.15 516.91,-890.57 558.75,-863 569.32,-856.04 580.95,-848.83 591.84,-842.28"/>
<polygon fill="#eeeeee" stroke="#eeeeee" points="593.47,-845.38 600.27,-837.25 589.89,-839.37 593.47,-845.38"/>
</g>
<!-- compiled_script.hpp -->
<g id="node25" class="node">
<title>compiled_script.hpp</title>
<polygon fill="#76abae" stroke="black" points="684.62,-1126 584.62,-1126 584.62,-1090 684.62,-1090 684.62,-1126"/>
<text text-anchor="middle" x="634.62" y="-1104.12" font-family="Times New Roman,serif" font-size="10.00">compiled_script.hpp</text>
</g>
<!-- scripts_manager.hpp&#45;&gt;compiled_script.hpp -->
<g id="edge28" class="edge">
<title>scripts_manager.hpp&#45;&gt;compiled_script.hpp</title>
<path fill="none" stroke="#eeeeee" d="M441.19,-982.4C474.43,-1009.2 535.01,-1057.37 558.75,-1072 565.76,-1076.32 573.36,-1080.5 580.95,-1084.39"/>
<polygon fill="#eeeeee" stroke="#eeeeee" points="579.36,-1087.51 589.87,-1088.83 582.47,-1081.24 579.36,-1087.51"/>
</g>
<!-- ScriptsExecutionEnviroment.hpp&#45;&gt;input_manager.hpp -->
<g id="edge13" class="edge">
<title>ScriptsExecutionEnviroment.hpp&#45;&gt;input_manager.hpp</title>
<path fill="none" stroke="#eeeeee" d="M711,-818C737.84,-818 767.63,-818 792.82,-818"/>
<polygon fill="#eeeeee" stroke="#eeeeee" points="792.53,-821.5 802.53,-818 792.53,-814.5 792.53,-821.5"/>
</g>
<!-- ScriptsExecutionEnviroment.hpp&#45;&gt;entt.hpp -->
<g id="edge11" class="edge">
<title>ScriptsExecutionEnviroment.hpp&#45;&gt;entt.hpp</title>
<path fill="none" stroke="#eeeeee" d="M662.92,-799.51C701.59,-773.31 772.37,-725.36 815.24,-696.31"/>
<polygon fill="#eeeeee" stroke="#eeeeee" points="817.16,-699.24 823.47,-690.73 813.23,-693.44 817.16,-699.24"/>
</g>
<!-- ScriptsExecutionEnviroment.hpp&#45;&gt;resource_container.hpp -->
<g id="edge12" class="edge">
<title>ScriptsExecutionEnviroment.hpp&#45;&gt;resource_container.hpp</title>
<path fill="none" stroke="#eeeeee" d="M648.87,-799.66C664.27,-778.1 690.16,-741.05 710.5,-708 759.76,-627.95 811.87,-529.75 836.54,-482.31"/>
<polygon fill="#eeeeee" stroke="#eeeeee" points="839.6,-484.02 841.1,-473.53 833.39,-480.8 839.6,-484.02"/>
</g>
<!-- resource_container.hpp&#45;&gt;map -->
<g id="edge40" class="edge">
<title>resource_container.hpp&#45;&gt;map</title>
<path fill="none" stroke="#eeeeee" d="M869.4,-472.3C903.79,-510.94 983.97,-601.04 1024.15,-646.2"/>
<polygon fill="#eeeeee" stroke="#eeeeee" points="1021.36,-648.33 1030.62,-653.47 1026.59,-643.67 1021.36,-648.33"/>
</g>
<!-- uncompiled_script.hpp -->
<g id="node32" class="node">
<title>uncompiled_script.hpp</title>
<polygon fill="#76abae" stroke="black" points="1104.25,-328 993.75,-328 993.75,-292 1104.25,-292 1104.25,-328"/>
<text text-anchor="middle" x="1049" y="-306.12" font-family="Times New Roman,serif" font-size="10.00">uncompiled_script.hpp</text>
</g>
<!-- resource_container.hpp&#45;&gt;uncompiled_script.hpp -->
<g id="edge44" class="edge">
<title>resource_container.hpp&#45;&gt;uncompiled_script.hpp</title>
<path fill="none" stroke="#eeeeee" d="M876.14,-435.54C903.69,-413.62 951.42,-376.24 993.75,-346 999.05,-342.21 1004.72,-338.3 1010.32,-334.52"/>
<polygon fill="#eeeeee" stroke="#eeeeee" points="1011.97,-337.63 1018.33,-329.16 1008.07,-331.81 1011.97,-337.63"/>
</g>
<!-- memory -->
<g id="node34" class="node">
<title>memory</title>
<polygon fill="#76abae" stroke="black" points="1076,-400 1022,-400 1022,-364 1076,-364 1076,-400"/>
<text text-anchor="middle" x="1049" y="-378.12" font-family="Times New Roman,serif" font-size="10.00">memory</text>
</g>
<!-- resource_container.hpp&#45;&gt;memory -->
<g id="edge41" class="edge">
<title>resource_container.hpp&#45;&gt;memory</title>
<path fill="none" stroke="#eeeeee" d="M903.06,-435.55C936.7,-423.12 980.36,-406.99 1010.93,-395.7"/>
<polygon fill="#eeeeee" stroke="#eeeeee" points="1011.97,-399.04 1020.14,-392.3 1009.54,-392.48 1011.97,-399.04"/>
</g>
<!-- queue -->
<g id="node35" class="node">
<title>queue</title>
<polygon fill="#76abae" stroke="black" points="1076,-472 1022,-472 1022,-436 1076,-436 1076,-472"/>
<text text-anchor="middle" x="1049" y="-450.12" font-family="Times New Roman,serif" font-size="10.00">queue</text>
</g>
<!-- resource_container.hpp&#45;&gt;queue -->
<g id="edge42" class="edge">
<title>resource_container.hpp&#45;&gt;queue</title>
<path fill="none" stroke="#eeeeee" d="M908.19,-454C940.83,-454 981.36,-454 1010.36,-454"/>
<polygon fill="#eeeeee" stroke="#eeeeee" points="1010.13,-457.5 1020.13,-454 1010.13,-450.5 1010.13,-457.5"/>
</g>
<!-- image.hpp -->
<g id="node36" class="node">
<title>image.hpp</title>
<polygon fill="#76abae" stroke="black" points="1078.38,-983 1019.62,-983 1019.62,-947 1078.38,-947 1078.38,-983"/>
<text text-anchor="middle" x="1049" y="-961.12" font-family="Times New Roman,serif" font-size="10.00">image.hpp</text>
</g>
<!-- resource_container.hpp&#45;&gt;image.hpp -->
<g id="edge43" class="edge">
<title>resource_container.hpp&#45;&gt;image.hpp</title>
<path fill="none" stroke="#eeeeee" d="M860.18,-472.49C889.39,-549.1 1001.08,-841.97 1036.89,-935.86"/>
<polygon fill="#eeeeee" stroke="#eeeeee" points="1033.59,-937.03 1040.42,-945.12 1040.13,-934.53 1033.59,-937.03"/>
</g>
<!-- components.hpp -->
<g id="node15" class="node">
<title>components.hpp</title>
<polygon fill="#76abae" stroke="black" points="459.25,-1272 375.75,-1272 375.75,-1236 459.25,-1236 459.25,-1272"/>
<text text-anchor="middle" x="417.5" y="-1250.12" font-family="Times New Roman,serif" font-size="10.00">components.hpp</text>
</g>
<!-- components.hpp&#45;&gt;script.hpp -->
<g id="edge16" class="edge">
<title>components.hpp&#45;&gt;script.hpp</title>
<path fill="none" stroke="#eeeeee" d="M459.72,-1268.37C498.92,-1282.04 557.4,-1302.43 595.53,-1315.72"/>
<polygon fill="#eeeeee" stroke="#eeeeee" points="594.16,-1318.95 604.76,-1318.94 596.47,-1312.34 594.16,-1318.95"/>
</g>
<!-- components.hpp&#45;&gt;camera.hpp -->
<g id="edge14" class="edge">
<title>components.hpp&#45;&gt;camera.hpp</title>
<path fill="none" stroke="#eeeeee" d="M453.95,-1235.68C460.97,-1230.73 467.71,-1224.82 472.75,-1218 552.67,-1109.9 471.87,-1030.59 558.75,-928 607.24,-870.74 647.55,-894.83 710.5,-854 752.32,-826.87 756.7,-812.02 796.5,-782 801.83,-777.98 807.57,-773.87 813.25,-769.92"/>
<polygon fill="#eeeeee" stroke="#eeeeee" points="815.14,-772.87 821.42,-764.33 811.19,-767.09 815.14,-772.87"/>
</g>
<!-- graphic.hpp -->
<g id="node17" class="node">
<title>graphic.hpp</title>
<polygon fill="#76abae" stroke="black" points="667,-1054 602.25,-1054 602.25,-1018 667,-1018 667,-1054"/>
<text text-anchor="middle" x="634.62" y="-1032.12" font-family="Times New Roman,serif" font-size="10.00">graphic.hpp</text>
</g>
<!-- components.hpp&#45;&gt;graphic.hpp -->
<g id="edge15" class="edge">
<title>components.hpp&#45;&gt;graphic.hpp</title>
<path fill="none" stroke="#eeeeee" d="M451.35,-1235.66C458.9,-1230.54 466.53,-1224.56 472.75,-1218 524.56,-1163.34 503.31,-1122.96 558.75,-1072 568.18,-1063.33 580.08,-1056.34 591.6,-1050.92"/>
<polygon fill="#eeeeee" stroke="#eeeeee" points="592.85,-1054.19 600.6,-1046.97 590.04,-1047.78 592.85,-1054.19"/>
</g>
<!-- graphic.hpp&#45;&gt;string -->
<g id="edge17" class="edge">
<title>graphic.hpp&#45;&gt;string</title>
<path fill="none" stroke="#eeeeee" d="M667.25,-1026.14C766.69,-995.14 1072.68,-899.76 1179.21,-866.55"/>
<polygon fill="#eeeeee" stroke="#eeeeee" points="1180.1,-869.94 1188.6,-863.62 1178.01,-863.25 1180.1,-869.94"/>
</g>
<!-- scripts_manager.cpp -->
<g id="node19" class="node">
<title>scripts_manager.cpp</title>
<polygon fill="#76abae" stroke="black" points="270.62,-1128 171.38,-1128 171.38,-1092 270.62,-1092 270.62,-1128"/>
<text text-anchor="middle" x="221" y="-1106.12" font-family="Times New Roman,serif" font-size="10.00">scripts_manager.cpp</text>
</g>
<!-- scripts_manager.cpp&#45;&gt;logger.hpp -->
<g id="edge20" class="edge">
<title>scripts_manager.cpp&#45;&gt;logger.hpp</title>
<path fill="none" stroke="#eeeeee" d="M228.21,-1091.75C239.16,-1059.06 262.07,-988.17 276.25,-927 328.06,-703.5 291.65,-636.3 362.25,-418 371.65,-388.92 387.56,-357.88 399.73,-336.21"/>
<polygon fill="#eeeeee" stroke="#eeeeee" points="402.68,-338.1 404.6,-327.69 396.6,-334.63 402.68,-338.1"/>
</g>
<!-- scripts_manager.cpp&#45;&gt;script.hpp -->
<g id="edge19" class="edge">
<title>scripts_manager.cpp&#45;&gt;script.hpp</title>
<path fill="none" stroke="#eeeeee" d="M230.3,-1128.32C248.32,-1165.79 294.92,-1250.93 362.25,-1290 435.89,-1332.73 539.11,-1334.79 594.62,-1332.15"/>
<polygon fill="#eeeeee" stroke="#eeeeee" points="594.74,-1335.65 604.53,-1331.59 594.35,-1328.66 594.74,-1335.65"/>
</g>
<!-- scripts_manager.cpp&#45;&gt;scripts_manager.hpp -->
<g id="edge18" class="edge">
<title>scripts_manager.cpp&#45;&gt;scripts_manager.hpp</title>
<path fill="none" stroke="#eeeeee" d="M246.63,-1091.51C281.27,-1065.51 344.46,-1018.08 383.24,-988.97"/>
<polygon fill="#eeeeee" stroke="#eeeeee" points="384.96,-992.05 390.86,-983.25 380.76,-986.45 384.96,-992.05"/>
</g>
<!-- cpp_lua_functions.hpp -->
<g id="node20" class="node">
<title>cpp_lua_functions.hpp</title>
<polygon fill="#76abae" stroke="black" points="472.75,-1200 362.25,-1200 362.25,-1164 472.75,-1164 472.75,-1200"/>
<text text-anchor="middle" x="417.5" y="-1178.12" font-family="Times New Roman,serif" font-size="10.00">cpp_lua_functions.hpp</text>
</g>
<!-- scripts_manager.cpp&#45;&gt;cpp_lua_functions.hpp -->
<g id="edge21" class="edge">
<title>scripts_manager.cpp&#45;&gt;cpp_lua_functions.hpp</title>
<path fill="none" stroke="#eeeeee" d="M271.08,-1128.17C296.91,-1137.73 328.81,-1149.54 356.14,-1159.66"/>
<polygon fill="#eeeeee" stroke="#eeeeee" points="354.75,-1162.87 365.34,-1163.06 357.18,-1156.31 354.75,-1162.87"/>
</g>
<!-- format -->
<g id="node21" class="node">
<title>format</title>
<polygon fill="#76abae" stroke="black" points="444.5,-762 390.5,-762 390.5,-726 444.5,-726 444.5,-762"/>
<text text-anchor="middle" x="417.5" y="-740.12" font-family="Times New Roman,serif" font-size="10.00">format</text>
</g>
<!-- scripts_manager.cpp&#45;&gt;format -->
<g id="edge22" class="edge">
<title>scripts_manager.cpp&#45;&gt;format</title>
<path fill="none" stroke="#eeeeee" d="M231.78,-1091.6C263.43,-1032.03 363.26,-844.19 401.44,-772.34"/>
<polygon fill="#eeeeee" stroke="#eeeeee" points="404.5,-774.03 406.11,-763.56 398.32,-770.74 404.5,-774.03"/>
</g>
<!-- unordered_map -->
<g id="node22" class="node">
<title>unordered_map</title>
<polygon fill="#76abae" stroke="black" points="457.38,-1128 377.62,-1128 377.62,-1092 457.38,-1092 457.38,-1128"/>
<text text-anchor="middle" x="417.5" y="-1106.12" font-family="Times New Roman,serif" font-size="10.00">unordered_map</text>
</g>
<!-- scripts_manager.cpp&#45;&gt;unordered_map -->
<g id="edge23" class="edge">
<title>scripts_manager.cpp&#45;&gt;unordered_map</title>
<path fill="none" stroke="#eeeeee" d="M271.08,-1110C300.09,-1110 336.75,-1110 366,-1110"/>
<polygon fill="#eeeeee" stroke="#eeeeee" points="365.71,-1113.5 375.71,-1110 365.71,-1106.5 365.71,-1113.5"/>
</g>
<!-- LuaBridge.h -->
<g id="node23" class="node">
<title>LuaBridge.h</title>
<polygon fill="#76abae" stroke="black" points="451,-1418 384,-1418 384,-1382 451,-1382 451,-1418"/>
<text text-anchor="middle" x="417.5" y="-1396.12" font-family="Times New Roman,serif" font-size="10.00">LuaBridge.h</text>
</g>
<!-- scripts_manager.cpp&#45;&gt;LuaBridge.h -->
<g id="edge24" class="edge">
<title>scripts_manager.cpp&#45;&gt;LuaBridge.h</title>
<path fill="none" stroke="#eeeeee" d="M229.72,-1128.31C248.3,-1171.03 298.7,-1279.41 362.25,-1355 368.01,-1361.85 374.9,-1368.46 381.82,-1374.4"/>
<polygon fill="#eeeeee" stroke="#eeeeee" points="379.38,-1376.93 389.33,-1380.59 383.83,-1371.53 379.38,-1376.93"/>
</g>
<!-- cpp_lua_functions.hpp&#45;&gt;ScriptsExecutionEnviroment.hpp -->
<g id="edge73" class="edge">
<title>cpp_lua_functions.hpp&#45;&gt;ScriptsExecutionEnviroment.hpp</title>
<path fill="none" stroke="#eeeeee" d="M453.92,-1163.66C460.93,-1158.71 467.69,-1152.8 472.75,-1146 551.25,-1040.56 477.91,-966.66 558.75,-863 564.92,-855.09 572.89,-848.27 581.33,-842.49"/>
<polygon fill="#eeeeee" stroke="#eeeeee" points="583.1,-845.51 589.7,-837.23 579.38,-839.59 583.1,-845.51"/>
</g>
<!-- lua.hpp -->
<g id="node42" class="node">
<title>lua.hpp</title>
<polygon fill="#76abae" stroke="black" points="879.12,-1199 825.12,-1199 825.12,-1163 879.12,-1163 879.12,-1199"/>
<text text-anchor="middle" x="852.12" y="-1177.12" font-family="Times New Roman,serif" font-size="10.00">lua.hpp</text>
</g>
<!-- cpp_lua_functions.hpp&#45;&gt;lua.hpp -->
<g id="edge74" class="edge">
<title>cpp_lua_functions.hpp&#45;&gt;lua.hpp</title>
<path fill="none" stroke="#eeeeee" d="M472.85,-1181.87C561.82,-1181.67 736.31,-1181.27 813.2,-1181.09"/>
<polygon fill="#eeeeee" stroke="#eeeeee" points="813.17,-1184.59 823.17,-1181.06 813.16,-1177.59 813.17,-1184.59"/>
</g>
<!-- input_manager.cpp -->
<g id="node24" class="node">
<title>input_manager.cpp</title>
<polygon fill="#76abae" stroke="black" points="682,-982 587.25,-982 587.25,-946 682,-946 682,-982"/>
<text text-anchor="middle" x="634.62" y="-960.12" font-family="Times New Roman,serif" font-size="10.00">input_manager.cpp</text>
</g>
<!-- input_manager.cpp&#45;&gt;input_manager.hpp -->
<g id="edge25" class="edge">
<title>input_manager.cpp&#45;&gt;input_manager.hpp</title>
<path fill="none" stroke="#eeeeee" d="M667.68,-945.52C681.07,-937.59 696.69,-928.09 710.5,-919 748.17,-894.21 789.99,-863.78 818.16,-842.84"/>
<polygon fill="#eeeeee" stroke="#eeeeee" points="820.02,-845.82 825.94,-837.03 815.84,-840.21 820.02,-845.82"/>
</g>
<!-- compiled_script.hpp&#45;&gt;lua.hpp -->
<g id="edge62" class="edge">
<title>compiled_script.hpp&#45;&gt;lua.hpp</title>
<path fill="none" stroke="#eeeeee" d="M685.07,-1124.75C724.31,-1138.04 778.32,-1156.34 813.95,-1168.41"/>
<polygon fill="#eeeeee" stroke="#eeeeee" points="812.81,-1171.71 823.4,-1171.61 815.05,-1165.08 812.81,-1171.71"/>
</g>
<!-- logger.cpp -->
<g id="node27" class="node">
<title>logger.cpp</title>
<polygon fill="#76abae" stroke="black" points="250.75,-108 191.25,-108 191.25,-72 250.75,-72 250.75,-108"/>
<text text-anchor="middle" x="221" y="-86.12" font-family="Times New Roman,serif" font-size="10.00">logger.cpp</text>
</g>
<!-- logger.cpp&#45;&gt;logger.hpp -->
<g id="edge33" class="edge">
<title>logger.cpp&#45;&gt;logger.hpp</title>
<path fill="none" stroke="#eeeeee" d="M233.24,-108.38C255.08,-143.12 306.07,-219.65 362.25,-272 367.02,-276.44 372.39,-280.71 377.85,-284.66"/>
<polygon fill="#eeeeee" stroke="#eeeeee" points="375.57,-287.33 385.79,-290.11 379.53,-281.56 375.57,-287.33"/>
</g>
<!-- ctime -->
<g id="node28" class="node">
<title>ctime</title>
<polygon fill="#76abae" stroke="black" points="444.5,-108 390.5,-108 390.5,-72 444.5,-72 444.5,-108"/>
<text text-anchor="middle" x="417.5" y="-86.12" font-family="Times New Roman,serif" font-size="10.00">ctime</text>
</g>
<!-- logger.cpp&#45;&gt;ctime -->
<g id="edge32" class="edge">
<title>logger.cpp&#45;&gt;ctime</title>
<path fill="none" stroke="#eeeeee" d="M251.12,-90C285.16,-90 341.59,-90 378.91,-90"/>
<polygon fill="#eeeeee" stroke="#eeeeee" points="378.79,-93.5 388.79,-90 378.79,-86.5 378.79,-93.5"/>
</g>
<!-- chrono -->
<g id="node29" class="node">
<title>chrono</title>
<polygon fill="#76abae" stroke="black" points="444.5,-36 390.5,-36 390.5,0 444.5,0 444.5,-36"/>
<text text-anchor="middle" x="417.5" y="-14.12" font-family="Times New Roman,serif" font-size="10.00">chrono</text>
</g>
<!-- logger.cpp&#45;&gt;chrono -->
<g id="edge34" class="edge">
<title>logger.cpp&#45;&gt;chrono</title>
<path fill="none" stroke="#eeeeee" d="M251.12,-79.22C285.46,-66.51 342.57,-45.37 379.88,-31.56"/>
<polygon fill="#eeeeee" stroke="#eeeeee" points="380.72,-34.98 388.88,-28.22 378.29,-28.41 380.72,-34.98"/>
</g>
<!-- uncompiled_script.hpp&#45;&gt;string -->
<g id="edge39" class="edge">
<title>uncompiled_script.hpp&#45;&gt;string</title>
<path fill="none" stroke="#eeeeee" d="M1086.38,-328.45C1093.17,-333.34 1099.59,-339.19 1104.25,-346 1211.14,-501.99 1218.15,-742.53 1217.12,-825.6"/>
<polygon fill="#eeeeee" stroke="#eeeeee" points="1213.62,-825.33 1216.94,-835.39 1220.62,-825.45 1213.62,-825.33"/>
</g>
<!-- vector -->
<g id="node33" class="node">
<title>vector</title>
<polygon fill="#76abae" stroke="black" points="1244.25,-328 1190.25,-328 1190.25,-292 1244.25,-292 1244.25,-328"/>
<text text-anchor="middle" x="1217.25" y="-306.12" font-family="Times New Roman,serif" font-size="10.00">vector</text>
</g>
<!-- uncompiled_script.hpp&#45;&gt;vector -->
<g id="edge38" class="edge">
<title>uncompiled_script.hpp&#45;&gt;vector</title>
<path fill="none" stroke="#eeeeee" d="M1104.44,-310C1128.73,-310 1156.74,-310 1178.65,-310"/>
<polygon fill="#eeeeee" stroke="#eeeeee" points="1178.62,-313.5 1188.62,-310 1178.62,-306.5 1178.62,-313.5"/>
</g>
<!-- image.hpp&#45;&gt;SDL.h -->
<g id="edge46" class="edge">
<title>image.hpp&#45;&gt;SDL.h</title>
<path fill="none" stroke="#eeeeee" d="M1078.58,-977.55C1106.57,-989.84 1149.32,-1008.61 1179.75,-1021.97"/>
<polygon fill="#eeeeee" stroke="#eeeeee" points="1178.01,-1025.03 1188.57,-1025.85 1180.82,-1018.62 1178.01,-1025.03"/>
</g>
<!-- image.hpp&#45;&gt;string -->
<g id="edge47" class="edge">
<title>image.hpp&#45;&gt;string</title>
<path fill="none" stroke="#eeeeee" d="M1077.83,-946.59C1106.02,-927.93 1149.74,-899.01 1180.49,-878.66"/>
<polygon fill="#eeeeee" stroke="#eeeeee" points="1182.31,-881.65 1188.72,-873.22 1178.45,-875.82 1182.31,-881.65"/>
</g>
<!-- main.cpp -->
<g id="node37" class="node">
<title>main.cpp</title>
<polygon fill="#76abae" stroke="black" points="66.88,-909 12.88,-909 12.88,-873 66.88,-873 66.88,-909"/>
<text text-anchor="middle" x="39.88" y="-887.12" font-family="Times New Roman,serif" font-size="10.00">main.cpp</text>
</g>
<!-- main.cpp&#45;&gt;application.hpp -->
<g id="edge45" class="edge">
<title>main.cpp&#45;&gt;application.hpp</title>
<path fill="none" stroke="#eeeeee" d="M67.31,-891C94.03,-891 136.02,-891 169.2,-891"/>
<polygon fill="#eeeeee" stroke="#eeeeee" points="169.02,-894.5 179.02,-891 169.02,-887.5 169.02,-894.5"/>
</g>
<!-- renderer.cpp -->
<g id="node38" class="node">
<title>renderer.cpp</title>
<polygon fill="#76abae" stroke="black" points="450.62,-690 384.38,-690 384.38,-654 450.62,-654 450.62,-690"/>
<text text-anchor="middle" x="417.5" y="-668.12" font-family="Times New Roman,serif" font-size="10.00">renderer.cpp</text>
</g>
<!-- renderer.cpp&#45;&gt;renderer.hpp -->
<g id="edge48" class="edge">
<title>renderer.cpp&#45;&gt;renderer.hpp</title>
<path fill="none" stroke="#eeeeee" d="M450.71,-672C487.59,-672 548.23,-672 589.5,-672"/>
<polygon fill="#eeeeee" stroke="#eeeeee" points="589.33,-675.5 599.33,-672 589.33,-668.5 589.33,-675.5"/>
</g>
<!-- renderer.cpp&#45;&gt;graphic.hpp -->
<g id="edge49" class="edge">
<title>renderer.cpp&#45;&gt;graphic.hpp</title>
<path fill="none" stroke="#eeeeee" d="M450.86,-688.19C458.96,-693.55 466.98,-700.18 472.75,-708 553.07,-816.86 471.13,-896.92 558.75,-1000 567.35,-1010.11 579.44,-1017.61 591.41,-1023.06"/>
<polygon fill="#eeeeee" stroke="#eeeeee" points="589.82,-1026.19 600.4,-1026.76 592.48,-1019.72 589.82,-1026.19"/>
</g>
<!-- renderer.cpp&#45;&gt;iostream -->
<g id="edge50" class="edge">
<title>renderer.cpp&#45;&gt;iostream</title>
<path fill="none" stroke="#eeeeee" d="M450.71,-661.22C489.71,-648.17 555.26,-626.23 596.39,-612.46"/>
<polygon fill="#eeeeee" stroke="#eeeeee" points="597.5,-615.78 605.87,-609.29 595.27,-609.14 597.5,-615.78"/>
</g>
<!-- resources_loader.cpp -->
<g id="node39" class="node">
<title>resources_loader.cpp</title>
<polygon fill="#76abae" stroke="black" points="271.75,-509 170.25,-509 170.25,-473 271.75,-473 271.75,-509"/>
<text text-anchor="middle" x="221" y="-487.12" font-family="Times New Roman,serif" font-size="10.00">resources_loader.cpp</text>
</g>
<!-- resources_loader.cpp&#45;&gt;logger.hpp -->
<g id="edge58" class="edge">
<title>resources_loader.cpp&#45;&gt;logger.hpp</title>
<path fill="none" stroke="#eeeeee" d="M239.68,-472.63C265.83,-445.7 316.63,-394.23 362.25,-353 369.43,-346.51 377.35,-339.74 384.86,-333.48"/>
<polygon fill="#eeeeee" stroke="#eeeeee" points="386.78,-336.43 392.27,-327.37 382.33,-331.03 386.78,-336.43"/>
</g>
<!-- resources_loader.cpp&#45;&gt;resources_loader.hpp -->
<g id="edge57" class="edge">
<title>resources_loader.cpp&#45;&gt;resources_loader.hpp</title>
<path fill="none" stroke="#eeeeee" d="M236.34,-472.5C247.59,-457.74 263.43,-436.4 276.25,-417 317.56,-354.49 310.62,-326.3 362.25,-272 365.95,-268.11 370.14,-264.42 374.52,-261"/>
<polygon fill="#eeeeee" stroke="#eeeeee" points="376.41,-263.95 382.44,-255.25 372.29,-258.29 376.41,-263.95"/>
</g>
<!-- resources_loader.cpp&#45;&gt;format -->
<g id="edge55" class="edge">
<title>resources_loader.cpp&#45;&gt;format</title>
<path fill="none" stroke="#eeeeee" d="M230.58,-509.34C249.82,-549.08 299.67,-644.66 362.25,-708 367.69,-713.51 374.11,-718.65 380.59,-723.22"/>
<polygon fill="#eeeeee" stroke="#eeeeee" points="378.5,-726.03 388.76,-728.66 382.37,-720.21 378.5,-726.03"/>
</g>
<!-- resources_loader.cpp&#45;&gt;fstream -->
<g id="edge61" class="edge">
<title>resources_loader.cpp&#45;&gt;fstream</title>
<path fill="none" stroke="#eeeeee" d="M272.06,-495.5C355.65,-503.01 521.78,-517.95 596.13,-524.63"/>
<polygon fill="#eeeeee" stroke="#eeeeee" points="595.47,-528.08 605.74,-525.49 596.09,-521.11 595.47,-528.08"/>
</g>
<!-- resources_loader.cpp&#45;&gt;iostream -->
<g id="edge60" class="edge">
<title>resources_loader.cpp&#45;&gt;iostream</title>
<path fill="none" stroke="#eeeeee" d="M245.56,-472.55C291.76,-438.78 396.38,-374.35 472.75,-418 538.13,-455.37 503.31,-513.04 558.75,-564 569.62,-573.99 583.76,-581.75 596.83,-587.46"/>
<polygon fill="#eeeeee" stroke="#eeeeee" points="595.47,-590.68 606.05,-591.21 598.11,-584.2 595.47,-590.68"/>
</g>
<!-- resources_loader.cpp&#45;&gt;image.hpp -->
<g id="edge59" class="edge">
<title>resources_loader.cpp&#45;&gt;image.hpp</title>
<path fill="none" stroke="#eeeeee" d="M222.56,-509.14C225.58,-579.26 244.57,-836.81 362.25,-1000 396.82,-1047.94 425.22,-1038.86 472.75,-1074 512.38,-1103.3 515.28,-1120.78 558.75,-1144 698.53,-1218.66 771.14,-1297.31 907.75,-1217 918.64,-1210.6 999.48,-1057.75 1033.25,-993.27"/>
<polygon fill="#eeeeee" stroke="#eeeeee" points="1036.2,-995.19 1037.73,-984.71 1029.99,-991.95 1036.2,-995.19"/>
</g>
<!-- document.h -->
<g id="node40" class="node">
<title>document.h</title>
<polygon fill="#76abae" stroke="black" points="449.5,-472 385.5,-472 385.5,-436 449.5,-436 449.5,-472"/>
<text text-anchor="middle" x="417.5" y="-450.12" font-family="Times New Roman,serif" font-size="10.00">document.h</text>
</g>
<!-- resources_loader.cpp&#45;&gt;document.h -->
<g id="edge54" class="edge">
<title>resources_loader.cpp&#45;&gt;document.h</title>
<path fill="none" stroke="#eeeeee" d="M272.09,-481.47C303.73,-475.45 344.15,-467.76 374.18,-462.05"/>
<polygon fill="#eeeeee" stroke="#eeeeee" points="374.48,-465.56 383.65,-460.25 373.18,-458.68 374.48,-465.56"/>
</g>
<!-- sstream -->
<g id="node41" class="node">
<title>sstream</title>
<polygon fill="#76abae" stroke="black" points="444.5,-618 390.5,-618 390.5,-582 444.5,-582 444.5,-618"/>
<text text-anchor="middle" x="417.5" y="-596.12" font-family="Times New Roman,serif" font-size="10.00">sstream</text>
</g>
<!-- resources_loader.cpp&#45;&gt;sstream -->
<g id="edge56" class="edge">
<title>resources_loader.cpp&#45;&gt;sstream</title>
<path fill="none" stroke="#eeeeee" d="M254.99,-509.49C289.87,-529.03 344.69,-559.76 380.62,-579.89"/>
<polygon fill="#eeeeee" stroke="#eeeeee" points="378.46,-582.7 388.9,-584.53 381.89,-576.59 378.46,-582.7"/>
</g>
<!-- resource_container.cpp -->
<g id="node44" class="node">
<title>resource_container.cpp</title>
<polygon fill="#76abae" stroke="black" points="276.25,-399 165.75,-399 165.75,-363 276.25,-363 276.25,-399"/>
<text text-anchor="middle" x="221" y="-377.12" font-family="Times New Roman,serif" font-size="10.00">resource_container.cpp</text>
</g>
<!-- resource_container.cpp&#45;&gt;logger.hpp -->
<g id="edge65" class="edge">
<title>resource_container.cpp&#45;&gt;logger.hpp</title>
<path fill="none" stroke="#eeeeee" d="M271.08,-362.58C303.65,-350.35 345.88,-334.51 376.42,-323.04"/>
<polygon fill="#eeeeee" stroke="#eeeeee" points="377.56,-326.35 385.69,-319.56 375.1,-319.8 377.56,-326.35"/>
</g>
<!-- resource_container.cpp&#45;&gt;resource_container.hpp -->
<g id="edge66" class="edge">
<title>resource_container.cpp&#45;&gt;resource_container.hpp</title>
<path fill="none" stroke="#eeeeee" d="M229.45,-362.67C246.33,-323.97 291.57,-234.65 362.25,-200 424.91,-169.28 663.59,-194.51 710.5,-224 785.49,-271.15 826.46,-374.29 842.72,-424.87"/>
<polygon fill="#eeeeee" stroke="#eeeeee" points="839.32,-425.72 845.63,-434.23 846.01,-423.64 839.32,-425.72"/>
</g>
<!-- resource_container.cpp&#45;&gt;format -->
<g id="edge67" class="edge">
<title>resource_container.cpp&#45;&gt;format</title>
<path fill="none" stroke="#eeeeee" d="M237.98,-399.42C249.81,-413.78 265.65,-434.65 276.25,-455 331.11,-560.33 289.78,-613.91 362.25,-708 367.32,-714.59 373.96,-720.36 380.84,-725.25"/>
<polygon fill="#eeeeee" stroke="#eeeeee" points="378.69,-728.02 388.99,-730.53 382.5,-722.15 378.69,-728.02"/>
</g>
<!-- cpp_lua_functions.cpp -->
<g id="node45" class="node">
<title>cpp_lua_functions.cpp</title>
<polygon fill="#76abae" stroke="black" points="275.88,-1418 166.12,-1418 166.12,-1382 275.88,-1382 275.88,-1418"/>
<text text-anchor="middle" x="221" y="-1396.12" font-family="Times New Roman,serif" font-size="10.00">cpp_lua_functions.cpp</text>
</g>
<!-- cpp_lua_functions.cpp&#45;&gt;program_time.hpp -->
<g id="edge71" class="edge">
<title>cpp_lua_functions.cpp&#45;&gt;program_time.hpp</title>
<path fill="none" stroke="#eeeeee" d="M238.25,-1418.38C272.57,-1457.2 352.59,-1547.71 392.7,-1593.08"/>
<polygon fill="#eeeeee" stroke="#eeeeee" points="389.91,-1595.21 399.16,-1600.38 395.16,-1590.57 389.91,-1595.21"/>
</g>
<!-- cpp_lua_functions.cpp&#45;&gt;components.hpp -->
<g id="edge69" class="edge">
<title>cpp_lua_functions.cpp&#45;&gt;components.hpp</title>
<path fill="none" stroke="#eeeeee" d="M246.63,-1381.51C281.27,-1355.51 344.46,-1308.08 383.24,-1278.97"/>
<polygon fill="#eeeeee" stroke="#eeeeee" points="384.96,-1282.05 390.86,-1273.25 380.76,-1276.45 384.96,-1282.05"/>
</g>
<!-- cpp_lua_functions.cpp&#45;&gt;cpp_lua_functions.hpp -->
<g id="edge70" class="edge">
<title>cpp_lua_functions.cpp&#45;&gt;cpp_lua_functions.hpp</title>
<path fill="none" stroke="#eeeeee" d="M233.24,-1381.62C255.08,-1346.88 306.07,-1270.35 362.25,-1218 366.43,-1214.1 371.08,-1210.34 375.85,-1206.81"/>
<polygon fill="#eeeeee" stroke="#eeeeee" points="377.65,-1209.82 383.83,-1201.21 373.63,-1204.09 377.65,-1209.82"/>
</g>
<!-- cpp_lua_functions.cpp&#45;&gt;LuaBridge.h -->
<g id="edge72" class="edge">
<title>cpp_lua_functions.cpp&#45;&gt;LuaBridge.h</title>
<path fill="none" stroke="#eeeeee" d="M276.18,-1400C306.51,-1400 343.84,-1400 372.37,-1400"/>
<polygon fill="#eeeeee" stroke="#eeeeee" points="372.11,-1403.5 382.11,-1400 372.11,-1396.5 372.11,-1403.5"/>
</g>
<!-- cpp_lua_functions.cpp&#45;&gt;lua.hpp -->
<g id="edge68" class="edge">
<title>cpp_lua_functions.cpp&#45;&gt;lua.hpp</title>
<path fill="none" stroke="#eeeeee" d="M276.33,-1417.34C302.08,-1424.68 333.44,-1432.36 362.25,-1436 518.97,-1455.79 580.51,-1454.74 710.5,-1365 769.88,-1324.01 815.11,-1250.06 836.85,-1209.51"/>
<polygon fill="#eeeeee" stroke="#eeeeee" points="839.86,-1211.31 841.41,-1200.83 833.66,-1208.06 839.86,-1211.31"/>
</g>
</g>
</svg>
