<?xml version="1.0" encoding="UTF-8" standalone="no"?>
<!DOCTYPE svg PUBLIC "-//W3C//DTD SVG 1.1//EN"
 "http://www.w3.org/Graphics/SVG/1.1/DTD/svg11.dtd">
<!-- Generated by graphviz version 12.2.1 (20241206.2353)
 -->
<!-- Title: IncludeHierarchy Pages: 1 -->
<svg width="1441pt" height="1993pt"
 viewBox="0.00 0.00 1441.25 1993.00" xmlns="http://www.w3.org/2000/svg" xmlns:xlink="http://www.w3.org/1999/xlink">
<g id="graph0" class="graph" transform="scale(1 1) rotate(0) translate(4 1989)">
<title>IncludeHierarchy</title>
<polygon fill="#222831" stroke="none" points="-4,4 -4,-1989 1437.25,-1989 1437.25,4 -4,4"/>
<!-- program_time.cpp -->
<g id="node1" class="node">
<title>program_time.cpp</title>
<polygon fill="#76abae" stroke="black" points="266.12,-1930 175.88,-1930 175.88,-1894 266.12,-1894 266.12,-1930"/>
<text text-anchor="middle" x="221" y="-1908.12" font-family="Times New Roman,serif" font-size="10.00">program_time.cpp</text>
</g>
<!-- program_time.hpp -->
<g id="node2" class="node">
<title>program_time.hpp</title>
<polygon fill="#76abae" stroke="black" points="463,-1930 372,-1930 372,-1894 463,-1894 463,-1930"/>
<text text-anchor="middle" x="417.5" y="-1908.12" font-family="Times New Roman,serif" font-size="10.00">program_time.hpp</text>
</g>
<!-- program_time.cpp&#45;&gt;program_time.hpp -->
<g id="edge1" class="edge">
<title>program_time.cpp&#45;&gt;program_time.hpp</title>
<path fill="none" stroke="#eeeeee" d="M266.62,-1912C294.44,-1912 330.49,-1912 360.26,-1912"/>
<polygon fill="#eeeeee" stroke="#eeeeee" points="360.24,-1915.5 370.24,-1912 360.24,-1908.5 360.24,-1915.5"/>
</g>
<!-- SDL.h -->
<g id="node3" class="node">
<title>SDL.h</title>
<polygon fill="#76abae" stroke="black" points="1433.25,-1493 1379.25,-1493 1379.25,-1457 1433.25,-1457 1433.25,-1493"/>
<text text-anchor="middle" x="1406.25" y="-1471.12" font-family="Times New Roman,serif" font-size="10.00">SDL.h</text>
</g>
<!-- program_time.cpp&#45;&gt;SDL.h -->
<g id="edge2" class="edge">
<title>program_time.cpp&#45;&gt;SDL.h</title>
<path fill="none" stroke="#eeeeee" d="M266.34,-1925.05C341.71,-1946.05 499.95,-1985 636.62,-1985 636.62,-1985 636.62,-1985 1042.12,-1985 1279.68,-1985 1376.29,-1613.28 1399.46,-1504.54"/>
<polygon fill="#eeeeee" stroke="#eeeeee" points="1402.85,-1505.44 1401.46,-1494.93 1396,-1504.01 1402.85,-1505.44"/>
</g>
<!-- application.cpp -->
<g id="node4" class="node">
<title>application.cpp</title>
<polygon fill="#76abae" stroke="black" points="79.75,-1402 0,-1402 0,-1366 79.75,-1366 79.75,-1402"/>
<text text-anchor="middle" x="39.88" y="-1380.12" font-family="Times New Roman,serif" font-size="10.00">application.cpp</text>
</g>
<!-- application.cpp&#45;&gt;program_time.hpp -->
<g id="edge3" class="edge">
<title>application.cpp&#45;&gt;program_time.hpp</title>
<path fill="none" stroke="#eeeeee" d="M41.13,-1402.45C42.99,-1466.11 57.41,-1679.42 165.75,-1802 216.81,-1859.77 303.82,-1888.49 360.73,-1901.78"/>
<polygon fill="#eeeeee" stroke="#eeeeee" points="359.69,-1905.14 370.22,-1903.91 361.22,-1898.31 359.69,-1905.14"/>
</g>
<!-- logger.hpp -->
<g id="node5" class="node">
<title>logger.hpp</title>
<polygon fill="#76abae" stroke="black" points="447.62,-908 387.38,-908 387.38,-872 447.62,-872 447.62,-908"/>
<text text-anchor="middle" x="417.5" y="-886.12" font-family="Times New Roman,serif" font-size="10.00">logger.hpp</text>
</g>
<!-- application.cpp&#45;&gt;logger.hpp -->
<g id="edge4" class="edge">
<title>application.cpp&#45;&gt;logger.hpp</title>
<path fill="none" stroke="#eeeeee" d="M46.32,-1365.77C60.59,-1319.91 102.44,-1197.34 165.75,-1112 228.04,-1028.04 326.53,-952.5 379.64,-914.98"/>
<polygon fill="#eeeeee" stroke="#eeeeee" points="381.58,-917.89 387.77,-909.29 377.57,-912.15 381.58,-917.89"/>
</g>
<!-- application.hpp -->
<g id="node6" class="node">
<title>application.hpp</title>
<polygon fill="#76abae" stroke="black" points="261.25,-1166 180.75,-1166 180.75,-1130 261.25,-1130 261.25,-1166"/>
<text text-anchor="middle" x="221" y="-1144.12" font-family="Times New Roman,serif" font-size="10.00">application.hpp</text>
</g>
<!-- application.cpp&#45;&gt;application.hpp -->
<g id="edge5" class="edge">
<title>application.cpp&#45;&gt;application.hpp</title>
<path fill="none" stroke="#eeeeee" d="M54.63,-1365.87C85.89,-1324.69 162.4,-1223.89 199.36,-1175.2"/>
<polygon fill="#eeeeee" stroke="#eeeeee" points="202.02,-1177.48 205.28,-1167.39 196.45,-1173.24 202.02,-1177.48"/>
</g>
<!-- script.hpp -->
<g id="node7" class="node">
<title>script.hpp</title>
<polygon fill="#76abae" stroke="black" points="665.88,-1564 609.38,-1564 609.38,-1528 665.88,-1528 665.88,-1564"/>
<text text-anchor="middle" x="637.62" y="-1542.12" font-family="Times New Roman,serif" font-size="10.00">script.hpp</text>
</g>
<!-- application.cpp&#45;&gt;script.hpp -->
<g id="edge6" class="edge">
<title>application.cpp&#45;&gt;script.hpp</title>
<path fill="none" stroke="#eeeeee" d="M79.99,-1401.94C104.48,-1412.99 136.77,-1427.25 165.75,-1439 252.09,-1474.01 271.74,-1489.9 362.25,-1512 444.62,-1532.11 543.95,-1540.66 597.62,-1544.02"/>
<polygon fill="#eeeeee" stroke="#eeeeee" points="597.28,-1547.51 607.47,-1544.61 597.7,-1540.52 597.28,-1547.51"/>
</g>
<!-- string -->
<g id="node21" class="node">
<title>string</title>
<polygon fill="#76abae" stroke="black" points="1433.25,-1275 1379.25,-1275 1379.25,-1239 1433.25,-1239 1433.25,-1275"/>
<text text-anchor="middle" x="1406.25" y="-1253.12" font-family="Times New Roman,serif" font-size="10.00">string</text>
</g>
<!-- logger.hpp&#45;&gt;string -->
<g id="edge42" class="edge">
<title>logger.hpp&#45;&gt;string</title>
<path fill="none" stroke="#eeeeee" d="M448.08,-881.26C476.3,-873.19 520.11,-861.38 558.75,-854 686.92,-829.51 719.52,-817 850,-817 850,-817 850,-817 1042.12,-817 1164.88,-817 1210.78,-841.07 1293.25,-932 1372.37,-1019.24 1396.06,-1165.11 1402.77,-1227.37"/>
<polygon fill="#eeeeee" stroke="#eeeeee" points="1399.27,-1227.56 1403.74,-1237.16 1406.23,-1226.86 1399.27,-1227.56"/>
</g>
<!-- fstream -->
<g id="node33" class="node">
<title>fstream</title>
<polygon fill="#76abae" stroke="black" points="664.62,-582 610.62,-582 610.62,-546 664.62,-546 664.62,-582"/>
<text text-anchor="middle" x="637.62" y="-560.12" font-family="Times New Roman,serif" font-size="10.00">fstream</text>
</g>
<!-- logger.hpp&#45;&gt;fstream -->
<g id="edge40" class="edge">
<title>logger.hpp&#45;&gt;fstream</title>
<path fill="none" stroke="#eeeeee" d="M448.04,-873.98C456.66,-868.4 465.66,-861.61 472.75,-854 482.87,-843.13 582.3,-662.92 621.16,-592.18"/>
<polygon fill="#eeeeee" stroke="#eeeeee" points="624.18,-593.97 625.92,-583.52 618.04,-590.6 624.18,-593.97"/>
</g>
<!-- iostream -->
<g id="node34" class="node">
<title>iostream</title>
<polygon fill="#76abae" stroke="black" points="664.62,-908 610.62,-908 610.62,-872 664.62,-872 664.62,-908"/>
<text text-anchor="middle" x="637.62" y="-886.12" font-family="Times New Roman,serif" font-size="10.00">iostream</text>
</g>
<!-- logger.hpp&#45;&gt;iostream -->
<g id="edge41" class="edge">
<title>logger.hpp&#45;&gt;iostream</title>
<path fill="none" stroke="#eeeeee" d="M447.92,-890C487.03,-890 556.2,-890 599.05,-890"/>
<polygon fill="#eeeeee" stroke="#eeeeee" points="598.88,-893.5 608.88,-890 598.88,-886.5 598.88,-893.5"/>
</g>
<!-- renderer.hpp -->
<g id="node8" class="node">
<title>renderer.hpp</title>
<polygon fill="#76abae" stroke="black" points="671.12,-1274 604.12,-1274 604.12,-1238 671.12,-1238 671.12,-1274"/>
<text text-anchor="middle" x="637.62" y="-1252.12" font-family="Times New Roman,serif" font-size="10.00">renderer.hpp</text>
</g>
<!-- application.hpp&#45;&gt;renderer.hpp -->
<g id="edge7" class="edge">
<title>application.hpp&#45;&gt;renderer.hpp</title>
<path fill="none" stroke="#eeeeee" d="M261.38,-1158.26C339.09,-1178.5 511.64,-1223.45 592.81,-1244.59"/>
<polygon fill="#eeeeee" stroke="#eeeeee" points="591.62,-1247.89 602.18,-1247.03 593.38,-1241.12 591.62,-1247.89"/>
</g>
<!-- resources_loader.hpp -->
<g id="node9" class="node">
<title>resources_loader.hpp</title>
<polygon fill="#76abae" stroke="black" points="468.62,-764 366.38,-764 366.38,-728 468.62,-728 468.62,-764"/>
<text text-anchor="middle" x="417.5" y="-742.12" font-family="Times New Roman,serif" font-size="10.00">resources_loader.hpp</text>
</g>
<!-- application.hpp&#45;&gt;resources_loader.hpp -->
<g id="edge8" class="edge">
<title>application.hpp&#45;&gt;resources_loader.hpp</title>
<path fill="none" stroke="#eeeeee" d="M224.94,-1129.66C234.89,-1072.54 271.84,-894.85 362.25,-782 365.36,-778.12 368.99,-774.52 372.89,-771.2"/>
<polygon fill="#eeeeee" stroke="#eeeeee" points="374.72,-774.21 380.52,-765.34 370.46,-768.66 374.72,-774.21"/>
</g>
<!-- input_manager.hpp -->
<g id="node10" class="node">
<title>input_manager.hpp</title>
<polygon fill="#76abae" stroke="black" points="1088.88,-1420 993.38,-1420 993.38,-1384 1088.88,-1384 1088.88,-1420"/>
<text text-anchor="middle" x="1041.12" y="-1398.12" font-family="Times New Roman,serif" font-size="10.00">input_manager.hpp</text>
</g>
<!-- application.hpp&#45;&gt;input_manager.hpp -->
<g id="edge9" class="edge">
<title>application.hpp&#45;&gt;input_manager.hpp</title>
<path fill="none" stroke="#eeeeee" d="M257.36,-1129.58C364.43,-1076.62 690.57,-936.25 899.5,-1074 1003.47,-1142.54 1030.86,-1305.64 1037.84,-1372.57"/>
<polygon fill="#eeeeee" stroke="#eeeeee" points="1034.34,-1372.77 1038.77,-1382.39 1041.31,-1372.11 1034.34,-1372.77"/>
</g>
<!-- scripts_manager.hpp -->
<g id="node11" class="node">
<title>scripts_manager.hpp</title>
<polygon fill="#76abae" stroke="black" points="467.5,-1348 367.5,-1348 367.5,-1312 467.5,-1312 467.5,-1348"/>
<text text-anchor="middle" x="417.5" y="-1326.12" font-family="Times New Roman,serif" font-size="10.00">scripts_manager.hpp</text>
</g>
<!-- application.hpp&#45;&gt;scripts_manager.hpp -->
<g id="edge10" class="edge">
<title>application.hpp&#45;&gt;scripts_manager.hpp</title>
<path fill="none" stroke="#eeeeee" d="M237.26,-1166.31C261.87,-1195.26 312.61,-1252.55 362.25,-1294 366.86,-1297.85 371.89,-1301.65 376.97,-1305.26"/>
<polygon fill="#eeeeee" stroke="#eeeeee" points="374.62,-1307.89 384.84,-1310.66 378.58,-1302.11 374.62,-1307.89"/>
</g>
<!-- audio_manager.hpp -->
<g id="node12" class="node">
<title>audio_manager.hpp</title>
<polygon fill="#76abae" stroke="black" points="899.5,-1128 802.5,-1128 802.5,-1092 899.5,-1092 899.5,-1128"/>
<text text-anchor="middle" x="851" y="-1106.12" font-family="Times New Roman,serif" font-size="10.00">audio_manager.hpp</text>
</g>
<!-- application.hpp&#45;&gt;audio_manager.hpp -->
<g id="edge11" class="edge">
<title>application.hpp&#45;&gt;audio_manager.hpp</title>
<path fill="none" stroke="#eeeeee" d="M261.28,-1145.62C368.05,-1139.16 664,-1121.25 790.94,-1113.57"/>
<polygon fill="#eeeeee" stroke="#eeeeee" points="791.04,-1117.07 800.81,-1112.98 790.62,-1110.09 791.04,-1117.07"/>
</g>
<!-- script.hpp&#45;&gt;string -->
<g id="edge23" class="edge">
<title>script.hpp&#45;&gt;string</title>
<path fill="none" stroke="#eeeeee" d="M666.36,-1547.25C762.31,-1550.22 1085.54,-1548.71 1293.25,-1408 1339.66,-1376.56 1374.2,-1319.35 1391.92,-1285.09"/>
<polygon fill="#eeeeee" stroke="#eeeeee" points="1394.82,-1287.11 1396.19,-1276.6 1388.57,-1283.96 1394.82,-1287.11"/>
</g>
<!-- entt.hpp -->
<g id="node14" class="node">
<title>entt.hpp</title>
<polygon fill="#76abae" stroke="black" points="878,-1274 824,-1274 824,-1238 878,-1238 878,-1274"/>
<text text-anchor="middle" x="851" y="-1252.12" font-family="Times New Roman,serif" font-size="10.00">entt.hpp</text>
</g>
<!-- renderer.hpp&#45;&gt;entt.hpp -->
<g id="edge57" class="edge">
<title>renderer.hpp&#45;&gt;entt.hpp</title>
<path fill="none" stroke="#eeeeee" d="M671.19,-1256C709.26,-1256 772.17,-1256 812.32,-1256"/>
<polygon fill="#eeeeee" stroke="#eeeeee" points="812.23,-1259.5 822.23,-1256 812.23,-1252.5 812.23,-1259.5"/>
</g>
<!-- resource_container.hpp -->
<g id="node15" class="node">
<title>resource_container.hpp</title>
<polygon fill="#76abae" stroke="black" points="1096.75,-1130 985.5,-1130 985.5,-1094 1096.75,-1094 1096.75,-1130"/>
<text text-anchor="middle" x="1041.12" y="-1108.12" font-family="Times New Roman,serif" font-size="10.00">resource_container.hpp</text>
</g>
<!-- renderer.hpp&#45;&gt;resource_container.hpp -->
<g id="edge58" class="edge">
<title>renderer.hpp&#45;&gt;resource_container.hpp</title>
<path fill="none" stroke="#eeeeee" d="M671.48,-1244.22C738.47,-1220.19 891.79,-1165.2 978.12,-1134.24"/>
<polygon fill="#eeeeee" stroke="#eeeeee" points="979.16,-1137.58 987.39,-1130.91 976.79,-1131 979.16,-1137.58"/>
</g>
<!-- camera.hpp -->
<g id="node19" class="node">
<title>camera.hpp</title>
<polygon fill="#76abae" stroke="black" points="882.25,-1640 819.75,-1640 819.75,-1604 882.25,-1604 882.25,-1640"/>
<text text-anchor="middle" x="851" y="-1618.12" font-family="Times New Roman,serif" font-size="10.00">camera.hpp</text>
</g>
<!-- renderer.hpp&#45;&gt;camera.hpp -->
<g id="edge59" class="edge">
<title>renderer.hpp&#45;&gt;camera.hpp</title>
<path fill="none" stroke="#eeeeee" d="M671.61,-1265.86C686.96,-1271.87 704.45,-1280.97 716.5,-1294 787.21,-1370.47 762.74,-1415.73 802.5,-1512 813.98,-1539.8 827.64,-1571.28 837.36,-1593.42"/>
<polygon fill="#eeeeee" stroke="#eeeeee" points="834.08,-1594.65 841.31,-1602.39 840.49,-1591.83 834.08,-1594.65"/>
</g>
<!-- resources_loader.hpp&#45;&gt;resource_container.hpp -->
<g id="edge73" class="edge">
<title>resources_loader.hpp&#45;&gt;resource_container.hpp</title>
<path fill="none" stroke="#eeeeee" d="M458.32,-727.64C517.63,-703.13 631.34,-667.27 716.5,-708 884.95,-788.57 993.15,-1004.49 1027.93,-1082.98"/>
<polygon fill="#eeeeee" stroke="#eeeeee" points="1024.72,-1084.37 1031.93,-1092.14 1031.14,-1081.57 1024.72,-1084.37"/>
</g>
<!-- startup_options.hpp -->
<g id="node48" class="node">
<title>startup_options.hpp</title>
<polygon fill="#76abae" stroke="black" points="686.5,-762 588.75,-762 588.75,-726 686.5,-726 686.5,-762"/>
<text text-anchor="middle" x="637.62" y="-740.12" font-family="Times New Roman,serif" font-size="10.00">startup_options.hpp</text>
</g>
<!-- resources_loader.hpp&#45;&gt;startup_options.hpp -->
<g id="edge72" class="edge">
<title>resources_loader.hpp&#45;&gt;startup_options.hpp</title>
<path fill="none" stroke="#eeeeee" d="M469.09,-745.54C501.43,-745.24 543.5,-744.85 577.4,-744.54"/>
<polygon fill="#eeeeee" stroke="#eeeeee" points="577.07,-748.05 587.04,-744.45 577.01,-741.05 577.07,-748.05"/>
</g>
<!-- input_manager.hpp&#45;&gt;SDL.h -->
<g id="edge36" class="edge">
<title>input_manager.hpp&#45;&gt;SDL.h</title>
<path fill="none" stroke="#eeeeee" d="M1089.22,-1411.47C1162.18,-1426.14 1301.03,-1454.05 1367.7,-1467.45"/>
<polygon fill="#eeeeee" stroke="#eeeeee" points="1366.92,-1470.86 1377.41,-1469.4 1368.3,-1464 1366.92,-1470.86"/>
</g>
<!-- input_manager.hpp&#45;&gt;string -->
<g id="edge35" class="edge">
<title>input_manager.hpp&#45;&gt;string</title>
<path fill="none" stroke="#eeeeee" d="M1089.05,-1403.17C1141.46,-1402.66 1227.54,-1396.26 1293.25,-1364 1331.14,-1345.4 1364.67,-1309.39 1384.94,-1284.31"/>
<polygon fill="#eeeeee" stroke="#eeeeee" points="1387.67,-1286.5 1391.11,-1276.48 1382.17,-1282.17 1387.67,-1286.5"/>
</g>
<!-- map -->
<g id="node29" class="node">
<title>map</title>
<polygon fill="#76abae" stroke="black" points="1265,-1346 1211,-1346 1211,-1310 1265,-1310 1265,-1346"/>
<text text-anchor="middle" x="1238" y="-1324.12" font-family="Times New Roman,serif" font-size="10.00">map</text>
</g>
<!-- input_manager.hpp&#45;&gt;map -->
<g id="edge34" class="edge">
<title>input_manager.hpp&#45;&gt;map</title>
<path fill="none" stroke="#eeeeee" d="M1089.3,-1384.09C1123.36,-1371.15 1168.7,-1353.94 1200.12,-1342.01"/>
<polygon fill="#eeeeee" stroke="#eeeeee" points="1201.09,-1345.38 1209.2,-1338.56 1198.6,-1338.84 1201.09,-1345.38"/>
</g>
<!-- scripts_execution_enviroment.hpp -->
<g id="node13" class="node">
<title>scripts_execution_enviroment.hpp</title>
<polygon fill="#76abae" stroke="black" points="716.5,-1348 558.75,-1348 558.75,-1312 716.5,-1312 716.5,-1348"/>
<text text-anchor="middle" x="637.62" y="-1326.12" font-family="Times New Roman,serif" font-size="10.00">scripts_execution_enviroment.hpp</text>
</g>
<!-- scripts_manager.hpp&#45;&gt;scripts_execution_enviroment.hpp -->
<g id="edge32" class="edge">
<title>scripts_manager.hpp&#45;&gt;scripts_execution_enviroment.hpp</title>
<path fill="none" stroke="#eeeeee" d="M468,-1330C491.42,-1330 520.14,-1330 547.19,-1330"/>
<polygon fill="#eeeeee" stroke="#eeeeee" points="547.15,-1333.5 557.15,-1330 547.15,-1326.5 547.15,-1333.5"/>
</g>
<!-- compiled_script.hpp -->
<g id="node28" class="node">
<title>compiled_script.hpp</title>
<polygon fill="#76abae" stroke="black" points="687.62,-1456 587.62,-1456 587.62,-1420 687.62,-1420 687.62,-1456"/>
<text text-anchor="middle" x="637.62" y="-1434.12" font-family="Times New Roman,serif" font-size="10.00">compiled_script.hpp</text>
</g>
<!-- scripts_manager.hpp&#45;&gt;compiled_script.hpp -->
<g id="edge33" class="edge">
<title>scripts_manager.hpp&#45;&gt;compiled_script.hpp</title>
<path fill="none" stroke="#eeeeee" d="M455.5,-1348.32C492.4,-1366.59 549.22,-1394.72 589.36,-1414.6"/>
<polygon fill="#eeeeee" stroke="#eeeeee" points="587.57,-1417.62 598.09,-1418.92 590.68,-1411.34 587.57,-1417.62"/>
</g>
<!-- audio_manager.hpp&#45;&gt;resource_container.hpp -->
<g id="edge18" class="edge">
<title>audio_manager.hpp&#45;&gt;resource_container.hpp</title>
<path fill="none" stroke="#eeeeee" d="M899.96,-1110.51C922.42,-1110.75 949.54,-1111.04 973.92,-1111.3"/>
<polygon fill="#eeeeee" stroke="#eeeeee" points="973.71,-1114.79 983.75,-1111.4 973.79,-1107.79 973.71,-1114.79"/>
</g>
<!-- SDL_mixer.h -->
<g id="node17" class="node">
<title>SDL_mixer.h</title>
<polygon fill="#76abae" stroke="black" points="1273.38,-986 1202.62,-986 1202.62,-950 1273.38,-950 1273.38,-986"/>
<text text-anchor="middle" x="1238" y="-964.12" font-family="Times New Roman,serif" font-size="10.00">SDL_mixer.h</text>
</g>
<!-- audio_manager.hpp&#45;&gt;SDL_mixer.h -->
<g id="edge17" class="edge">
<title>audio_manager.hpp&#45;&gt;SDL_mixer.h</title>
<path fill="none" stroke="#eeeeee" d="M899.98,-1092.3C974.85,-1064.69 1118.46,-1011.72 1191.67,-984.72"/>
<polygon fill="#eeeeee" stroke="#eeeeee" points="1192.78,-988.04 1200.95,-981.3 1190.36,-981.47 1192.78,-988.04"/>
</g>
<!-- scripts_execution_enviroment.hpp&#45;&gt;input_manager.hpp -->
<g id="edge14" class="edge">
<title>scripts_execution_enviroment.hpp&#45;&gt;input_manager.hpp</title>
<path fill="none" stroke="#eeeeee" d="M716.99,-1344.05C794.71,-1357.99 911.99,-1379.02 981.83,-1391.55"/>
<polygon fill="#eeeeee" stroke="#eeeeee" points="981.09,-1394.97 991.55,-1393.29 982.32,-1388.08 981.09,-1394.97"/>
</g>
<!-- scripts_execution_enviroment.hpp&#45;&gt;audio_manager.hpp -->
<g id="edge15" class="edge">
<title>scripts_execution_enviroment.hpp&#45;&gt;audio_manager.hpp</title>
<path fill="none" stroke="#eeeeee" d="M685.75,-1311.55C696.47,-1306.15 707.38,-1299.62 716.5,-1292 770.06,-1247.26 813.7,-1176.69 835.31,-1137.88"/>
<polygon fill="#eeeeee" stroke="#eeeeee" points="838.11,-1140.06 839.84,-1129.61 831.97,-1136.7 838.11,-1140.06"/>
</g>
<!-- scripts_execution_enviroment.hpp&#45;&gt;entt.hpp -->
<g id="edge12" class="edge">
<title>scripts_execution_enviroment.hpp&#45;&gt;entt.hpp</title>
<path fill="none" stroke="#eeeeee" d="M691.42,-1311.52C729.21,-1298.29 779.16,-1280.8 812.82,-1269.02"/>
<polygon fill="#eeeeee" stroke="#eeeeee" points="813.86,-1272.36 822.14,-1265.75 811.55,-1265.75 813.86,-1272.36"/>
</g>
<!-- scripts_execution_enviroment.hpp&#45;&gt;resource_container.hpp -->
<g id="edge13" class="edge">
<title>scripts_execution_enviroment.hpp&#45;&gt;resource_container.hpp</title>
<path fill="none" stroke="#eeeeee" d="M716.94,-1333.48C771.52,-1332.5 844.19,-1324.12 899.5,-1292 961.36,-1256.08 1005.86,-1181.41 1026.76,-1140.44"/>
<polygon fill="#eeeeee" stroke="#eeeeee" points="1029.8,-1142.18 1031.11,-1131.66 1023.53,-1139.06 1029.8,-1142.18"/>
</g>
<!-- resource_container.hpp&#45;&gt;SDL_mixer.h -->
<g id="edge50" class="edge">
<title>resource_container.hpp&#45;&gt;SDL_mixer.h</title>
<path fill="none" stroke="#eeeeee" d="M1065.14,-1093.54C1092.69,-1071.62 1140.42,-1034.24 1182.75,-1004 1188.05,-1000.21 1193.72,-996.3 1199.32,-992.52"/>
<polygon fill="#eeeeee" stroke="#eeeeee" points="1200.97,-995.63 1207.33,-987.16 1197.07,-989.81 1200.97,-995.63"/>
</g>
<!-- resource_container.hpp&#45;&gt;map -->
<g id="edge45" class="edge">
<title>resource_container.hpp&#45;&gt;map</title>
<path fill="none" stroke="#eeeeee" d="M1053.62,-1130.43C1075.71,-1164.89 1126.87,-1240.28 1182.75,-1292 1188.38,-1297.21 1194.84,-1302.19 1201.29,-1306.69"/>
<polygon fill="#eeeeee" stroke="#eeeeee" points="1199.11,-1309.45 1209.37,-1312.08 1202.99,-1303.62 1199.11,-1309.45"/>
</g>
<!-- uncompiled_script.hpp -->
<g id="node35" class="node">
<title>uncompiled_script.hpp</title>
<polygon fill="#76abae" stroke="black" points="1293.25,-1058 1182.75,-1058 1182.75,-1022 1293.25,-1022 1293.25,-1058"/>
<text text-anchor="middle" x="1238" y="-1036.12" font-family="Times New Roman,serif" font-size="10.00">uncompiled_script.hpp</text>
</g>
<!-- resource_container.hpp&#45;&gt;uncompiled_script.hpp -->
<g id="edge49" class="edge">
<title>resource_container.hpp&#45;&gt;uncompiled_script.hpp</title>
<path fill="none" stroke="#eeeeee" d="M1092.06,-1093.55C1117.84,-1084.03 1149.5,-1072.33 1176.65,-1062.3"/>
<polygon fill="#eeeeee" stroke="#eeeeee" points="1177.61,-1065.67 1185.78,-1058.92 1175.18,-1059.11 1177.61,-1065.67"/>
</g>
<!-- memory -->
<g id="node37" class="node">
<title>memory</title>
<polygon fill="#76abae" stroke="black" points="1265,-1274 1211,-1274 1211,-1238 1265,-1238 1265,-1274"/>
<text text-anchor="middle" x="1238" y="-1252.12" font-family="Times New Roman,serif" font-size="10.00">memory</text>
</g>
<!-- resource_container.hpp&#45;&gt;memory -->
<g id="edge46" class="edge">
<title>resource_container.hpp&#45;&gt;memory</title>
<path fill="none" stroke="#eeeeee" d="M1065.14,-1130.46C1092.69,-1152.38 1140.42,-1189.76 1182.75,-1220 1188.6,-1224.18 1194.9,-1228.51 1201.06,-1232.65"/>
<polygon fill="#eeeeee" stroke="#eeeeee" points="1199.01,-1235.5 1209.28,-1238.13 1202.89,-1229.67 1199.01,-1235.5"/>
</g>
<!-- queue -->
<g id="node38" class="node">
<title>queue</title>
<polygon fill="#76abae" stroke="black" points="1265,-1202 1211,-1202 1211,-1166 1265,-1166 1265,-1202"/>
<text text-anchor="middle" x="1238" y="-1180.12" font-family="Times New Roman,serif" font-size="10.00">queue</text>
</g>
<!-- resource_container.hpp&#45;&gt;queue -->
<g id="edge47" class="edge">
<title>resource_container.hpp&#45;&gt;queue</title>
<path fill="none" stroke="#eeeeee" d="M1092.06,-1130.45C1125.7,-1142.88 1169.36,-1159.01 1199.93,-1170.3"/>
<polygon fill="#eeeeee" stroke="#eeeeee" points="1198.54,-1173.52 1209.14,-1173.7 1200.97,-1166.96 1198.54,-1173.52"/>
</g>
<!-- image.hpp -->
<g id="node39" class="node">
<title>image.hpp</title>
<polygon fill="#76abae" stroke="black" points="1267.38,-1130 1208.62,-1130 1208.62,-1094 1267.38,-1094 1267.38,-1130"/>
<text text-anchor="middle" x="1238" y="-1108.12" font-family="Times New Roman,serif" font-size="10.00">image.hpp</text>
</g>
<!-- resource_container.hpp&#45;&gt;image.hpp -->
<g id="edge48" class="edge">
<title>resource_container.hpp&#45;&gt;image.hpp</title>
<path fill="none" stroke="#eeeeee" d="M1097.19,-1112C1128.94,-1112 1168.15,-1112 1196.96,-1112"/>
<polygon fill="#eeeeee" stroke="#eeeeee" points="1196.72,-1115.5 1206.72,-1112 1196.72,-1108.5 1196.72,-1115.5"/>
</g>
<!-- audio_manager.cpp -->
<g id="node16" class="node">
<title>audio_manager.cpp</title>
<polygon fill="#76abae" stroke="black" points="685.75,-1202 589.5,-1202 589.5,-1166 685.75,-1166 685.75,-1202"/>
<text text-anchor="middle" x="637.62" y="-1180.12" font-family="Times New Roman,serif" font-size="10.00">audio_manager.cpp</text>
</g>
<!-- audio_manager.cpp&#45;&gt;audio_manager.hpp -->
<g id="edge16" class="edge">
<title>audio_manager.cpp&#45;&gt;audio_manager.hpp</title>
<path fill="none" stroke="#eeeeee" d="M686.06,-1167.39C717.36,-1156.43 758.58,-1142 791.85,-1130.36"/>
<polygon fill="#eeeeee" stroke="#eeeeee" points="792.65,-1133.79 800.93,-1127.18 790.33,-1127.18 792.65,-1133.79"/>
</g>
<!-- components.hpp -->
<g id="node18" class="node">
<title>components.hpp</title>
<polygon fill="#76abae" stroke="black" points="459.25,-1784 375.75,-1784 375.75,-1748 459.25,-1748 459.25,-1784"/>
<text text-anchor="middle" x="417.5" y="-1762.12" font-family="Times New Roman,serif" font-size="10.00">components.hpp</text>
</g>
<!-- components.hpp&#45;&gt;script.hpp -->
<g id="edge21" class="edge">
<title>components.hpp&#45;&gt;script.hpp</title>
<path fill="none" stroke="#eeeeee" d="M451.37,-1747.68C458.93,-1742.57 466.55,-1736.58 472.75,-1730 524.92,-1674.63 502.5,-1633.23 558.75,-1582 570.05,-1571.71 584.79,-1563.89 598.41,-1558.21"/>
<polygon fill="#eeeeee" stroke="#eeeeee" points="599.53,-1561.53 607.59,-1554.65 597,-1555 599.53,-1561.53"/>
</g>
<!-- components.hpp&#45;&gt;camera.hpp -->
<g id="edge19" class="edge">
<title>components.hpp&#45;&gt;camera.hpp</title>
<path fill="none" stroke="#eeeeee" d="M459.48,-1752.32C541.74,-1724.87 726.13,-1663.34 808.68,-1635.79"/>
<polygon fill="#eeeeee" stroke="#eeeeee" points="809.58,-1639.18 817.96,-1632.69 807.36,-1632.54 809.58,-1639.18"/>
</g>
<!-- graphic.hpp -->
<g id="node20" class="node">
<title>graphic.hpp</title>
<polygon fill="#76abae" stroke="black" points="670,-1636 605.25,-1636 605.25,-1600 670,-1600 670,-1636"/>
<text text-anchor="middle" x="637.62" y="-1614.12" font-family="Times New Roman,serif" font-size="10.00">graphic.hpp</text>
</g>
<!-- components.hpp&#45;&gt;graphic.hpp -->
<g id="edge20" class="edge">
<title>components.hpp&#45;&gt;graphic.hpp</title>
<path fill="none" stroke="#eeeeee" d="M446.43,-1747.57C454.9,-1741.96 464.22,-1735.75 472.75,-1730 516.97,-1700.22 567.6,-1665.52 600.74,-1642.73"/>
<polygon fill="#eeeeee" stroke="#eeeeee" points="602.52,-1645.76 608.77,-1637.21 598.55,-1639.99 602.52,-1645.76"/>
</g>
<!-- graphic.hpp&#45;&gt;string -->
<g id="edge22" class="edge">
<title>graphic.hpp&#45;&gt;string</title>
<path fill="none" stroke="#eeeeee" d="M670.24,-1630.54C719.62,-1648.41 817.84,-1677.03 899.5,-1658 1089.5,-1613.73 1152.69,-1599.29 1293.25,-1464 1346.76,-1412.5 1380.74,-1329.78 1395.96,-1286.14"/>
<polygon fill="#eeeeee" stroke="#eeeeee" points="1399.21,-1287.45 1399.1,-1276.86 1392.58,-1285.2 1399.21,-1287.45"/>
</g>
<!-- scripts_manager.cpp -->
<g id="node22" class="node">
<title>scripts_manager.cpp</title>
<polygon fill="#76abae" stroke="black" points="270.62,-1421 171.38,-1421 171.38,-1385 270.62,-1385 270.62,-1421"/>
<text text-anchor="middle" x="221" y="-1399.12" font-family="Times New Roman,serif" font-size="10.00">scripts_manager.cpp</text>
</g>
<!-- scripts_manager.cpp&#45;&gt;logger.hpp -->
<g id="edge26" class="edge">
<title>scripts_manager.cpp&#45;&gt;logger.hpp</title>
<path fill="none" stroke="#eeeeee" d="M228.92,-1384.74C257.93,-1308.24 369.83,-1013.1 405.5,-919"/>
<polygon fill="#eeeeee" stroke="#eeeeee" points="408.75,-920.31 409.02,-909.72 402.2,-917.83 408.75,-920.31"/>
</g>
<!-- scripts_manager.cpp&#45;&gt;script.hpp -->
<g id="edge25" class="edge">
<title>scripts_manager.cpp&#45;&gt;script.hpp</title>
<path fill="none" stroke="#eeeeee" d="M270.66,-1404.09C322.33,-1406.63 405.63,-1414.71 472.75,-1440 523.54,-1459.14 574.93,-1495.83 606.29,-1520.61"/>
<polygon fill="#eeeeee" stroke="#eeeeee" points="603.8,-1523.1 613.79,-1526.63 608.18,-1517.64 603.8,-1523.1"/>
</g>
<!-- scripts_manager.cpp&#45;&gt;scripts_manager.hpp -->
<g id="edge24" class="edge">
<title>scripts_manager.cpp&#45;&gt;scripts_manager.hpp</title>
<path fill="none" stroke="#eeeeee" d="M271.08,-1384.58C297.11,-1374.81 329.3,-1362.73 356.77,-1352.42"/>
<polygon fill="#eeeeee" stroke="#eeeeee" points="357.89,-1355.74 366.02,-1348.95 355.43,-1349.18 357.89,-1355.74"/>
</g>
<!-- cpp_lua_functions.hpp -->
<g id="node23" class="node">
<title>cpp_lua_functions.hpp</title>
<polygon fill="#76abae" stroke="black" points="472.75,-1712 362.25,-1712 362.25,-1676 472.75,-1676 472.75,-1712"/>
<text text-anchor="middle" x="417.5" y="-1690.12" font-family="Times New Roman,serif" font-size="10.00">cpp_lua_functions.hpp</text>
</g>
<!-- scripts_manager.cpp&#45;&gt;cpp_lua_functions.hpp -->
<g id="edge27" class="edge">
<title>scripts_manager.cpp&#45;&gt;cpp_lua_functions.hpp</title>
<path fill="none" stroke="#eeeeee" d="M228.49,-1421.23C245.07,-1465.83 292.63,-1582.34 362.25,-1658 365.84,-1661.9 369.94,-1665.58 374.23,-1668.99"/>
<polygon fill="#eeeeee" stroke="#eeeeee" points="371.88,-1671.61 382.01,-1674.7 376.02,-1665.96 371.88,-1671.61"/>
</g>
<!-- format -->
<g id="node24" class="node">
<title>format</title>
<polygon fill="#76abae" stroke="black" points="444.5,-836 390.5,-836 390.5,-800 444.5,-800 444.5,-836"/>
<text text-anchor="middle" x="417.5" y="-814.12" font-family="Times New Roman,serif" font-size="10.00">format</text>
</g>
<!-- scripts_manager.cpp&#45;&gt;format -->
<g id="edge28" class="edge">
<title>scripts_manager.cpp&#45;&gt;format</title>
<path fill="none" stroke="#eeeeee" d="M226.6,-1384.63C250.35,-1289.78 358.2,-859.71 362.25,-854 367.11,-847.16 373.71,-841.26 380.64,-836.32"/>
<polygon fill="#eeeeee" stroke="#eeeeee" points="382.37,-839.38 388.88,-831.02 378.58,-833.49 382.37,-839.38"/>
</g>
<!-- unordered_map -->
<g id="node25" class="node">
<title>unordered_map</title>
<polygon fill="#76abae" stroke="black" points="457.38,-1494 377.62,-1494 377.62,-1458 457.38,-1458 457.38,-1494"/>
<text text-anchor="middle" x="417.5" y="-1472.12" font-family="Times New Roman,serif" font-size="10.00">unordered_map</text>
</g>
<!-- scripts_manager.cpp&#45;&gt;unordered_map -->
<g id="edge29" class="edge">
<title>scripts_manager.cpp&#45;&gt;unordered_map</title>
<path fill="none" stroke="#eeeeee" d="M271.08,-1421.42C300.35,-1432.41 337.4,-1446.31 366.78,-1457.34"/>
<polygon fill="#eeeeee" stroke="#eeeeee" points="365.22,-1460.49 375.81,-1460.73 367.68,-1453.94 365.22,-1460.49"/>
</g>
<!-- LuaBridge.h -->
<g id="node26" class="node">
<title>LuaBridge.h</title>
<polygon fill="#76abae" stroke="black" points="451,-1640 384,-1640 384,-1604 451,-1604 451,-1640"/>
<text text-anchor="middle" x="417.5" y="-1618.12" font-family="Times New Roman,serif" font-size="10.00">LuaBridge.h</text>
</g>
<!-- scripts_manager.cpp&#45;&gt;LuaBridge.h -->
<g id="edge30" class="edge">
<title>scripts_manager.cpp&#45;&gt;LuaBridge.h</title>
<path fill="none" stroke="#eeeeee" d="M238.25,-1421.3C272.57,-1459.94 352.59,-1550.04 392.7,-1595.2"/>
<polygon fill="#eeeeee" stroke="#eeeeee" points="389.9,-1597.32 399.16,-1602.47 395.13,-1592.67 389.9,-1597.32"/>
</g>
<!-- cpp_lua_functions.hpp&#45;&gt;scripts_execution_enviroment.hpp -->
<g id="edge82" class="edge">
<title>cpp_lua_functions.hpp&#45;&gt;scripts_execution_enviroment.hpp</title>
<path fill="none" stroke="#eeeeee" d="M453.77,-1675.55C460.8,-1670.6 467.59,-1664.73 472.75,-1658 545.82,-1562.78 493.54,-1502.77 558.75,-1402 570.21,-1384.3 587,-1368.02 602.06,-1355.44"/>
<polygon fill="#eeeeee" stroke="#eeeeee" points="603.92,-1358.44 609.49,-1349.43 599.52,-1353 603.92,-1358.44"/>
</g>
<!-- lua.hpp -->
<g id="node47" class="node">
<title>lua.hpp</title>
<polygon fill="#76abae" stroke="black" points="878,-1786 824,-1786 824,-1750 878,-1750 878,-1786"/>
<text text-anchor="middle" x="851" y="-1764.12" font-family="Times New Roman,serif" font-size="10.00">lua.hpp</text>
</g>
<!-- cpp_lua_functions.hpp&#45;&gt;lua.hpp -->
<g id="edge83" class="edge">
<title>cpp_lua_functions.hpp&#45;&gt;lua.hpp</title>
<path fill="none" stroke="#eeeeee" d="M473.15,-1703.37C562.24,-1718.65 736.46,-1748.53 812.74,-1761.61"/>
<polygon fill="#eeeeee" stroke="#eeeeee" points="811.75,-1764.99 822.19,-1763.23 812.93,-1758.09 811.75,-1764.99"/>
</g>
<!-- input_manager.cpp -->
<g id="node27" class="node">
<title>input_manager.cpp</title>
<polygon fill="#76abae" stroke="black" points="898.38,-1494 803.62,-1494 803.62,-1458 898.38,-1458 898.38,-1494"/>
<text text-anchor="middle" x="851" y="-1472.12" font-family="Times New Roman,serif" font-size="10.00">input_manager.cpp</text>
</g>
<!-- input_manager.cpp&#45;&gt;input_manager.hpp -->
<g id="edge31" class="edge">
<title>input_manager.cpp&#45;&gt;input_manager.hpp</title>
<path fill="none" stroke="#eeeeee" d="M898.5,-1457.71C923.96,-1447.7 955.72,-1435.2 982.71,-1424.59"/>
<polygon fill="#eeeeee" stroke="#eeeeee" points="983.74,-1427.94 991.77,-1421.02 981.18,-1421.42 983.74,-1427.94"/>
</g>
<!-- compiled_script.hpp&#45;&gt;lua.hpp -->
<g id="edge71" class="edge">
<title>compiled_script.hpp&#45;&gt;lua.hpp</title>
<path fill="none" stroke="#eeeeee" d="M662.48,-1456.32C679.05,-1469.88 700.88,-1489.49 716.5,-1510 746.58,-1549.48 809.31,-1680.75 836.72,-1739.34"/>
<polygon fill="#eeeeee" stroke="#eeeeee" points="833.52,-1740.76 840.92,-1748.34 839.86,-1737.8 833.52,-1740.76"/>
</g>
<!-- logger.cpp -->
<g id="node30" class="node">
<title>logger.cpp</title>
<polygon fill="#76abae" stroke="black" points="250.75,-692 191.25,-692 191.25,-656 250.75,-656 250.75,-692"/>
<text text-anchor="middle" x="221" y="-670.12" font-family="Times New Roman,serif" font-size="10.00">logger.cpp</text>
</g>
<!-- logger.cpp&#45;&gt;logger.hpp -->
<g id="edge38" class="edge">
<title>logger.cpp&#45;&gt;logger.hpp</title>
<path fill="none" stroke="#eeeeee" d="M233.45,-692.43C255.46,-726.9 306.46,-802.3 362.25,-854 367.03,-858.43 372.41,-862.69 377.87,-866.63"/>
<polygon fill="#eeeeee" stroke="#eeeeee" points="375.59,-869.31 385.82,-872.09 379.55,-863.54 375.59,-869.31"/>
</g>
<!-- ctime -->
<g id="node31" class="node">
<title>ctime</title>
<polygon fill="#76abae" stroke="black" points="444.5,-692 390.5,-692 390.5,-656 444.5,-656 444.5,-692"/>
<text text-anchor="middle" x="417.5" y="-670.12" font-family="Times New Roman,serif" font-size="10.00">ctime</text>
</g>
<!-- logger.cpp&#45;&gt;ctime -->
<g id="edge37" class="edge">
<title>logger.cpp&#45;&gt;ctime</title>
<path fill="none" stroke="#eeeeee" d="M251.12,-674C285.16,-674 341.59,-674 378.91,-674"/>
<polygon fill="#eeeeee" stroke="#eeeeee" points="378.79,-677.5 388.79,-674 378.79,-670.5 378.79,-677.5"/>
</g>
<!-- chrono -->
<g id="node32" class="node">
<title>chrono</title>
<polygon fill="#76abae" stroke="black" points="444.5,-620 390.5,-620 390.5,-584 444.5,-584 444.5,-620"/>
<text text-anchor="middle" x="417.5" y="-598.12" font-family="Times New Roman,serif" font-size="10.00">chrono</text>
</g>
<!-- logger.cpp&#45;&gt;chrono -->
<g id="edge39" class="edge">
<title>logger.cpp&#45;&gt;chrono</title>
<path fill="none" stroke="#eeeeee" d="M251.12,-663.22C285.46,-650.51 342.57,-629.37 379.88,-615.56"/>
<polygon fill="#eeeeee" stroke="#eeeeee" points="380.72,-618.98 388.88,-612.22 378.29,-612.41 380.72,-618.98"/>
</g>
<!-- uncompiled_script.hpp&#45;&gt;string -->
<g id="edge44" class="edge">
<title>uncompiled_script.hpp&#45;&gt;string</title>
<path fill="none" stroke="#eeeeee" d="M1271.75,-1058.44C1279.3,-1063.55 1286.96,-1069.51 1293.25,-1076 1338.3,-1122.5 1374.15,-1190.13 1392.29,-1228.19"/>
<polygon fill="#eeeeee" stroke="#eeeeee" points="1389.08,-1229.6 1396.49,-1237.18 1395.42,-1226.63 1389.08,-1229.6"/>
</g>
<!-- vector -->
<g id="node36" class="node">
<title>vector</title>
<polygon fill="#76abae" stroke="black" points="1433.25,-1058 1379.25,-1058 1379.25,-1022 1433.25,-1022 1433.25,-1058"/>
<text text-anchor="middle" x="1406.25" y="-1036.12" font-family="Times New Roman,serif" font-size="10.00">vector</text>
</g>
<!-- uncompiled_script.hpp&#45;&gt;vector -->
<g id="edge43" class="edge">
<title>uncompiled_script.hpp&#45;&gt;vector</title>
<path fill="none" stroke="#eeeeee" d="M1293.44,-1040C1317.73,-1040 1345.74,-1040 1367.65,-1040"/>
<polygon fill="#eeeeee" stroke="#eeeeee" points="1367.62,-1043.5 1377.62,-1040 1367.62,-1036.5 1367.62,-1043.5"/>
</g>
<!-- image.hpp&#45;&gt;SDL.h -->
<g id="edge52" class="edge">
<title>image.hpp&#45;&gt;SDL.h</title>
<path fill="none" stroke="#eeeeee" d="M1267.75,-1126.19C1276.94,-1131.9 1286.48,-1139.23 1293.25,-1148 1365.45,-1241.52 1392.84,-1384.59 1401.64,-1445.69"/>
<polygon fill="#eeeeee" stroke="#eeeeee" points="1398.13,-1445.85 1402.95,-1455.28 1405.06,-1444.9 1398.13,-1445.85"/>
</g>
<!-- image.hpp&#45;&gt;string -->
<g id="edge53" class="edge">
<title>image.hpp&#45;&gt;string</title>
<path fill="none" stroke="#eeeeee" d="M1267.86,-1129.72C1276.28,-1135.27 1285.33,-1141.61 1293.25,-1148 1325.27,-1173.83 1358.65,-1207.3 1380.55,-1230.3"/>
<polygon fill="#eeeeee" stroke="#eeeeee" points="1377.9,-1232.6 1387.31,-1237.46 1382.99,-1227.79 1377.9,-1232.6"/>
</g>
<!-- main.cpp -->
<g id="node40" class="node">
<title>main.cpp</title>
<polygon fill="#76abae" stroke="black" points="66.88,-1166 12.88,-1166 12.88,-1130 66.88,-1130 66.88,-1166"/>
<text text-anchor="middle" x="39.88" y="-1144.12" font-family="Times New Roman,serif" font-size="10.00">main.cpp</text>
</g>
<!-- main.cpp&#45;&gt;application.hpp -->
<g id="edge51" class="edge">
<title>main.cpp&#45;&gt;application.hpp</title>
<path fill="none" stroke="#eeeeee" d="M67.31,-1148C94.03,-1148 136.02,-1148 169.2,-1148"/>
<polygon fill="#eeeeee" stroke="#eeeeee" points="169.02,-1151.5 179.02,-1148 169.02,-1144.5 169.02,-1151.5"/>
</g>
<!-- renderer.cpp -->
<g id="node41" class="node">
<title>renderer.cpp</title>
<polygon fill="#76abae" stroke="black" points="450.62,-1276 384.38,-1276 384.38,-1240 450.62,-1240 450.62,-1276"/>
<text text-anchor="middle" x="417.5" y="-1254.12" font-family="Times New Roman,serif" font-size="10.00">renderer.cpp</text>
</g>
<!-- renderer.cpp&#45;&gt;renderer.hpp -->
<g id="edge54" class="edge">
<title>renderer.cpp&#45;&gt;renderer.hpp</title>
<path fill="none" stroke="#eeeeee" d="M450.69,-1257.7C488.27,-1257.36 550.65,-1256.79 592.67,-1256.4"/>
<polygon fill="#eeeeee" stroke="#eeeeee" points="592.47,-1259.91 602.44,-1256.31 592.41,-1252.91 592.47,-1259.91"/>
</g>
<!-- renderer.cpp&#45;&gt;graphic.hpp -->
<g id="edge55" class="edge">
<title>renderer.cpp&#45;&gt;graphic.hpp</title>
<path fill="none" stroke="#eeeeee" d="M451.12,-1274.39C459.13,-1279.72 467.03,-1286.28 472.75,-1294 552.26,-1401.34 471.27,-1481.04 558.75,-1582 568.12,-1592.82 581.43,-1600.59 594.4,-1606.07"/>
<polygon fill="#eeeeee" stroke="#eeeeee" points="593.12,-1609.33 603.71,-1609.62 595.61,-1602.79 593.12,-1609.33"/>
</g>
<!-- renderer.cpp&#45;&gt;iostream -->
<g id="edge56" class="edge">
<title>renderer.cpp&#45;&gt;iostream</title>
<path fill="none" stroke="#eeeeee" d="M429.32,-1239.75C464.71,-1180.04 577.25,-990.17 619.97,-918.11"/>
<polygon fill="#eeeeee" stroke="#eeeeee" points="622.88,-920.05 624.97,-909.66 616.86,-916.48 622.88,-920.05"/>
</g>
<!-- resources_loader.cpp -->
<g id="node42" class="node">
<title>resources_loader.cpp</title>
<polygon fill="#76abae" stroke="black" points="271.75,-402 170.25,-402 170.25,-366 271.75,-366 271.75,-402"/>
<text text-anchor="middle" x="221" y="-380.12" font-family="Times New Roman,serif" font-size="10.00">resources_loader.cpp</text>
</g>
<!-- resources_loader.cpp&#45;&gt;logger.hpp -->
<g id="edge64" class="edge">
<title>resources_loader.cpp&#45;&gt;logger.hpp</title>
<path fill="none" stroke="#eeeeee" d="M225.73,-402.39C241.69,-479.71 305.93,-777.96 362.25,-854 366.49,-859.72 371.93,-864.81 377.72,-869.23"/>
<polygon fill="#eeeeee" stroke="#eeeeee" points="375.52,-871.96 385.74,-874.75 379.49,-866.2 375.52,-871.96"/>
</g>
<!-- resources_loader.cpp&#45;&gt;resources_loader.hpp -->
<g id="edge61" class="edge">
<title>resources_loader.cpp&#45;&gt;resources_loader.hpp</title>
<path fill="none" stroke="#eeeeee" d="M225.93,-402.17C238.08,-454.94 279.33,-610.67 362.25,-710 365.47,-713.86 369.22,-717.47 373.2,-720.8"/>
<polygon fill="#eeeeee" stroke="#eeeeee" points="370.91,-723.45 381,-726.7 375.14,-717.87 370.91,-723.45"/>
</g>
<!-- resources_loader.cpp&#45;&gt;SDL_mixer.h -->
<g id="edge70" class="edge">
<title>resources_loader.cpp&#45;&gt;SDL_mixer.h</title>
<path fill="none" stroke="#eeeeee" d="M238.46,-365.73C263.07,-339.35 312,-290.55 362.25,-261 473.88,-195.37 507.14,-163 636.62,-163 636.62,-163 636.62,-163 852,-163 1202.74,-163 1234.22,-792.61 1236.82,-938.2"/>
<polygon fill="#eeeeee" stroke="#eeeeee" points="1233.32,-938.21 1236.96,-948.16 1240.31,-938.11 1233.32,-938.21"/>
</g>
<!-- resources_loader.cpp&#45;&gt;format -->
<g id="edge62" class="edge">
<title>resources_loader.cpp&#45;&gt;format</title>
<path fill="none" stroke="#eeeeee" d="M224.25,-402.21C232.47,-462.39 265.67,-658.03 362.25,-782 367.31,-788.5 373.89,-794.21 380.71,-799.07"/>
<polygon fill="#eeeeee" stroke="#eeeeee" points="378.48,-801.79 388.77,-804.31 382.3,-795.92 378.48,-801.79"/>
</g>
<!-- resources_loader.cpp&#45;&gt;fstream -->
<g id="edge67" class="edge">
<title>resources_loader.cpp&#45;&gt;fstream</title>
<path fill="none" stroke="#eeeeee" d="M240.42,-365.51C283.02,-325.07 390.95,-236.01 472.75,-283 569.16,-338.38 614.2,-474.77 629.87,-534.82"/>
<polygon fill="#eeeeee" stroke="#eeeeee" points="626.42,-535.45 632.25,-544.3 633.21,-533.74 626.42,-535.45"/>
</g>
<!-- resources_loader.cpp&#45;&gt;iostream -->
<g id="edge66" class="edge">
<title>resources_loader.cpp&#45;&gt;iostream</title>
<path fill="none" stroke="#eeeeee" d="M254.23,-365.54C306.36,-338.4 409.68,-296.25 472.75,-348 624.09,-472.18 481.38,-600.17 558.75,-780 572.04,-810.89 594.96,-841.77 612.5,-862.91"/>
<polygon fill="#eeeeee" stroke="#eeeeee" points="609.77,-865.11 618.91,-870.47 615.11,-860.58 609.77,-865.11"/>
</g>
<!-- resources_loader.cpp&#45;&gt;image.hpp -->
<g id="edge65" class="edge">
<title>resources_loader.cpp&#45;&gt;image.hpp</title>
<path fill="none" stroke="#eeeeee" d="M272.24,-398.68C349.73,-420 503.42,-457 636.62,-457 636.62,-457 636.62,-457 852,-457 1163.92,-457 972.93,-845.2 1182.75,-1076 1187.49,-1081.21 1193.14,-1086.02 1198.97,-1090.32"/>
<polygon fill="#eeeeee" stroke="#eeeeee" points="1196.71,-1093.01 1206.94,-1095.77 1200.66,-1087.23 1196.71,-1093.01"/>
</g>
<!-- filesystem -->
<g id="node43" class="node">
<title>filesystem</title>
<polygon fill="#76abae" stroke="black" points="446.12,-108 388.88,-108 388.88,-72 446.12,-72 446.12,-108"/>
<text text-anchor="middle" x="417.5" y="-86.12" font-family="Times New Roman,serif" font-size="10.00">filesystem</text>
</g>
<!-- resources_loader.cpp&#45;&gt;filesystem -->
<g id="edge60" class="edge">
<title>resources_loader.cpp&#45;&gt;filesystem</title>
<path fill="none" stroke="#eeeeee" d="M229.51,-365.71C247.83,-322.49 298.02,-211.93 362.25,-135 367.98,-128.13 374.87,-121.51 381.78,-115.57"/>
<polygon fill="#eeeeee" stroke="#eeeeee" points="383.8,-118.44 389.29,-109.38 379.35,-113.04 383.8,-118.44"/>
</g>
<!-- sstream -->
<g id="node44" class="node">
<title>sstream</title>
<polygon fill="#76abae" stroke="black" points="444.5,-36 390.5,-36 390.5,0 444.5,0 444.5,-36"/>
<text text-anchor="middle" x="417.5" y="-14.12" font-family="Times New Roman,serif" font-size="10.00">sstream</text>
</g>
<!-- resources_loader.cpp&#45;&gt;sstream -->
<g id="edge63" class="edge">
<title>resources_loader.cpp&#45;&gt;sstream</title>
<path fill="none" stroke="#eeeeee" d="M225.86,-365.6C237.85,-312.19 278.7,-154.54 362.25,-54 367.47,-47.72 374.05,-42.13 380.82,-37.32"/>
<polygon fill="#eeeeee" stroke="#eeeeee" points="382.35,-40.51 388.79,-32.1 378.51,-34.65 382.35,-40.51"/>
</g>
<!-- document.h -->
<g id="node45" class="node">
<title>document.h</title>
<polygon fill="#76abae" stroke="black" points="449.5,-548 385.5,-548 385.5,-512 449.5,-512 449.5,-548"/>
<text text-anchor="middle" x="417.5" y="-526.12" font-family="Times New Roman,serif" font-size="10.00">document.h</text>
</g>
<!-- resources_loader.cpp&#45;&gt;document.h -->
<g id="edge68" class="edge">
<title>resources_loader.cpp&#45;&gt;document.h</title>
<path fill="none" stroke="#eeeeee" d="M246.63,-402.49C281.27,-428.49 344.46,-475.92 383.24,-505.03"/>
<polygon fill="#eeeeee" stroke="#eeeeee" points="380.76,-507.55 390.86,-510.75 384.96,-501.95 380.76,-507.55"/>
</g>
<!-- SDL_image.h -->
<g id="node46" class="node">
<title>SDL_image.h</title>
<polygon fill="#76abae" stroke="black" points="453.62,-402 381.38,-402 381.38,-366 453.62,-366 453.62,-402"/>
<text text-anchor="middle" x="417.5" y="-380.12" font-family="Times New Roman,serif" font-size="10.00">SDL_image.h</text>
</g>
<!-- resources_loader.cpp&#45;&gt;SDL_image.h -->
<g id="edge69" class="edge">
<title>resources_loader.cpp&#45;&gt;SDL_image.h</title>
<path fill="none" stroke="#eeeeee" d="M272.09,-384C302.2,-384 340.26,-384 369.75,-384"/>
<polygon fill="#eeeeee" stroke="#eeeeee" points="369.49,-387.5 379.49,-384 369.49,-380.5 369.49,-387.5"/>
</g>
<!-- resource_container.cpp -->
<g id="node49" class="node">
<title>resource_container.cpp</title>
<polygon fill="#76abae" stroke="black" points="276.25,-908 165.75,-908 165.75,-872 276.25,-872 276.25,-908"/>
<text text-anchor="middle" x="221" y="-886.12" font-family="Times New Roman,serif" font-size="10.00">resource_container.cpp</text>
</g>
<!-- resource_container.cpp&#45;&gt;logger.hpp -->
<g id="edge74" class="edge">
<title>resource_container.cpp&#45;&gt;logger.hpp</title>
<path fill="none" stroke="#eeeeee" d="M276.7,-890C308.1,-890 346.88,-890 375.62,-890"/>
<polygon fill="#eeeeee" stroke="#eeeeee" points="375.37,-893.5 385.37,-890 375.37,-886.5 375.37,-893.5"/>
</g>
<!-- resource_container.cpp&#45;&gt;resource_container.hpp -->
<g id="edge75" class="edge">
<title>resource_container.cpp&#45;&gt;resource_container.hpp</title>
<path fill="none" stroke="#eeeeee" d="M276.66,-905.36C302.48,-912.27 333.81,-920.17 362.25,-926 598.93,-974.54 676.28,-916.53 899.5,-1009 943.46,-1027.21 986.46,-1061.9 1013.11,-1085.96"/>
<polygon fill="#eeeeee" stroke="#eeeeee" points="1010.65,-1088.46 1020.38,-1092.65 1015.39,-1083.31 1010.65,-1088.46"/>
</g>
<!-- resource_container.cpp&#45;&gt;format -->
<g id="edge76" class="edge">
<title>resource_container.cpp&#45;&gt;format</title>
<path fill="none" stroke="#eeeeee" d="M271.84,-871.55C305.42,-859.12 348.99,-842.99 379.5,-831.7"/>
<polygon fill="#eeeeee" stroke="#eeeeee" points="380.52,-835.05 388.69,-828.3 378.09,-828.49 380.52,-835.05"/>
</g>
<!-- cpp_lua_functions.cpp -->
<g id="node50" class="node">
<title>cpp_lua_functions.cpp</title>
<polygon fill="#76abae" stroke="black" points="275.88,-1784 166.12,-1784 166.12,-1748 275.88,-1748 275.88,-1784"/>
<text text-anchor="middle" x="221" y="-1762.12" font-family="Times New Roman,serif" font-size="10.00">cpp_lua_functions.cpp</text>
</g>
<!-- cpp_lua_functions.cpp&#45;&gt;program_time.hpp -->
<g id="edge80" class="edge">
<title>cpp_lua_functions.cpp&#45;&gt;program_time.hpp</title>
<path fill="none" stroke="#eeeeee" d="M246.63,-1784.49C281.27,-1810.49 344.46,-1857.92 383.24,-1887.03"/>
<polygon fill="#eeeeee" stroke="#eeeeee" points="380.76,-1889.55 390.86,-1892.75 384.96,-1883.95 380.76,-1889.55"/>
</g>
<!-- cpp_lua_functions.cpp&#45;&gt;components.hpp -->
<g id="edge78" class="edge">
<title>cpp_lua_functions.cpp&#45;&gt;components.hpp</title>
<path fill="none" stroke="#eeeeee" d="M276.18,-1766C303.62,-1766 336.79,-1766 364,-1766"/>
<polygon fill="#eeeeee" stroke="#eeeeee" points="363.74,-1769.5 373.74,-1766 363.74,-1762.5 363.74,-1769.5"/>
</g>
<!-- cpp_lua_functions.cpp&#45;&gt;cpp_lua_functions.hpp -->
<g id="edge79" class="edge">
<title>cpp_lua_functions.cpp&#45;&gt;cpp_lua_functions.hpp</title>
<path fill="none" stroke="#eeeeee" d="M271.84,-1747.55C297.57,-1738.03 329.17,-1726.33 356.27,-1716.3"/>
<polygon fill="#eeeeee" stroke="#eeeeee" points="357.21,-1719.68 365.37,-1712.93 354.78,-1713.12 357.21,-1719.68"/>
</g>
<!-- cpp_lua_functions.cpp&#45;&gt;LuaBridge.h -->
<g id="edge81" class="edge">
<title>cpp_lua_functions.cpp&#45;&gt;LuaBridge.h</title>
<path fill="none" stroke="#eeeeee" d="M244.95,-1747.53C272.42,-1725.61 320.01,-1688.22 362.25,-1658 367.49,-1654.25 373.09,-1650.38 378.62,-1646.64"/>
<polygon fill="#eeeeee" stroke="#eeeeee" points="380.18,-1649.81 386.55,-1641.34 376.29,-1643.99 380.18,-1649.81"/>
</g>
<!-- cpp_lua_functions.cpp&#45;&gt;lua.hpp -->
<g id="edge77" class="edge">
<title>cpp_lua_functions.cpp&#45;&gt;lua.hpp</title>
<path fill="none" stroke="#eeeeee" d="M276.33,-1783.34C302.08,-1790.68 333.44,-1798.36 362.25,-1802 529.41,-1823.11 730.57,-1791.05 812.52,-1775.57"/>
<polygon fill="#eeeeee" stroke="#eeeeee" points="813.08,-1779.03 822.24,-1773.7 811.76,-1772.16 813.08,-1779.03"/>
</g>
</g>
</svg>
