<?xml version="1.0" encoding="UTF-8" standalone="no"?>
<!DOCTYPE svg PUBLIC "-//W3C//DTD SVG 1.1//EN"
 "http://www.w3.org/Graphics/SVG/1.1/DTD/svg11.dtd">
<!-- Generated by graphviz version 12.2.1 (20241206.2353)
 -->
<!-- Title: IncludeHierarchy Pages: 1 -->
<svg width="1195pt" height="1322pt"
 viewBox="0.00 0.00 1195.25 1322.19" xmlns="http://www.w3.org/2000/svg" xmlns:xlink="http://www.w3.org/1999/xlink">
<g id="graph0" class="graph" transform="scale(1 1) rotate(0) translate(4 1318.19)">
<title>IncludeHierarchy</title>
<polygon fill="#222831" stroke="none" points="-4,4 -4,-1318.19 1191.25,-1318.19 1191.25,4 -4,4"/>
<!-- logger.cpp -->
<g id="node1" class="node">
<title>logger.cpp</title>
<polygon fill="#76abae" stroke="black" points="250.75,-1242.19 191.25,-1242.19 191.25,-1206.19 250.75,-1206.19 250.75,-1242.19"/>
<text text-anchor="middle" x="221" y="-1220.32" font-family="Times New Roman,serif" font-size="10.00">logger.cpp</text>
</g>
<!-- ctime -->
<g id="node2" class="node">
<title>ctime</title>
<polygon fill="#76abae" stroke="black" points="444.5,-1314.19 390.5,-1314.19 390.5,-1278.19 444.5,-1278.19 444.5,-1314.19"/>
<text text-anchor="middle" x="417.5" y="-1292.32" font-family="Times New Roman,serif" font-size="10.00">ctime</text>
</g>
<!-- logger.cpp&#45;&gt;ctime -->
<g id="edge1" class="edge">
<title>logger.cpp&#45;&gt;ctime</title>
<path fill="none" stroke="#eeeeee" d="M251.12,-1234.97C285.46,-1247.69 342.57,-1268.83 379.88,-1282.64"/>
<polygon fill="#eeeeee" stroke="#eeeeee" points="378.29,-1285.78 388.88,-1285.97 380.72,-1279.22 378.29,-1285.78"/>
</g>
<!-- logger.hpp -->
<g id="node3" class="node">
<title>logger.hpp</title>
<polygon fill="#76abae" stroke="black" points="447.62,-1096.19 387.38,-1096.19 387.38,-1060.19 447.62,-1060.19 447.62,-1096.19"/>
<text text-anchor="middle" x="417.5" y="-1074.32" font-family="Times New Roman,serif" font-size="10.00">logger.hpp</text>
</g>
<!-- logger.cpp&#45;&gt;logger.hpp -->
<g id="edge2" class="edge">
<title>logger.cpp&#45;&gt;logger.hpp</title>
<path fill="none" stroke="#eeeeee" d="M246.63,-1205.7C281.27,-1179.7 344.46,-1132.27 383.24,-1103.16"/>
<polygon fill="#eeeeee" stroke="#eeeeee" points="384.96,-1106.25 390.86,-1097.44 380.76,-1100.65 384.96,-1106.25"/>
</g>
<!-- chrono -->
<g id="node4" class="node">
<title>chrono</title>
<polygon fill="#76abae" stroke="black" points="444.5,-1242.19 390.5,-1242.19 390.5,-1206.19 444.5,-1206.19 444.5,-1242.19"/>
<text text-anchor="middle" x="417.5" y="-1220.32" font-family="Times New Roman,serif" font-size="10.00">chrono</text>
</g>
<!-- logger.cpp&#45;&gt;chrono -->
<g id="edge3" class="edge">
<title>logger.cpp&#45;&gt;chrono</title>
<path fill="none" stroke="#eeeeee" d="M251.12,-1224.19C285.16,-1224.19 341.59,-1224.19 378.91,-1224.19"/>
<polygon fill="#eeeeee" stroke="#eeeeee" points="378.79,-1227.7 388.79,-1224.2 378.79,-1220.7 378.79,-1227.7"/>
</g>
<!-- string -->
<g id="node17" class="node">
<title>string</title>
<polygon fill="#76abae" stroke="black" points="1187.25,-806.19 1133.25,-806.19 1133.25,-770.19 1187.25,-770.19 1187.25,-806.19"/>
<text text-anchor="middle" x="1160.25" y="-784.32" font-family="Times New Roman,serif" font-size="10.00">string</text>
</g>
<!-- logger.hpp&#45;&gt;string -->
<g id="edge32" class="edge">
<title>logger.hpp&#45;&gt;string</title>
<path fill="none" stroke="#eeeeee" d="M448.12,-1069.89C493,-1057.07 580.69,-1031.13 653.5,-1004.19 832.18,-938.09 1039.58,-843.81 1122.37,-805.43"/>
<polygon fill="#eeeeee" stroke="#eeeeee" points="1123.79,-808.63 1131.39,-801.25 1120.84,-802.29 1123.79,-808.63"/>
</g>
<!-- fstream -->
<g id="node26" class="node">
<title>fstream</title>
<polygon fill="#76abae" stroke="black" points="633.12,-859.19 579.12,-859.19 579.12,-823.19 633.12,-823.19 633.12,-859.19"/>
<text text-anchor="middle" x="606.12" y="-837.32" font-family="Times New Roman,serif" font-size="10.00">fstream</text>
</g>
<!-- logger.hpp&#45;&gt;fstream -->
<g id="edge30" class="edge">
<title>logger.hpp&#45;&gt;fstream</title>
<path fill="none" stroke="#eeeeee" d="M432.83,-1059.99C465.47,-1018.55 545.45,-916.98 583.86,-868.2"/>
<polygon fill="#eeeeee" stroke="#eeeeee" points="586.37,-870.67 589.81,-860.65 580.87,-866.34 586.37,-870.67"/>
</g>
<!-- iostream -->
<g id="node27" class="node">
<title>iostream</title>
<polygon fill="#76abae" stroke="black" points="633.12,-986.19 579.12,-986.19 579.12,-950.19 633.12,-950.19 633.12,-986.19"/>
<text text-anchor="middle" x="606.12" y="-964.32" font-family="Times New Roman,serif" font-size="10.00">iostream</text>
</g>
<!-- logger.hpp&#45;&gt;iostream -->
<g id="edge31" class="edge">
<title>logger.hpp&#45;&gt;iostream</title>
<path fill="none" stroke="#eeeeee" d="M448.07,-1060.77C480.81,-1041.47 533.61,-1010.35 568.83,-989.59"/>
<polygon fill="#eeeeee" stroke="#eeeeee" points="570.57,-992.63 577.41,-984.53 567.01,-986.6 570.57,-992.63"/>
</g>
<!-- application.cpp -->
<g id="node5" class="node">
<title>application.cpp</title>
<polygon fill="#76abae" stroke="black" points="79.75,-787.19 0,-787.19 0,-751.19 79.75,-751.19 79.75,-787.19"/>
<text text-anchor="middle" x="39.88" y="-765.32" font-family="Times New Roman,serif" font-size="10.00">application.cpp</text>
</g>
<!-- application.cpp&#45;&gt;logger.hpp -->
<g id="edge4" class="edge">
<title>application.cpp&#45;&gt;logger.hpp</title>
<path fill="none" stroke="#eeeeee" d="M63.25,-787.6C127.32,-840.3 311.61,-991.91 385.4,-1052.61"/>
<polygon fill="#eeeeee" stroke="#eeeeee" points="383.13,-1055.28 393.08,-1058.93 387.58,-1049.87 383.13,-1055.28"/>
</g>
<!-- application.hpp -->
<g id="node6" class="node">
<title>application.hpp</title>
<polygon fill="#76abae" stroke="black" points="261.25,-552.19 180.75,-552.19 180.75,-516.19 261.25,-516.19 261.25,-552.19"/>
<text text-anchor="middle" x="221" y="-530.32" font-family="Times New Roman,serif" font-size="10.00">application.hpp</text>
</g>
<!-- application.cpp&#45;&gt;application.hpp -->
<g id="edge5" class="edge">
<title>application.cpp&#45;&gt;application.hpp</title>
<path fill="none" stroke="#eeeeee" d="M54.93,-750.75C86.32,-709.57 162.27,-609.94 199.17,-561.52"/>
<polygon fill="#eeeeee" stroke="#eeeeee" points="201.81,-563.83 205.09,-553.75 196.25,-559.58 201.81,-563.83"/>
</g>
<!-- renderer.hpp -->
<g id="node7" class="node">
<title>renderer.hpp</title>
<polygon fill="#76abae" stroke="black" points="639.62,-678.19 572.62,-678.19 572.62,-642.19 639.62,-642.19 639.62,-678.19"/>
<text text-anchor="middle" x="606.12" y="-656.32" font-family="Times New Roman,serif" font-size="10.00">renderer.hpp</text>
</g>
<!-- application.hpp&#45;&gt;renderer.hpp -->
<g id="edge6" class="edge">
<title>application.hpp&#45;&gt;renderer.hpp</title>
<path fill="none" stroke="#eeeeee" d="M261.49,-525.46C312.37,-516.12 402.62,-506.15 472.75,-534.19 498.51,-544.49 550.85,-599.52 581.43,-633.36"/>
<polygon fill="#eeeeee" stroke="#eeeeee" points="578.78,-635.64 588.06,-640.75 583.99,-630.97 578.78,-635.64"/>
</g>
<!-- resources_loader.hpp -->
<g id="node8" class="node">
<title>resources_loader.hpp</title>
<polygon fill="#76abae" stroke="black" points="468.62,-588.19 366.38,-588.19 366.38,-552.19 468.62,-552.19 468.62,-588.19"/>
<text text-anchor="middle" x="417.5" y="-566.32" font-family="Times New Roman,serif" font-size="10.00">resources_loader.hpp</text>
</g>
<!-- application.hpp&#45;&gt;resources_loader.hpp -->
<g id="edge7" class="edge">
<title>application.hpp&#45;&gt;resources_loader.hpp</title>
<path fill="none" stroke="#eeeeee" d="M261.36,-541.48C288.25,-546.46 324.43,-553.15 355.08,-558.83"/>
<polygon fill="#eeeeee" stroke="#eeeeee" points="354.14,-562.21 364.61,-560.59 355.41,-555.33 354.14,-562.21"/>
</g>
<!-- scripts_manager.hpp -->
<g id="node9" class="node">
<title>scripts_manager.hpp</title>
<polygon fill="#76abae" stroke="black" points="467.5,-442.19 367.5,-442.19 367.5,-406.19 467.5,-406.19 467.5,-442.19"/>
<text text-anchor="middle" x="417.5" y="-420.32" font-family="Times New Roman,serif" font-size="10.00">scripts_manager.hpp</text>
</g>
<!-- application.hpp&#45;&gt;scripts_manager.hpp -->
<g id="edge8" class="edge">
<title>application.hpp&#45;&gt;scripts_manager.hpp</title>
<path fill="none" stroke="#eeeeee" d="M254.55,-515.78C287.37,-497.22 338.18,-468.49 374.12,-448.16"/>
<polygon fill="#eeeeee" stroke="#eeeeee" points="375.54,-451.38 382.52,-443.41 372.09,-445.29 375.54,-451.38"/>
</g>
<!-- entt.hpp -->
<g id="node24" class="node">
<title>entt.hpp</title>
<polygon fill="#76abae" stroke="black" points="822.12,-624.19 768.12,-624.19 768.12,-588.19 822.12,-588.19 822.12,-624.19"/>
<text text-anchor="middle" x="795.12" y="-602.32" font-family="Times New Roman,serif" font-size="10.00">entt.hpp</text>
</g>
<!-- renderer.hpp&#45;&gt;entt.hpp -->
<g id="edge43" class="edge">
<title>renderer.hpp&#45;&gt;entt.hpp</title>
<path fill="none" stroke="#eeeeee" d="M639.7,-650.79C672.32,-641.37 722.47,-626.89 756.71,-617"/>
<polygon fill="#eeeeee" stroke="#eeeeee" points="757.57,-620.39 766.21,-614.26 755.63,-613.67 757.57,-620.39"/>
</g>
<!-- resource_container.hpp -->
<g id="node25" class="node">
<title>resource_container.hpp</title>
<polygon fill="#76abae" stroke="black" points="850.75,-696.19 739.5,-696.19 739.5,-660.19 850.75,-660.19 850.75,-696.19"/>
<text text-anchor="middle" x="795.12" y="-674.32" font-family="Times New Roman,serif" font-size="10.00">resource_container.hpp</text>
</g>
<!-- renderer.hpp&#45;&gt;resource_container.hpp -->
<g id="edge44" class="edge">
<title>renderer.hpp&#45;&gt;resource_container.hpp</title>
<path fill="none" stroke="#eeeeee" d="M639.7,-663.33C664.01,-665.67 698.05,-668.95 727.99,-671.83"/>
<polygon fill="#eeeeee" stroke="#eeeeee" points="727.44,-675.29 737.73,-672.77 728.11,-668.32 727.44,-675.29"/>
</g>
<!-- haste_n_slash.hpp -->
<g id="node10" class="node">
<title>haste_n_slash.hpp</title>
<polygon fill="#76abae" stroke="black" points="651.62,-588.19 560.62,-588.19 560.62,-552.19 651.62,-552.19 651.62,-588.19"/>
<text text-anchor="middle" x="606.12" y="-566.32" font-family="Times New Roman,serif" font-size="10.00">haste_n_slash.hpp</text>
</g>
<!-- resources_loader.hpp&#45;&gt;haste_n_slash.hpp -->
<g id="edge52" class="edge">
<title>resources_loader.hpp&#45;&gt;haste_n_slash.hpp</title>
<path fill="none" stroke="#eeeeee" d="M469,-570.19C493.72,-570.19 523.55,-570.19 548.97,-570.19"/>
<polygon fill="#eeeeee" stroke="#eeeeee" points="548.8,-573.7 558.8,-570.2 548.8,-566.7 548.8,-573.7"/>
</g>
<!-- scripts_manager.hpp&#45;&gt;haste_n_slash.hpp -->
<g id="edge9" class="edge">
<title>scripts_manager.hpp&#45;&gt;haste_n_slash.hpp</title>
<path fill="none" stroke="#eeeeee" d="M441.8,-442.53C469.6,-464.39 517.52,-502.02 558.75,-534.19 563.25,-537.71 568.01,-541.41 572.69,-545.05"/>
<polygon fill="#eeeeee" stroke="#eeeeee" points="570.28,-547.61 580.32,-550.98 574.57,-542.08 570.28,-547.61"/>
</g>
<!-- script.hpp -->
<g id="node11" class="node">
<title>script.hpp</title>
<polygon fill="#76abae" stroke="black" points="634.38,-424.19 577.88,-424.19 577.88,-388.19 634.38,-388.19 634.38,-424.19"/>
<text text-anchor="middle" x="606.12" y="-402.32" font-family="Times New Roman,serif" font-size="10.00">script.hpp</text>
</g>
<!-- scripts_manager.hpp&#45;&gt;script.hpp -->
<g id="edge10" class="edge">
<title>scripts_manager.hpp&#45;&gt;script.hpp</title>
<path fill="none" stroke="#eeeeee" d="M467.53,-419.47C498.38,-416.49 537.64,-412.7 566.31,-409.94"/>
<polygon fill="#eeeeee" stroke="#eeeeee" points="566.39,-413.45 576.01,-409 565.72,-406.48 566.39,-413.45"/>
</g>
<!-- lua.hpp -->
<g id="node12" class="node">
<title>lua.hpp</title>
<polygon fill="#76abae" stroke="black" points="822.12,-223.19 768.12,-223.19 768.12,-187.19 822.12,-187.19 822.12,-223.19"/>
<text text-anchor="middle" x="795.12" y="-201.32" font-family="Times New Roman,serif" font-size="10.00">lua.hpp</text>
</g>
<!-- scripts_manager.hpp&#45;&gt;lua.hpp -->
<g id="edge11" class="edge">
<title>scripts_manager.hpp&#45;&gt;lua.hpp</title>
<path fill="none" stroke="#eeeeee" d="M450.2,-405.71C519.63,-365.23 684.76,-268.96 758.03,-226.24"/>
<polygon fill="#eeeeee" stroke="#eeeeee" points="759.56,-229.4 766.43,-221.34 756.03,-223.35 759.56,-229.4"/>
</g>
<!-- input_manager.hpp -->
<g id="node13" class="node">
<title>input_manager.hpp</title>
<polygon fill="#76abae" stroke="black" points="842.88,-552.19 747.38,-552.19 747.38,-516.19 842.88,-516.19 842.88,-552.19"/>
<text text-anchor="middle" x="795.12" y="-530.32" font-family="Times New Roman,serif" font-size="10.00">input_manager.hpp</text>
</g>
<!-- haste_n_slash.hpp&#45;&gt;input_manager.hpp -->
<g id="edge29" class="edge">
<title>haste_n_slash.hpp&#45;&gt;input_manager.hpp</title>
<path fill="none" stroke="#eeeeee" d="M651.92,-561.57C677.07,-556.73 708.74,-550.63 735.8,-545.42"/>
<polygon fill="#eeeeee" stroke="#eeeeee" points="736.45,-548.86 745.6,-543.54 735.12,-541.99 736.45,-548.86"/>
</g>
<!-- haste_n_slash.hpp&#45;&gt;entt.hpp -->
<g id="edge27" class="edge">
<title>haste_n_slash.hpp&#45;&gt;entt.hpp</title>
<path fill="none" stroke="#eeeeee" d="M651.92,-578.82C684.01,-585 726.73,-593.22 756.95,-599.04"/>
<polygon fill="#eeeeee" stroke="#eeeeee" points="755.9,-602.4 766.38,-600.85 757.22,-595.53 755.9,-602.4"/>
</g>
<!-- haste_n_slash.hpp&#45;&gt;resource_container.hpp -->
<g id="edge28" class="edge">
<title>haste_n_slash.hpp&#45;&gt;resource_container.hpp</title>
<path fill="none" stroke="#eeeeee" d="M638.85,-588.52C670.14,-606.59 718.16,-634.32 752.5,-654.16"/>
<polygon fill="#eeeeee" stroke="#eeeeee" points="750.53,-657.06 760.94,-659.03 754.03,-651 750.53,-657.06"/>
</g>
<!-- script.hpp&#45;&gt;lua.hpp -->
<g id="edge26" class="edge">
<title>script.hpp&#45;&gt;lua.hpp</title>
<path fill="none" stroke="#eeeeee" d="M624.05,-388C657.2,-352.37 730.83,-273.23 769.43,-231.74"/>
<polygon fill="#eeeeee" stroke="#eeeeee" points="771.82,-234.3 776.07,-224.6 766.7,-229.54 771.82,-234.3"/>
</g>
<!-- script.hpp&#45;&gt;string -->
<g id="edge25" class="edge">
<title>script.hpp&#45;&gt;string</title>
<path fill="none" stroke="#eeeeee" d="M634.67,-405.05C710.21,-403.41 923.29,-409.09 1047.25,-516.19 1121.77,-580.58 1147.58,-702.32 1155.77,-758.46"/>
<polygon fill="#eeeeee" stroke="#eeeeee" points="1152.28,-758.77 1157.1,-768.21 1159.22,-757.83 1152.28,-758.77"/>
</g>
<!-- map -->
<g id="node14" class="node">
<title>map</title>
<polygon fill="#76abae" stroke="black" points="1019,-570.19 965,-570.19 965,-534.19 1019,-534.19 1019,-570.19"/>
<text text-anchor="middle" x="992" y="-548.32" font-family="Times New Roman,serif" font-size="10.00">map</text>
</g>
<!-- input_manager.hpp&#45;&gt;map -->
<g id="edge12" class="edge">
<title>input_manager.hpp&#45;&gt;map</title>
<path fill="none" stroke="#eeeeee" d="M843.3,-538.55C877.06,-541.67 921.91,-545.81 953.29,-548.71"/>
<polygon fill="#eeeeee" stroke="#eeeeee" points="952.82,-552.18 963.1,-549.62 953.47,-545.21 952.82,-552.18"/>
</g>
<!-- SDL.h -->
<g id="node15" class="node">
<title>SDL.h</title>
<polygon fill="#76abae" stroke="black" points="1187.25,-370.19 1133.25,-370.19 1133.25,-334.19 1187.25,-334.19 1187.25,-370.19"/>
<text text-anchor="middle" x="1160.25" y="-348.32" font-family="Times New Roman,serif" font-size="10.00">SDL.h</text>
</g>
<!-- input_manager.hpp&#45;&gt;SDL.h -->
<g id="edge13" class="edge">
<title>input_manager.hpp&#45;&gt;SDL.h</title>
<path fill="none" stroke="#eeeeee" d="M803.58,-515.77C820.47,-476.86 865.78,-387.04 936.75,-352.19 996.2,-323 1075.83,-332.91 1121.94,-342.65"/>
<polygon fill="#eeeeee" stroke="#eeeeee" points="1120.91,-346 1131.43,-344.76 1122.43,-339.17 1120.91,-346"/>
</g>
<!-- graphic.hpp -->
<g id="node16" class="node">
<title>graphic.hpp</title>
<polygon fill="#76abae" stroke="black" points="1024.38,-406.19 959.62,-406.19 959.62,-370.19 1024.38,-370.19 1024.38,-406.19"/>
<text text-anchor="middle" x="992" y="-384.32" font-family="Times New Roman,serif" font-size="10.00">graphic.hpp</text>
</g>
<!-- graphic.hpp&#45;&gt;SDL.h -->
<g id="edge14" class="edge">
<title>graphic.hpp&#45;&gt;SDL.h</title>
<path fill="none" stroke="#eeeeee" d="M1024.66,-381.34C1052.36,-375.34 1092.62,-366.62 1121.89,-360.29"/>
<polygon fill="#eeeeee" stroke="#eeeeee" points="1122.39,-363.76 1131.43,-358.22 1120.91,-356.92 1122.39,-363.76"/>
</g>
<!-- graphic.hpp&#45;&gt;string -->
<g id="edge15" class="edge">
<title>graphic.hpp&#45;&gt;string</title>
<path fill="none" stroke="#eeeeee" d="M1021.28,-406.65C1030.65,-413.95 1040.42,-423.04 1047.25,-433.19 1118.9,-539.75 1146.8,-694.76 1155.7,-758.81"/>
<polygon fill="#eeeeee" stroke="#eeeeee" points="1152.2,-759.07 1156.99,-768.53 1159.14,-758.15 1152.2,-759.07"/>
</g>
<!-- scripts_manager.cpp -->
<g id="node18" class="node">
<title>scripts_manager.cpp</title>
<polygon fill="#76abae" stroke="black" points="270.62,-333.19 171.38,-333.19 171.38,-297.19 270.62,-297.19 270.62,-333.19"/>
<text text-anchor="middle" x="221" y="-311.32" font-family="Times New Roman,serif" font-size="10.00">scripts_manager.cpp</text>
</g>
<!-- scripts_manager.cpp&#45;&gt;logger.hpp -->
<g id="edge18" class="edge">
<title>scripts_manager.cpp&#45;&gt;logger.hpp</title>
<path fill="none" stroke="#eeeeee" d="M228.13,-333.46C238.94,-366.19 261.65,-437.12 276.25,-498.19 325.61,-704.74 295.53,-766.59 362.25,-968.19 371.85,-997.21 387.74,-1028.26 399.84,-1049.95"/>
<polygon fill="#eeeeee" stroke="#eeeeee" points="396.71,-1051.51 404.69,-1058.48 402.79,-1048.06 396.71,-1051.51"/>
</g>
<!-- scripts_manager.cpp&#45;&gt;scripts_manager.hpp -->
<g id="edge16" class="edge">
<title>scripts_manager.cpp&#45;&gt;scripts_manager.hpp</title>
<path fill="none" stroke="#eeeeee" d="M254.99,-333.69C287.79,-352.06 338.22,-380.33 373.99,-400.37"/>
<polygon fill="#eeeeee" stroke="#eeeeee" points="371.91,-403.22 382.35,-405.06 375.34,-397.11 371.91,-403.22"/>
</g>
<!-- scripts_manager.cpp&#45;&gt;script.hpp -->
<g id="edge17" class="edge">
<title>scripts_manager.cpp&#45;&gt;script.hpp</title>
<path fill="none" stroke="#eeeeee" d="M270.91,-326.81C348.11,-345.15 496.63,-380.42 566.71,-397.07"/>
<polygon fill="#eeeeee" stroke="#eeeeee" points="565.65,-400.42 576.19,-399.32 567.27,-393.61 565.65,-400.42"/>
</g>
<!-- scripts_manager.cpp&#45;&gt;lua.hpp -->
<g id="edge19" class="edge">
<title>scripts_manager.cpp&#45;&gt;lua.hpp</title>
<path fill="none" stroke="#eeeeee" d="M249.35,-296.78C276.66,-279.42 320.47,-254.33 362.25,-242.19 503.22,-201.25 680.1,-201.22 756.33,-203.53"/>
<polygon fill="#eeeeee" stroke="#eeeeee" points="756.05,-207.02 766.16,-203.86 756.29,-200.02 756.05,-207.02"/>
</g>
<!-- cpp_lua_functions.hpp -->
<g id="node19" class="node">
<title>cpp_lua_functions.hpp</title>
<polygon fill="#76abae" stroke="black" points="472.75,-78.19 362.25,-78.19 362.25,-42.19 472.75,-42.19 472.75,-78.19"/>
<text text-anchor="middle" x="417.5" y="-56.32" font-family="Times New Roman,serif" font-size="10.00">cpp_lua_functions.hpp</text>
</g>
<!-- scripts_manager.cpp&#45;&gt;cpp_lua_functions.hpp -->
<g id="edge20" class="edge">
<title>scripts_manager.cpp&#45;&gt;cpp_lua_functions.hpp</title>
<path fill="none" stroke="#eeeeee" d="M230.39,-296.98C249.44,-257.05 299.24,-160.24 362.25,-96.19 366.06,-92.32 370.36,-88.63 374.82,-85.19"/>
<polygon fill="#eeeeee" stroke="#eeeeee" points="376.8,-88.08 382.88,-79.4 372.72,-82.39 376.8,-88.08"/>
</g>
<!-- format -->
<g id="node20" class="node">
<title>format</title>
<polygon fill="#76abae" stroke="black" points="444.5,-734.19 390.5,-734.19 390.5,-698.19 444.5,-698.19 444.5,-734.19"/>
<text text-anchor="middle" x="417.5" y="-712.32" font-family="Times New Roman,serif" font-size="10.00">format</text>
</g>
<!-- scripts_manager.cpp&#45;&gt;format -->
<g id="edge21" class="edge">
<title>scripts_manager.cpp&#45;&gt;format</title>
<path fill="none" stroke="#eeeeee" d="M230.8,-333.61C252.82,-379.63 312.11,-503.36 362.25,-606.19 375.8,-633.99 391.44,-665.65 402.43,-687.85"/>
<polygon fill="#eeeeee" stroke="#eeeeee" points="399.18,-689.16 406.75,-696.57 405.45,-686.05 399.18,-689.16"/>
</g>
<!-- unordered_map -->
<g id="node21" class="node">
<title>unordered_map</title>
<polygon fill="#76abae" stroke="black" points="457.38,-296.19 377.62,-296.19 377.62,-260.19 457.38,-260.19 457.38,-296.19"/>
<text text-anchor="middle" x="417.5" y="-274.32" font-family="Times New Roman,serif" font-size="10.00">unordered_map</text>
</g>
<!-- scripts_manager.cpp&#45;&gt;unordered_map -->
<g id="edge22" class="edge">
<title>scripts_manager.cpp&#45;&gt;unordered_map</title>
<path fill="none" stroke="#eeeeee" d="M271.08,-305.86C300.09,-300.34 336.75,-293.37 366,-287.8"/>
<polygon fill="#eeeeee" stroke="#eeeeee" points="366.57,-291.26 375.74,-285.95 365.26,-284.38 366.57,-291.26"/>
</g>
<!-- LuaBridge.h -->
<g id="node22" class="node">
<title>LuaBridge.h</title>
<polygon fill="#76abae" stroke="black" points="451,-150.19 384,-150.19 384,-114.19 451,-114.19 451,-150.19"/>
<text text-anchor="middle" x="417.5" y="-128.32" font-family="Times New Roman,serif" font-size="10.00">LuaBridge.h</text>
</g>
<!-- scripts_manager.cpp&#45;&gt;LuaBridge.h -->
<g id="edge23" class="edge">
<title>scripts_manager.cpp&#45;&gt;LuaBridge.h</title>
<path fill="none" stroke="#eeeeee" d="M239.68,-296.83C265.83,-269.9 316.63,-218.42 362.25,-177.19 369.43,-170.71 377.35,-163.94 384.86,-157.67"/>
<polygon fill="#eeeeee" stroke="#eeeeee" points="386.78,-160.63 392.27,-151.57 382.33,-155.23 386.78,-160.63"/>
</g>
<!-- cpp_lua_functions.hpp&#45;&gt;haste_n_slash.hpp -->
<g id="edge60" class="edge">
<title>cpp_lua_functions.hpp&#45;&gt;haste_n_slash.hpp</title>
<path fill="none" stroke="#eeeeee" d="M455,-78.57C461.78,-83.46 468.16,-89.34 472.75,-96.19 583.02,-261.11 454.67,-365.31 558.75,-534.19 560.97,-537.79 563.68,-541.17 566.67,-544.3"/>
<polygon fill="#eeeeee" stroke="#eeeeee" points="564.23,-546.81 573.97,-550.98 568.96,-541.65 564.23,-546.81"/>
</g>
<!-- cpp_lua_functions.hpp&#45;&gt;lua.hpp -->
<g id="edge61" class="edge">
<title>cpp_lua_functions.hpp&#45;&gt;lua.hpp</title>
<path fill="none" stroke="#eeeeee" d="M466.07,-78.56C542,-107.87 688.96,-164.6 757.4,-191.02"/>
<polygon fill="#eeeeee" stroke="#eeeeee" points="756.07,-194.26 766.66,-194.59 758.59,-187.73 756.07,-194.26"/>
</g>
<!-- input_manager.cpp -->
<g id="node23" class="node">
<title>input_manager.cpp</title>
<polygon fill="#76abae" stroke="black" points="653.5,-516.19 558.75,-516.19 558.75,-480.19 653.5,-480.19 653.5,-516.19"/>
<text text-anchor="middle" x="606.12" y="-494.32" font-family="Times New Roman,serif" font-size="10.00">input_manager.cpp</text>
</g>
<!-- input_manager.cpp&#45;&gt;input_manager.hpp -->
<g id="edge24" class="edge">
<title>input_manager.cpp&#45;&gt;input_manager.hpp</title>
<path fill="none" stroke="#eeeeee" d="M653.83,-507.19C678.73,-511.98 709.58,-517.92 736.02,-523.01"/>
<polygon fill="#eeeeee" stroke="#eeeeee" points="735.07,-526.39 745.56,-524.84 736.4,-519.52 735.07,-526.39"/>
</g>
<!-- resource_container.hpp&#45;&gt;map -->
<g id="edge35" class="edge">
<title>resource_container.hpp&#45;&gt;map</title>
<path fill="none" stroke="#eeeeee" d="M824.46,-659.87C858.96,-637.57 917.27,-599.87 954.93,-575.51"/>
<polygon fill="#eeeeee" stroke="#eeeeee" points="956.74,-578.52 963.23,-570.15 952.94,-572.64 956.74,-578.52"/>
</g>
<!-- resource_container.hpp&#45;&gt;graphic.hpp -->
<g id="edge38" class="edge">
<title>resource_container.hpp&#45;&gt;graphic.hpp</title>
<path fill="none" stroke="#eeeeee" d="M829.62,-659.81C837.12,-654.73 844.66,-648.78 850.75,-642.19 915.29,-572.4 960.9,-467.47 980.41,-417.14"/>
<polygon fill="#eeeeee" stroke="#eeeeee" points="983.56,-418.7 983.84,-408.11 977.01,-416.21 983.56,-418.7"/>
</g>
<!-- uncompiled_script.hpp -->
<g id="node28" class="node">
<title>uncompiled_script.hpp</title>
<polygon fill="#76abae" stroke="black" points="1047.25,-1206.19 936.75,-1206.19 936.75,-1170.19 1047.25,-1170.19 1047.25,-1206.19"/>
<text text-anchor="middle" x="992" y="-1184.32" font-family="Times New Roman,serif" font-size="10.00">uncompiled_script.hpp</text>
</g>
<!-- resource_container.hpp&#45;&gt;uncompiled_script.hpp -->
<g id="edge39" class="edge">
<title>resource_container.hpp&#45;&gt;uncompiled_script.hpp</title>
<path fill="none" stroke="#eeeeee" d="M803.18,-696.65C832.39,-773.1 944.08,-1065.41 979.89,-1159.11"/>
<polygon fill="#eeeeee" stroke="#eeeeee" points="976.58,-1160.26 983.42,-1168.35 983.12,-1157.76 976.58,-1160.26"/>
</g>
<!-- memory -->
<g id="node30" class="node">
<title>memory</title>
<polygon fill="#76abae" stroke="black" points="1019,-732.19 965,-732.19 965,-696.19 1019,-696.19 1019,-732.19"/>
<text text-anchor="middle" x="992" y="-710.32" font-family="Times New Roman,serif" font-size="10.00">memory</text>
</g>
<!-- resource_container.hpp&#45;&gt;memory -->
<g id="edge36" class="edge">
<title>resource_container.hpp&#45;&gt;memory</title>
<path fill="none" stroke="#eeeeee" d="M851.19,-688.37C883.83,-694.4 924.36,-701.88 953.36,-707.24"/>
<polygon fill="#eeeeee" stroke="#eeeeee" points="952.68,-710.68 963.15,-709.05 953.95,-703.79 952.68,-710.68"/>
</g>
<!-- queue -->
<g id="node31" class="node">
<title>queue</title>
<polygon fill="#76abae" stroke="black" points="1019,-660.19 965,-660.19 965,-624.19 1019,-624.19 1019,-660.19"/>
<text text-anchor="middle" x="992" y="-638.32" font-family="Times New Roman,serif" font-size="10.00">queue</text>
</g>
<!-- resource_container.hpp&#45;&gt;queue -->
<g id="edge37" class="edge">
<title>resource_container.hpp&#45;&gt;queue</title>
<path fill="none" stroke="#eeeeee" d="M851.19,-668.02C883.83,-661.99 924.36,-654.51 953.36,-649.15"/>
<polygon fill="#eeeeee" stroke="#eeeeee" points="953.95,-652.6 963.15,-647.34 952.68,-645.71 953.95,-652.6"/>
</g>
<!-- uncompiled_script.hpp&#45;&gt;string -->
<g id="edge34" class="edge">
<title>uncompiled_script.hpp&#45;&gt;string</title>
<path fill="none" stroke="#eeeeee" d="M1021.28,-1169.74C1030.65,-1162.44 1040.42,-1153.35 1047.25,-1143.19 1118.9,-1036.64 1146.8,-881.63 1155.7,-817.58"/>
<polygon fill="#eeeeee" stroke="#eeeeee" points="1159.14,-818.24 1156.99,-807.86 1152.2,-817.32 1159.14,-818.24"/>
</g>
<!-- vector -->
<g id="node29" class="node">
<title>vector</title>
<polygon fill="#76abae" stroke="black" points="1187.25,-1206.19 1133.25,-1206.19 1133.25,-1170.19 1187.25,-1170.19 1187.25,-1206.19"/>
<text text-anchor="middle" x="1160.25" y="-1184.32" font-family="Times New Roman,serif" font-size="10.00">vector</text>
</g>
<!-- uncompiled_script.hpp&#45;&gt;vector -->
<g id="edge33" class="edge">
<title>uncompiled_script.hpp&#45;&gt;vector</title>
<path fill="none" stroke="#eeeeee" d="M1047.44,-1188.19C1071.73,-1188.19 1099.74,-1188.19 1121.65,-1188.19"/>
<polygon fill="#eeeeee" stroke="#eeeeee" points="1121.62,-1191.7 1131.62,-1188.2 1121.62,-1184.7 1121.62,-1191.7"/>
</g>
<!-- main.cpp -->
<g id="node32" class="node">
<title>main.cpp</title>
<polygon fill="#76abae" stroke="black" points="66.88,-552.19 12.88,-552.19 12.88,-516.19 66.88,-516.19 66.88,-552.19"/>
<text text-anchor="middle" x="39.88" y="-530.32" font-family="Times New Roman,serif" font-size="10.00">main.cpp</text>
</g>
<!-- main.cpp&#45;&gt;application.hpp -->
<g id="edge40" class="edge">
<title>main.cpp&#45;&gt;application.hpp</title>
<path fill="none" stroke="#eeeeee" d="M67.31,-534.19C94.03,-534.19 136.02,-534.19 169.2,-534.19"/>
<polygon fill="#eeeeee" stroke="#eeeeee" points="169.02,-537.7 179.02,-534.2 169.02,-530.7 169.02,-537.7"/>
</g>
<!-- renderer.cpp -->
<g id="node33" class="node">
<title>renderer.cpp</title>
<polygon fill="#76abae" stroke="black" points="450.62,-950.19 384.38,-950.19 384.38,-914.19 450.62,-914.19 450.62,-950.19"/>
<text text-anchor="middle" x="417.5" y="-928.32" font-family="Times New Roman,serif" font-size="10.00">renderer.cpp</text>
</g>
<!-- renderer.cpp&#45;&gt;renderer.hpp -->
<g id="edge41" class="edge">
<title>renderer.cpp&#45;&gt;renderer.hpp</title>
<path fill="none" stroke="#eeeeee" d="M450.88,-914.33C458.61,-909.12 466.45,-902.99 472.75,-896.19 532.21,-832.12 575.17,-736.5 594.2,-689.05"/>
<polygon fill="#eeeeee" stroke="#eeeeee" points="597.35,-690.6 597.76,-680.02 590.84,-688.04 597.35,-690.6"/>
</g>
<!-- renderer.cpp&#45;&gt;iostream -->
<g id="edge42" class="edge">
<title>renderer.cpp&#45;&gt;iostream</title>
<path fill="none" stroke="#eeeeee" d="M451.01,-938.47C483.57,-944.75 533.61,-954.4 567.78,-960.99"/>
<polygon fill="#eeeeee" stroke="#eeeeee" points="566.75,-964.36 577.23,-962.81 568.07,-957.48 566.75,-964.36"/>
</g>
<!-- resources_loader.cpp -->
<g id="node34" class="node">
<title>resources_loader.cpp</title>
<polygon fill="#76abae" stroke="black" points="271.75,-806.19 170.25,-806.19 170.25,-770.19 271.75,-770.19 271.75,-806.19"/>
<text text-anchor="middle" x="221" y="-784.32" font-family="Times New Roman,serif" font-size="10.00">resources_loader.cpp</text>
</g>
<!-- resources_loader.cpp&#45;&gt;logger.hpp -->
<g id="edge49" class="edge">
<title>resources_loader.cpp&#45;&gt;logger.hpp</title>
<path fill="none" stroke="#eeeeee" d="M229.72,-806.5C248.3,-849.22 298.7,-957.61 362.25,-1033.19 368.01,-1040.04 374.9,-1046.65 381.82,-1052.6"/>
<polygon fill="#eeeeee" stroke="#eeeeee" points="379.38,-1055.13 389.33,-1058.78 383.83,-1049.72 379.38,-1055.13"/>
</g>
<!-- resources_loader.cpp&#45;&gt;resources_loader.hpp -->
<g id="edge48" class="edge">
<title>resources_loader.cpp&#45;&gt;resources_loader.hpp</title>
<path fill="none" stroke="#eeeeee" d="M235.05,-769.79C258.64,-737.06 310.73,-667.29 362.25,-615.19 368.93,-608.44 376.55,-601.64 383.92,-595.45"/>
<polygon fill="#eeeeee" stroke="#eeeeee" points="385.71,-598.51 391.22,-589.46 381.27,-593.1 385.71,-598.51"/>
</g>
<!-- resources_loader.cpp&#45;&gt;format -->
<g id="edge46" class="edge">
<title>resources_loader.cpp&#45;&gt;format</title>
<path fill="none" stroke="#eeeeee" d="M271.84,-769.75C305.42,-757.32 348.99,-741.19 379.5,-729.89"/>
<polygon fill="#eeeeee" stroke="#eeeeee" points="380.52,-733.25 388.69,-726.49 378.09,-726.68 380.52,-733.25"/>
</g>
<!-- resources_loader.cpp&#45;&gt;fstream -->
<g id="edge51" class="edge">
<title>resources_loader.cpp&#45;&gt;fstream</title>
<path fill="none" stroke="#eeeeee" d="M237.9,-770C261.82,-744.17 309.88,-698.02 362.25,-680.19 408.74,-664.37 428.34,-659.22 472.75,-680.19 530.77,-707.6 571.93,-774.29 591.74,-812.69"/>
<polygon fill="#eeeeee" stroke="#eeeeee" points="588.48,-813.99 596.08,-821.36 594.74,-810.85 588.48,-813.99"/>
</g>
<!-- resources_loader.cpp&#45;&gt;iostream -->
<g id="edge50" class="edge">
<title>resources_loader.cpp&#45;&gt;iostream</title>
<path fill="none" stroke="#eeeeee" d="M229.48,-806.42C246.42,-844.92 291.77,-933.76 362.25,-968.19 428.54,-1000.58 517.67,-988.7 567.46,-977.93"/>
<polygon fill="#eeeeee" stroke="#eeeeee" points="568.19,-981.35 577.16,-975.72 566.64,-974.53 568.19,-981.35"/>
</g>
<!-- document.h -->
<g id="node35" class="node">
<title>document.h</title>
<polygon fill="#76abae" stroke="black" points="449.5,-806.19 385.5,-806.19 385.5,-770.19 449.5,-770.19 449.5,-806.19"/>
<text text-anchor="middle" x="417.5" y="-784.32" font-family="Times New Roman,serif" font-size="10.00">document.h</text>
</g>
<!-- resources_loader.cpp&#45;&gt;document.h -->
<g id="edge45" class="edge">
<title>resources_loader.cpp&#45;&gt;document.h</title>
<path fill="none" stroke="#eeeeee" d="M272.09,-788.19C303.59,-788.19 343.8,-788.19 373.78,-788.19"/>
<polygon fill="#eeeeee" stroke="#eeeeee" points="373.63,-791.7 383.63,-788.2 373.63,-784.7 373.63,-791.7"/>
</g>
<!-- sstream -->
<g id="node36" class="node">
<title>sstream</title>
<polygon fill="#76abae" stroke="black" points="444.5,-878.19 390.5,-878.19 390.5,-842.19 444.5,-842.19 444.5,-878.19"/>
<text text-anchor="middle" x="417.5" y="-856.32" font-family="Times New Roman,serif" font-size="10.00">sstream</text>
</g>
<!-- resources_loader.cpp&#45;&gt;sstream -->
<g id="edge47" class="edge">
<title>resources_loader.cpp&#45;&gt;sstream</title>
<path fill="none" stroke="#eeeeee" d="M271.84,-806.64C305.42,-819.07 348.99,-835.2 379.5,-846.5"/>
<polygon fill="#eeeeee" stroke="#eeeeee" points="378.09,-849.71 388.69,-849.9 380.52,-843.14 378.09,-849.71"/>
</g>
<!-- resource_container.cpp -->
<g id="node37" class="node">
<title>resource_container.cpp</title>
<polygon fill="#76abae" stroke="black" points="276.25,-1096.19 165.75,-1096.19 165.75,-1060.19 276.25,-1060.19 276.25,-1096.19"/>
<text text-anchor="middle" x="221" y="-1074.32" font-family="Times New Roman,serif" font-size="10.00">resource_container.cpp</text>
</g>
<!-- resource_container.cpp&#45;&gt;logger.hpp -->
<g id="edge53" class="edge">
<title>resource_container.cpp&#45;&gt;logger.hpp</title>
<path fill="none" stroke="#eeeeee" d="M276.7,-1078.19C308.1,-1078.19 346.88,-1078.19 375.62,-1078.19"/>
<polygon fill="#eeeeee" stroke="#eeeeee" points="375.37,-1081.7 385.37,-1078.2 375.37,-1074.7 375.37,-1081.7"/>
</g>
<!-- resource_container.cpp&#45;&gt;format -->
<g id="edge55" class="edge">
<title>resource_container.cpp&#45;&gt;format</title>
<path fill="none" stroke="#eeeeee" d="M225.93,-1060.02C238.08,-1007.26 279.33,-851.52 362.25,-752.19 367.48,-745.93 374.07,-740.34 380.85,-735.53"/>
<polygon fill="#eeeeee" stroke="#eeeeee" points="382.37,-738.72 388.82,-730.31 378.53,-732.87 382.37,-738.72"/>
</g>
<!-- resource_container.cpp&#45;&gt;resource_container.hpp -->
<g id="edge54" class="edge">
<title>resource_container.cpp&#45;&gt;resource_container.hpp</title>
<path fill="none" stroke="#eeeeee" d="M276.67,-1095.63C302.35,-1102.94 333.57,-1110.57 362.25,-1114.19 499.53,-1131.53 562.71,-1108.62 653.5,-1004.19 733.12,-912.62 773.45,-769.09 787.83,-707.68"/>
<polygon fill="#eeeeee" stroke="#eeeeee" points="791.22,-708.53 790.03,-698 784.4,-706.98 791.22,-708.53"/>
</g>
<!-- cpp_lua_functions.cpp -->
<g id="node38" class="node">
<title>cpp_lua_functions.cpp</title>
<polygon fill="#76abae" stroke="black" points="275.88,-42.19 166.12,-42.19 166.12,-6.19 275.88,-6.19 275.88,-42.19"/>
<text text-anchor="middle" x="221" y="-20.32" font-family="Times New Roman,serif" font-size="10.00">cpp_lua_functions.cpp</text>
</g>
<!-- cpp_lua_functions.cpp&#45;&gt;lua.hpp -->
<g id="edge56" class="edge">
<title>cpp_lua_functions.cpp&#45;&gt;lua.hpp</title>
<path fill="none" stroke="#eeeeee" d="M276.02,-17.67C327.28,-13 406.16,-9.8 472.75,-24.19 591.08,-49.78 709.92,-136.3 763.97,-179.79"/>
<polygon fill="#eeeeee" stroke="#eeeeee" points="761.55,-182.33 771.51,-185.93 765.97,-176.9 761.55,-182.33"/>
</g>
<!-- cpp_lua_functions.cpp&#45;&gt;graphic.hpp -->
<g id="edge58" class="edge">
<title>cpp_lua_functions.cpp&#45;&gt;graphic.hpp</title>
<path fill="none" stroke="#eeeeee" d="M276.11,-15.13C302.08,-11.23 333.69,-7.12 362.25,-5.19 492.55,3.59 532.64,5.3 653.5,-44.19 749.55,-83.53 777.19,-95.98 850.75,-169.19 909.58,-227.75 956.24,-315.14 977.88,-359.76"/>
<polygon fill="#eeeeee" stroke="#eeeeee" points="974.59,-361 982.06,-368.52 980.91,-357.99 974.59,-361"/>
</g>
<!-- cpp_lua_functions.cpp&#45;&gt;cpp_lua_functions.hpp -->
<g id="edge57" class="edge">
<title>cpp_lua_functions.cpp&#45;&gt;cpp_lua_functions.hpp</title>
<path fill="none" stroke="#eeeeee" d="M276.18,-34.22C299.27,-38.5 326.43,-43.52 350.67,-48.01"/>
<polygon fill="#eeeeee" stroke="#eeeeee" points="349.98,-51.44 360.45,-49.82 351.25,-44.56 349.98,-51.44"/>
</g>
<!-- cpp_lua_functions.cpp&#45;&gt;LuaBridge.h -->
<g id="edge59" class="edge">
<title>cpp_lua_functions.cpp&#45;&gt;LuaBridge.h</title>
<path fill="none" stroke="#eeeeee" d="M254.99,-42.52C287.79,-60.72 338.22,-88.73 373.99,-108.59"/>
<polygon fill="#eeeeee" stroke="#eeeeee" points="371.9,-111.44 382.35,-113.23 375.3,-105.32 371.9,-111.44"/>
</g>
</g>
</svg>
