<?xml version="1.0" encoding="UTF-8" standalone="no"?>
<!DOCTYPE svg PUBLIC "-//W3C//DTD SVG 1.1//EN"
 "http://www.w3.org/Graphics/SVG/1.1/DTD/svg11.dtd">
<!-- Generated by graphviz version 12.2.1 (20241206.2353)
 -->
<!-- Title: IncludeHierarchy Pages: 1 -->
<svg width="1252pt" height="1540pt"
 viewBox="0.00 0.00 1252.25 1539.98" xmlns="http://www.w3.org/2000/svg" xmlns:xlink="http://www.w3.org/1999/xlink">
<g id="graph0" class="graph" transform="scale(1 1) rotate(0) translate(4 1535.98)">
<title>IncludeHierarchy</title>
<polygon fill="#222831" stroke="none" points="-4,4 -4,-1535.98 1248.25,-1535.98 1248.25,4 -4,4"/>
<!-- application.cpp -->
<g id="node1" class="node">
<title>application.cpp</title>
<polygon fill="#76abae" stroke="black" points="79.75,-946 0,-946 0,-910 79.75,-910 79.75,-946"/>
<text text-anchor="middle" x="39.88" y="-924.12" font-family="Times New Roman,serif" font-size="10.00">application.cpp</text>
</g>
<!-- logger.hpp -->
<g id="node2" class="node">
<title>logger.hpp</title>
<polygon fill="#76abae" stroke="black" points="447.62,-544 387.38,-544 387.38,-508 447.62,-508 447.62,-544"/>
<text text-anchor="middle" x="417.5" y="-522.12" font-family="Times New Roman,serif" font-size="10.00">logger.hpp</text>
</g>
<!-- application.cpp&#45;&gt;logger.hpp -->
<g id="edge1" class="edge">
<title>application.cpp&#45;&gt;logger.hpp</title>
<path fill="none" stroke="#eeeeee" d="M64.25,-909.87C69.92,-904.59 75.55,-898.49 79.75,-892 144.75,-791.6 85.13,-725.35 165.75,-637 222.67,-574.62 321.1,-545.39 376.18,-533.33"/>
<polygon fill="#eeeeee" stroke="#eeeeee" points="376.7,-536.79 385.77,-531.32 375.26,-529.94 376.7,-536.79"/>
</g>
<!-- application.hpp -->
<g id="node3" class="node">
<title>application.hpp</title>
<polygon fill="#76abae" stroke="black" points="261.25,-910 180.75,-910 180.75,-874 261.25,-874 261.25,-910"/>
<text text-anchor="middle" x="221" y="-888.12" font-family="Times New Roman,serif" font-size="10.00">application.hpp</text>
</g>
<!-- application.cpp&#45;&gt;application.hpp -->
<g id="edge2" class="edge">
<title>application.cpp&#45;&gt;application.hpp</title>
<path fill="none" stroke="#eeeeee" d="M80.18,-920.1C106.34,-914.84 140.96,-907.89 169.2,-902.21"/>
<polygon fill="#eeeeee" stroke="#eeeeee" points="169.87,-905.64 178.99,-900.24 168.5,-898.78 169.87,-905.64"/>
</g>
<!-- script.hpp -->
<g id="node4" class="node">
<title>script.hpp</title>
<polygon fill="#76abae" stroke="black" points="662.88,-1487 606.38,-1487 606.38,-1451 662.88,-1451 662.88,-1487"/>
<text text-anchor="middle" x="634.62" y="-1465.12" font-family="Times New Roman,serif" font-size="10.00">script.hpp</text>
</g>
<!-- application.cpp&#45;&gt;script.hpp -->
<g id="edge3" class="edge">
<title>application.cpp&#45;&gt;script.hpp</title>
<path fill="none" stroke="#eeeeee" d="M40.79,-946.05C41.39,-1013.52 51.79,-1254.54 165.75,-1401 254.66,-1515.27 329.09,-1528.02 472.75,-1510 515.47,-1504.64 563.12,-1491.58 595.39,-1481.62"/>
<polygon fill="#eeeeee" stroke="#eeeeee" points="596.19,-1485.04 604.69,-1478.7 594.1,-1478.36 596.19,-1485.04"/>
</g>
<!-- string -->
<g id="node17" class="node">
<title>string</title>
<polygon fill="#76abae" stroke="black" points="1244.25,-779 1190.25,-779 1190.25,-743 1244.25,-743 1244.25,-779"/>
<text text-anchor="middle" x="1217.25" y="-757.12" font-family="Times New Roman,serif" font-size="10.00">string</text>
</g>
<!-- logger.hpp&#45;&gt;string -->
<g id="edge34" class="edge">
<title>logger.hpp&#45;&gt;string</title>
<path fill="none" stroke="#eeeeee" d="M447.84,-534.64C570.6,-570.81 1043.01,-709.97 1179.26,-750.1"/>
<polygon fill="#eeeeee" stroke="#eeeeee" points="1177.91,-753.35 1188.49,-752.82 1179.89,-746.64 1177.91,-753.35"/>
</g>
<!-- fstream -->
<g id="node28" class="node">
<title>fstream</title>
<polygon fill="#76abae" stroke="black" points="661.62,-472 607.62,-472 607.62,-436 661.62,-436 661.62,-472"/>
<text text-anchor="middle" x="634.62" y="-450.12" font-family="Times New Roman,serif" font-size="10.00">fstream</text>
</g>
<!-- logger.hpp&#45;&gt;fstream -->
<g id="edge32" class="edge">
<title>logger.hpp&#45;&gt;fstream</title>
<path fill="none" stroke="#eeeeee" d="M447.96,-516.14C486.54,-503.23 554.2,-480.58 596.32,-466.49"/>
<polygon fill="#eeeeee" stroke="#eeeeee" points="597.41,-469.81 605.78,-463.32 595.19,-463.17 597.41,-469.81"/>
</g>
<!-- iostream -->
<g id="node29" class="node">
<title>iostream</title>
<polygon fill="#76abae" stroke="black" points="661.62,-836 607.62,-836 607.62,-800 661.62,-800 661.62,-836"/>
<text text-anchor="middle" x="634.62" y="-814.12" font-family="Times New Roman,serif" font-size="10.00">iostream</text>
</g>
<!-- logger.hpp&#45;&gt;iostream -->
<g id="edge33" class="edge">
<title>logger.hpp&#45;&gt;iostream</title>
<path fill="none" stroke="#eeeeee" d="M445.76,-544.33C455.26,-551.75 465.37,-560.93 472.75,-571 532.63,-652.67 489.37,-708.24 558.75,-782 569.12,-793.03 583.57,-801.06 597.02,-806.71"/>
<polygon fill="#eeeeee" stroke="#eeeeee" points="595.48,-809.87 606.07,-810.19 597.99,-803.33 595.48,-809.87"/>
</g>
<!-- renderer.hpp -->
<g id="node5" class="node">
<title>renderer.hpp</title>
<polygon fill="#76abae" stroke="black" points="668.12,-982 601.12,-982 601.12,-946 668.12,-946 668.12,-982"/>
<text text-anchor="middle" x="634.62" y="-960.12" font-family="Times New Roman,serif" font-size="10.00">renderer.hpp</text>
</g>
<!-- application.hpp&#45;&gt;renderer.hpp -->
<g id="edge4" class="edge">
<title>application.hpp&#45;&gt;renderer.hpp</title>
<path fill="none" stroke="#eeeeee" d="M261.61,-903.52C289.55,-911.31 327.95,-921.35 362.25,-928 441.8,-943.43 535.75,-954.27 589.64,-959.8"/>
<polygon fill="#eeeeee" stroke="#eeeeee" points="589.03,-963.25 599.33,-960.78 589.73,-956.29 589.03,-963.25"/>
</g>
<!-- resources_loader.hpp -->
<g id="node6" class="node">
<title>resources_loader.hpp</title>
<polygon fill="#76abae" stroke="black" points="468.62,-472 366.38,-472 366.38,-436 468.62,-436 468.62,-472"/>
<text text-anchor="middle" x="417.5" y="-450.12" font-family="Times New Roman,serif" font-size="10.00">resources_loader.hpp</text>
</g>
<!-- application.hpp&#45;&gt;resources_loader.hpp -->
<g id="edge5" class="edge">
<title>application.hpp&#45;&gt;resources_loader.hpp</title>
<path fill="none" stroke="#eeeeee" d="M227.66,-873.57C250.68,-799.04 337.17,-522.29 362.25,-490 365.17,-486.23 368.61,-482.73 372.31,-479.51"/>
<polygon fill="#eeeeee" stroke="#eeeeee" points="374.36,-482.34 380.1,-473.43 370.06,-476.82 374.36,-482.34"/>
</g>
<!-- input_manager.hpp -->
<g id="node7" class="node">
<title>input_manager.hpp</title>
<polygon fill="#76abae" stroke="black" points="899.88,-799 804.38,-799 804.38,-763 899.88,-763 899.88,-799"/>
<text text-anchor="middle" x="852.12" y="-777.12" font-family="Times New Roman,serif" font-size="10.00">input_manager.hpp</text>
</g>
<!-- application.hpp&#45;&gt;input_manager.hpp -->
<g id="edge6" class="edge">
<title>application.hpp&#45;&gt;input_manager.hpp</title>
<path fill="none" stroke="#eeeeee" d="M261.69,-879.03C289.5,-870.63 327.72,-860.46 362.25,-856 515.75,-836.17 560.24,-891.13 710.5,-854 748.67,-844.57 788.06,-822.91 815.41,-805.62"/>
<polygon fill="#eeeeee" stroke="#eeeeee" points="817.14,-808.66 823.64,-800.3 813.34,-802.78 817.14,-808.66"/>
</g>
<!-- scripts_manager.hpp -->
<g id="node8" class="node">
<title>scripts_manager.hpp</title>
<polygon fill="#76abae" stroke="black" points="467.5,-1056 367.5,-1056 367.5,-1020 467.5,-1020 467.5,-1056"/>
<text text-anchor="middle" x="417.5" y="-1034.12" font-family="Times New Roman,serif" font-size="10.00">scripts_manager.hpp</text>
</g>
<!-- application.hpp&#45;&gt;scripts_manager.hpp -->
<g id="edge7" class="edge">
<title>application.hpp&#45;&gt;scripts_manager.hpp</title>
<path fill="none" stroke="#eeeeee" d="M246.63,-910.49C281.27,-936.49 344.46,-983.92 383.24,-1013.03"/>
<polygon fill="#eeeeee" stroke="#eeeeee" points="380.76,-1015.55 390.86,-1018.75 384.96,-1009.95 380.76,-1015.55"/>
</g>
<!-- script.hpp&#45;&gt;string -->
<g id="edge28" class="edge">
<title>script.hpp&#45;&gt;string</title>
<path fill="none" stroke="#eeeeee" d="M663.22,-1455.47C744.05,-1414.39 982.29,-1282.85 1104.25,-1103 1173.45,-1000.95 1202.52,-853 1212.2,-790.56"/>
<polygon fill="#eeeeee" stroke="#eeeeee" points="1215.65,-791.16 1213.67,-780.75 1208.73,-790.13 1215.65,-791.16"/>
</g>
<!-- entt.hpp -->
<g id="node10" class="node">
<title>entt.hpp</title>
<polygon fill="#76abae" stroke="black" points="879.12,-1018 825.12,-1018 825.12,-982 879.12,-982 879.12,-1018"/>
<text text-anchor="middle" x="852.12" y="-996.12" font-family="Times New Roman,serif" font-size="10.00">entt.hpp</text>
</g>
<!-- renderer.hpp&#45;&gt;entt.hpp -->
<g id="edge48" class="edge">
<title>renderer.hpp&#45;&gt;entt.hpp</title>
<path fill="none" stroke="#eeeeee" d="M668.35,-969.47C707.45,-976 772.69,-986.9 813.74,-993.75"/>
<polygon fill="#eeeeee" stroke="#eeeeee" points="812.95,-997.17 823.39,-995.37 814.1,-990.27 812.95,-997.17"/>
</g>
<!-- resource_container.hpp -->
<g id="node11" class="node">
<title>resource_container.hpp</title>
<polygon fill="#76abae" stroke="black" points="907.75,-560 796.5,-560 796.5,-524 907.75,-524 907.75,-560"/>
<text text-anchor="middle" x="852.12" y="-538.12" font-family="Times New Roman,serif" font-size="10.00">resource_container.hpp</text>
</g>
<!-- renderer.hpp&#45;&gt;resource_container.hpp -->
<g id="edge49" class="edge">
<title>renderer.hpp&#45;&gt;resource_container.hpp</title>
<path fill="none" stroke="#eeeeee" d="M649.65,-945.56C665.53,-924.21 691.65,-887.66 710.5,-854 766.59,-753.85 818.11,-627.18 840.01,-571.04"/>
<polygon fill="#eeeeee" stroke="#eeeeee" points="843.21,-572.48 843.56,-561.89 836.68,-569.95 843.21,-572.48"/>
</g>
<!-- camera.hpp -->
<g id="node13" class="node">
<title>camera.hpp</title>
<polygon fill="#76abae" stroke="black" points="883.38,-1127 820.88,-1127 820.88,-1091 883.38,-1091 883.38,-1127"/>
<text text-anchor="middle" x="852.12" y="-1105.12" font-family="Times New Roman,serif" font-size="10.00">camera.hpp</text>
</g>
<!-- renderer.hpp&#45;&gt;camera.hpp -->
<g id="edge50" class="edge">
<title>renderer.hpp&#45;&gt;camera.hpp</title>
<path fill="none" stroke="#eeeeee" d="M668.48,-977.97C681.85,-984.12 697.25,-991.81 710.5,-1000 751.1,-1025.1 793.93,-1059.62 821.5,-1083.03"/>
<polygon fill="#eeeeee" stroke="#eeeeee" points="819.21,-1085.69 829.09,-1089.53 823.77,-1080.37 819.21,-1085.69"/>
</g>
<!-- resources_loader.hpp&#45;&gt;resource_container.hpp -->
<g id="edge61" class="edge">
<title>resources_loader.hpp&#45;&gt;resource_container.hpp</title>
<path fill="none" stroke="#eeeeee" d="M463.85,-435.52C522.65,-414.42 627.48,-386.63 710.5,-418 761.55,-437.29 806.05,-484.5 830.68,-514.78"/>
<polygon fill="#eeeeee" stroke="#eeeeee" points="827.77,-516.75 836.73,-522.4 833.25,-512.4 827.77,-516.75"/>
</g>
<!-- startup_options.hpp -->
<g id="node41" class="node">
<title>startup_options.hpp</title>
<polygon fill="#76abae" stroke="black" points="683.5,-544 585.75,-544 585.75,-508 683.5,-508 683.5,-544"/>
<text text-anchor="middle" x="634.62" y="-522.12" font-family="Times New Roman,serif" font-size="10.00">startup_options.hpp</text>
</g>
<!-- resources_loader.hpp&#45;&gt;startup_options.hpp -->
<g id="edge60" class="edge">
<title>resources_loader.hpp&#45;&gt;startup_options.hpp</title>
<path fill="none" stroke="#eeeeee" d="M468.94,-470.88C500.51,-481.45 541.34,-495.11 574.45,-506.19"/>
<polygon fill="#eeeeee" stroke="#eeeeee" points="573.32,-509.51 583.92,-509.36 575.54,-502.87 573.32,-509.51"/>
</g>
<!-- map -->
<g id="node16" class="node">
<title>map</title>
<polygon fill="#76abae" stroke="black" points="1076,-632 1022,-632 1022,-596 1076,-596 1076,-632"/>
<text text-anchor="middle" x="1049" y="-610.12" font-family="Times New Roman,serif" font-size="10.00">map</text>
</g>
<!-- input_manager.hpp&#45;&gt;map -->
<g id="edge16" class="edge">
<title>input_manager.hpp&#45;&gt;map</title>
<path fill="none" stroke="#eeeeee" d="M874.35,-762.81C909.04,-733.09 977.98,-674.01 1017.77,-639.91"/>
<polygon fill="#eeeeee" stroke="#eeeeee" points="1020.04,-642.57 1025.35,-633.41 1015.48,-637.26 1020.04,-642.57"/>
</g>
<!-- input_manager.hpp&#45;&gt;string -->
<g id="edge17" class="edge">
<title>input_manager.hpp&#45;&gt;string</title>
<path fill="none" stroke="#eeeeee" d="M900.07,-786.79C950.66,-792.03 1033.47,-797.71 1104.25,-789 1129.54,-785.89 1157.34,-778.96 1178.91,-772.77"/>
<polygon fill="#eeeeee" stroke="#eeeeee" points="1179.84,-776.15 1188.44,-769.96 1177.86,-769.44 1179.84,-776.15"/>
</g>
<!-- SDL.h -->
<g id="node18" class="node">
<title>SDL.h</title>
<polygon fill="#76abae" stroke="black" points="1244.25,-632 1190.25,-632 1190.25,-596 1244.25,-596 1244.25,-632"/>
<text text-anchor="middle" x="1217.25" y="-610.12" font-family="Times New Roman,serif" font-size="10.00">SDL.h</text>
</g>
<!-- input_manager.hpp&#45;&gt;SDL.h -->
<g id="edge18" class="edge">
<title>input_manager.hpp&#45;&gt;SDL.h</title>
<path fill="none" stroke="#eeeeee" d="M893.02,-762.65C964.03,-730 1111.27,-662.28 1179.75,-630.79"/>
<polygon fill="#eeeeee" stroke="#eeeeee" points="1181.04,-634.04 1188.67,-626.69 1178.12,-627.68 1181.04,-634.04"/>
</g>
<!-- ScriptsExecutionEnviroment.hpp -->
<g id="node9" class="node">
<title>ScriptsExecutionEnviroment.hpp</title>
<polygon fill="#76abae" stroke="black" points="710.5,-1054 558.75,-1054 558.75,-1018 710.5,-1018 710.5,-1054"/>
<text text-anchor="middle" x="634.62" y="-1032.12" font-family="Times New Roman,serif" font-size="10.00">ScriptsExecutionEnviroment.hpp</text>
</g>
<!-- scripts_manager.hpp&#45;&gt;ScriptsExecutionEnviroment.hpp -->
<g id="edge14" class="edge">
<title>scripts_manager.hpp&#45;&gt;ScriptsExecutionEnviroment.hpp</title>
<path fill="none" stroke="#eeeeee" d="M467.85,-1037.54C491.3,-1037.32 520.02,-1037.06 546.94,-1036.81"/>
<polygon fill="#eeeeee" stroke="#eeeeee" points="546.86,-1040.31 556.82,-1036.71 546.79,-1033.31 546.86,-1040.31"/>
</g>
<!-- compiled_script.hpp -->
<g id="node15" class="node">
<title>compiled_script.hpp</title>
<polygon fill="#76abae" stroke="black" points="684.62,-1127 584.62,-1127 584.62,-1091 684.62,-1091 684.62,-1127"/>
<text text-anchor="middle" x="634.62" y="-1105.12" font-family="Times New Roman,serif" font-size="10.00">compiled_script.hpp</text>
</g>
<!-- scripts_manager.hpp&#45;&gt;compiled_script.hpp -->
<g id="edge15" class="edge">
<title>scripts_manager.hpp&#45;&gt;compiled_script.hpp</title>
<path fill="none" stroke="#eeeeee" d="M467.85,-1054.29C499.31,-1064.67 540.26,-1078.19 573.6,-1089.19"/>
<polygon fill="#eeeeee" stroke="#eeeeee" points="572.1,-1092.38 582.69,-1092.19 574.29,-1085.73 572.1,-1092.38"/>
</g>
<!-- ScriptsExecutionEnviroment.hpp&#45;&gt;input_manager.hpp -->
<g id="edge10" class="edge">
<title>ScriptsExecutionEnviroment.hpp&#45;&gt;input_manager.hpp</title>
<path fill="none" stroke="#eeeeee" d="M684.01,-1017.6C693.39,-1012.74 702.72,-1006.88 710.5,-1000 773.04,-944.7 818.56,-855.14 839.05,-809.59"/>
<polygon fill="#eeeeee" stroke="#eeeeee" points="842.16,-811.21 842.99,-800.64 835.75,-808.38 842.16,-811.21"/>
</g>
<!-- ScriptsExecutionEnviroment.hpp&#45;&gt;entt.hpp -->
<g id="edge8" class="edge">
<title>ScriptsExecutionEnviroment.hpp&#45;&gt;entt.hpp</title>
<path fill="none" stroke="#eeeeee" d="M711,-1023.41C745.77,-1017.6 785.51,-1010.96 813.77,-1006.24"/>
<polygon fill="#eeeeee" stroke="#eeeeee" points="813.97,-1009.76 823.25,-1004.66 812.81,-1002.85 813.97,-1009.76"/>
</g>
<!-- ScriptsExecutionEnviroment.hpp&#45;&gt;resource_container.hpp -->
<g id="edge9" class="edge">
<title>ScriptsExecutionEnviroment.hpp&#45;&gt;resource_container.hpp</title>
<path fill="none" stroke="#eeeeee" d="M688.26,-1017.65C696.55,-1012.93 704.39,-1007.11 710.5,-1000 725.13,-982.99 814.96,-669.41 842.87,-571.17"/>
<polygon fill="#eeeeee" stroke="#eeeeee" points="846.18,-572.32 845.54,-561.75 839.44,-570.41 846.18,-572.32"/>
</g>
<!-- resource_container.hpp&#45;&gt;map -->
<g id="edge37" class="edge">
<title>resource_container.hpp&#45;&gt;map</title>
<path fill="none" stroke="#eeeeee" d="M903.06,-560.45C936.7,-572.88 980.36,-589.01 1010.93,-600.3"/>
<polygon fill="#eeeeee" stroke="#eeeeee" points="1009.54,-603.52 1020.14,-603.7 1011.97,-596.96 1009.54,-603.52"/>
</g>
<!-- uncompiled_script.hpp -->
<g id="node30" class="node">
<title>uncompiled_script.hpp</title>
<polygon fill="#76abae" stroke="black" points="1104.25,-560 993.75,-560 993.75,-524 1104.25,-524 1104.25,-560"/>
<text text-anchor="middle" x="1049" y="-538.12" font-family="Times New Roman,serif" font-size="10.00">uncompiled_script.hpp</text>
</g>
<!-- resource_container.hpp&#45;&gt;uncompiled_script.hpp -->
<g id="edge41" class="edge">
<title>resource_container.hpp&#45;&gt;uncompiled_script.hpp</title>
<path fill="none" stroke="#eeeeee" d="M908.19,-542C931.11,-542 957.92,-542 981.9,-542"/>
<polygon fill="#eeeeee" stroke="#eeeeee" points="981.9,-545.5 991.9,-542 981.9,-538.5 981.9,-545.5"/>
</g>
<!-- memory -->
<g id="node32" class="node">
<title>memory</title>
<polygon fill="#76abae" stroke="black" points="1076,-488 1022,-488 1022,-452 1076,-452 1076,-488"/>
<text text-anchor="middle" x="1049" y="-466.12" font-family="Times New Roman,serif" font-size="10.00">memory</text>
</g>
<!-- resource_container.hpp&#45;&gt;memory -->
<g id="edge38" class="edge">
<title>resource_container.hpp&#45;&gt;memory</title>
<path fill="none" stroke="#eeeeee" d="M903.06,-523.55C936.7,-511.12 980.36,-494.99 1010.93,-483.7"/>
<polygon fill="#eeeeee" stroke="#eeeeee" points="1011.97,-487.04 1020.14,-480.3 1009.54,-480.48 1011.97,-487.04"/>
</g>
<!-- queue -->
<g id="node33" class="node">
<title>queue</title>
<polygon fill="#76abae" stroke="black" points="1076,-416 1022,-416 1022,-380 1076,-380 1076,-416"/>
<text text-anchor="middle" x="1049" y="-394.12" font-family="Times New Roman,serif" font-size="10.00">queue</text>
</g>
<!-- resource_container.hpp&#45;&gt;queue -->
<g id="edge39" class="edge">
<title>resource_container.hpp&#45;&gt;queue</title>
<path fill="none" stroke="#eeeeee" d="M876.14,-523.54C903.69,-501.62 951.42,-464.24 993.75,-434 999.6,-429.82 1005.9,-425.49 1012.06,-421.35"/>
<polygon fill="#eeeeee" stroke="#eeeeee" points="1013.89,-424.33 1020.28,-415.87 1010.01,-418.5 1013.89,-424.33"/>
</g>
<!-- image.hpp -->
<g id="node34" class="node">
<title>image.hpp</title>
<polygon fill="#76abae" stroke="black" points="1078.38,-344 1019.62,-344 1019.62,-308 1078.38,-308 1078.38,-344"/>
<text text-anchor="middle" x="1049" y="-322.12" font-family="Times New Roman,serif" font-size="10.00">image.hpp</text>
</g>
<!-- resource_container.hpp&#45;&gt;image.hpp -->
<g id="edge40" class="edge">
<title>resource_container.hpp&#45;&gt;image.hpp</title>
<path fill="none" stroke="#eeeeee" d="M864.62,-523.57C886.71,-489.11 937.87,-413.72 993.75,-362 998.64,-357.47 1004.15,-353.13 1009.74,-349.11"/>
<polygon fill="#eeeeee" stroke="#eeeeee" points="1011.6,-352.08 1017.88,-343.55 1007.65,-346.3 1011.6,-352.08"/>
</g>
<!-- components.hpp -->
<g id="node12" class="node">
<title>components.hpp</title>
<polygon fill="#76abae" stroke="black" points="459.25,-1492 375.75,-1492 375.75,-1456 459.25,-1456 459.25,-1492"/>
<text text-anchor="middle" x="417.5" y="-1470.12" font-family="Times New Roman,serif" font-size="10.00">components.hpp</text>
</g>
<!-- components.hpp&#45;&gt;script.hpp -->
<g id="edge13" class="edge">
<title>components.hpp&#45;&gt;script.hpp</title>
<path fill="none" stroke="#eeeeee" d="M459.72,-1473.04C498.75,-1472.13 556.9,-1470.78 595.04,-1469.9"/>
<polygon fill="#eeeeee" stroke="#eeeeee" points="594.76,-1473.4 604.68,-1469.67 594.6,-1466.41 594.76,-1473.4"/>
</g>
<!-- components.hpp&#45;&gt;camera.hpp -->
<g id="edge11" class="edge">
<title>components.hpp&#45;&gt;camera.hpp</title>
<path fill="none" stroke="#eeeeee" d="M459.73,-1458.66C520.93,-1434.18 636.52,-1381.14 710.5,-1305 766.48,-1247.38 742.59,-1205.57 796.5,-1146 800.88,-1141.16 806.02,-1136.64 811.36,-1132.54"/>
<polygon fill="#eeeeee" stroke="#eeeeee" points="813.12,-1135.59 819.22,-1126.92 809.05,-1129.89 813.12,-1135.59"/>
</g>
<!-- graphic.hpp -->
<g id="node14" class="node">
<title>graphic.hpp</title>
<polygon fill="#76abae" stroke="black" points="667,-1287 602.25,-1287 602.25,-1251 667,-1251 667,-1287"/>
<text text-anchor="middle" x="634.62" y="-1265.12" font-family="Times New Roman,serif" font-size="10.00">graphic.hpp</text>
</g>
<!-- components.hpp&#45;&gt;graphic.hpp -->
<g id="edge12" class="edge">
<title>components.hpp&#45;&gt;graphic.hpp</title>
<path fill="none" stroke="#eeeeee" d="M441.59,-1455.62C451.37,-1447.63 462.79,-1438.05 472.75,-1429 522.53,-1383.77 577.47,-1327.7 608.54,-1295.37"/>
<polygon fill="#eeeeee" stroke="#eeeeee" points="610.84,-1298.03 615.23,-1288.39 605.79,-1293.19 610.84,-1298.03"/>
</g>
<!-- graphic.hpp&#45;&gt;string -->
<g id="edge19" class="edge">
<title>graphic.hpp&#45;&gt;string</title>
<path fill="none" stroke="#eeeeee" d="M667.47,-1270.63C721.46,-1271.84 832.42,-1267.48 907.75,-1218 1075.31,-1107.94 1175.18,-872.11 1205.97,-789.95"/>
<polygon fill="#eeeeee" stroke="#eeeeee" points="1209.24,-791.2 1209.41,-780.61 1202.67,-788.78 1209.24,-791.2"/>
</g>
<!-- lua.hpp -->
<g id="node40" class="node">
<title>lua.hpp</title>
<polygon fill="#76abae" stroke="black" points="879.12,-1200 825.12,-1200 825.12,-1164 879.12,-1164 879.12,-1200"/>
<text text-anchor="middle" x="852.12" y="-1178.12" font-family="Times New Roman,serif" font-size="10.00">lua.hpp</text>
</g>
<!-- compiled_script.hpp&#45;&gt;lua.hpp -->
<g id="edge59" class="edge">
<title>compiled_script.hpp&#45;&gt;lua.hpp</title>
<path fill="none" stroke="#eeeeee" d="M685.07,-1125.75C724.31,-1139.04 778.32,-1157.34 813.95,-1169.41"/>
<polygon fill="#eeeeee" stroke="#eeeeee" points="812.81,-1172.71 823.4,-1172.61 815.05,-1166.08 812.81,-1172.71"/>
</g>
<!-- scripts_manager.cpp -->
<g id="node19" class="node">
<title>scripts_manager.cpp</title>
<polygon fill="#76abae" stroke="black" points="270.62,-1128 171.38,-1128 171.38,-1092 270.62,-1092 270.62,-1128"/>
<text text-anchor="middle" x="221" y="-1106.12" font-family="Times New Roman,serif" font-size="10.00">scripts_manager.cpp</text>
</g>
<!-- scripts_manager.cpp&#45;&gt;logger.hpp -->
<g id="edge22" class="edge">
<title>scripts_manager.cpp&#45;&gt;logger.hpp</title>
<path fill="none" stroke="#eeeeee" d="M228.14,-1091.56C256.18,-1007.36 372.16,-659.13 406.73,-555.33"/>
<polygon fill="#eeeeee" stroke="#eeeeee" points="410.04,-556.48 409.88,-545.88 403.4,-554.26 410.04,-556.48"/>
</g>
<!-- scripts_manager.cpp&#45;&gt;script.hpp -->
<g id="edge21" class="edge">
<title>scripts_manager.cpp&#45;&gt;script.hpp</title>
<path fill="none" stroke="#eeeeee" d="M244.97,-1128.44C272.46,-1150.33 320.08,-1187.69 362.25,-1218 410.25,-1252.49 427.99,-1253.4 472.75,-1292 528.12,-1339.75 583.43,-1405.55 612.57,-1441.98"/>
<polygon fill="#eeeeee" stroke="#eeeeee" points="609.49,-1443.74 618.45,-1449.39 614.98,-1439.39 609.49,-1443.74"/>
</g>
<!-- scripts_manager.cpp&#45;&gt;scripts_manager.hpp -->
<g id="edge20" class="edge">
<title>scripts_manager.cpp&#45;&gt;scripts_manager.hpp</title>
<path fill="none" stroke="#eeeeee" d="M271.08,-1091.83C297.01,-1082.23 329.05,-1070.37 356.46,-1060.23"/>
<polygon fill="#eeeeee" stroke="#eeeeee" points="357.51,-1063.57 365.68,-1056.81 355.08,-1057 357.51,-1063.57"/>
</g>
<!-- cpp_lua_functions.hpp -->
<g id="node20" class="node">
<title>cpp_lua_functions.hpp</title>
<polygon fill="#76abae" stroke="black" points="472.75,-1200 362.25,-1200 362.25,-1164 472.75,-1164 472.75,-1200"/>
<text text-anchor="middle" x="417.5" y="-1178.12" font-family="Times New Roman,serif" font-size="10.00">cpp_lua_functions.hpp</text>
</g>
<!-- scripts_manager.cpp&#45;&gt;cpp_lua_functions.hpp -->
<g id="edge23" class="edge">
<title>scripts_manager.cpp&#45;&gt;cpp_lua_functions.hpp</title>
<path fill="none" stroke="#eeeeee" d="M271.08,-1128.17C296.91,-1137.73 328.81,-1149.54 356.14,-1159.66"/>
<polygon fill="#eeeeee" stroke="#eeeeee" points="354.75,-1162.87 365.34,-1163.06 357.18,-1156.31 354.75,-1162.87"/>
</g>
<!-- format -->
<g id="node21" class="node">
<title>format</title>
<polygon fill="#76abae" stroke="black" points="444.5,-764 390.5,-764 390.5,-728 444.5,-728 444.5,-764"/>
<text text-anchor="middle" x="417.5" y="-742.12" font-family="Times New Roman,serif" font-size="10.00">format</text>
</g>
<!-- scripts_manager.cpp&#45;&gt;format -->
<g id="edge24" class="edge">
<title>scripts_manager.cpp&#45;&gt;format</title>
<path fill="none" stroke="#eeeeee" d="M231.78,-1091.7C263.43,-1032.46 363.26,-845.65 401.44,-774.18"/>
<polygon fill="#eeeeee" stroke="#eeeeee" points="404.48,-775.93 406.1,-765.46 398.3,-772.63 404.48,-775.93"/>
</g>
<!-- unordered_map -->
<g id="node22" class="node">
<title>unordered_map</title>
<polygon fill="#76abae" stroke="black" points="457.38,-1128 377.62,-1128 377.62,-1092 457.38,-1092 457.38,-1128"/>
<text text-anchor="middle" x="417.5" y="-1106.12" font-family="Times New Roman,serif" font-size="10.00">unordered_map</text>
</g>
<!-- scripts_manager.cpp&#45;&gt;unordered_map -->
<g id="edge25" class="edge">
<title>scripts_manager.cpp&#45;&gt;unordered_map</title>
<path fill="none" stroke="#eeeeee" d="M271.08,-1110C300.09,-1110 336.75,-1110 366,-1110"/>
<polygon fill="#eeeeee" stroke="#eeeeee" points="365.71,-1113.5 375.71,-1110 365.71,-1106.5 365.71,-1113.5"/>
</g>
<!-- LuaBridge.h -->
<g id="node23" class="node">
<title>LuaBridge.h</title>
<polygon fill="#76abae" stroke="black" points="451,-1346 384,-1346 384,-1310 451,-1310 451,-1346"/>
<text text-anchor="middle" x="417.5" y="-1324.12" font-family="Times New Roman,serif" font-size="10.00">LuaBridge.h</text>
</g>
<!-- scripts_manager.cpp&#45;&gt;LuaBridge.h -->
<g id="edge26" class="edge">
<title>scripts_manager.cpp&#45;&gt;LuaBridge.h</title>
<path fill="none" stroke="#eeeeee" d="M235.05,-1128.41C258.64,-1161.14 310.73,-1230.9 362.25,-1283 368.93,-1289.75 376.55,-1296.55 383.92,-1302.74"/>
<polygon fill="#eeeeee" stroke="#eeeeee" points="381.27,-1305.09 391.22,-1308.73 385.71,-1299.68 381.27,-1305.09"/>
</g>
<!-- cpp_lua_functions.hpp&#45;&gt;ScriptsExecutionEnviroment.hpp -->
<g id="edge69" class="edge">
<title>cpp_lua_functions.hpp&#45;&gt;ScriptsExecutionEnviroment.hpp</title>
<path fill="none" stroke="#eeeeee" d="M447.66,-1163.56C455.91,-1158.1 464.8,-1151.98 472.75,-1146 512.82,-1115.86 516.85,-1100.53 558.75,-1073 565.91,-1068.29 573.76,-1063.79 581.59,-1059.64"/>
<polygon fill="#eeeeee" stroke="#eeeeee" points="583.16,-1062.77 590.47,-1055.1 579.97,-1056.54 583.16,-1062.77"/>
</g>
<!-- cpp_lua_functions.hpp&#45;&gt;lua.hpp -->
<g id="edge70" class="edge">
<title>cpp_lua_functions.hpp&#45;&gt;lua.hpp</title>
<path fill="none" stroke="#eeeeee" d="M472.85,-1182C561.82,-1182 736.31,-1182 813.2,-1182"/>
<polygon fill="#eeeeee" stroke="#eeeeee" points="813.17,-1185.5 823.17,-1182 813.17,-1178.5 813.17,-1185.5"/>
</g>
<!-- input_manager.cpp -->
<g id="node24" class="node">
<title>input_manager.cpp</title>
<polygon fill="#76abae" stroke="black" points="682,-764 587.25,-764 587.25,-728 682,-728 682,-764"/>
<text text-anchor="middle" x="634.62" y="-742.12" font-family="Times New Roman,serif" font-size="10.00">input_manager.cpp</text>
</g>
<!-- input_manager.cpp&#45;&gt;input_manager.hpp -->
<g id="edge27" class="edge">
<title>input_manager.cpp&#45;&gt;input_manager.hpp</title>
<path fill="none" stroke="#eeeeee" d="M682.39,-753.59C714.89,-758.87 758.44,-765.95 793.15,-771.58"/>
<polygon fill="#eeeeee" stroke="#eeeeee" points="792.16,-774.97 802.59,-773.12 793.28,-768.06 792.16,-774.97"/>
</g>
<!-- logger.cpp -->
<g id="node25" class="node">
<title>logger.cpp</title>
<polygon fill="#76abae" stroke="black" points="250.75,-108 191.25,-108 191.25,-72 250.75,-72 250.75,-108"/>
<text text-anchor="middle" x="221" y="-86.12" font-family="Times New Roman,serif" font-size="10.00">logger.cpp</text>
</g>
<!-- logger.cpp&#45;&gt;logger.hpp -->
<g id="edge30" class="edge">
<title>logger.cpp&#45;&gt;logger.hpp</title>
<path fill="none" stroke="#eeeeee" d="M224.22,-108.3C232.36,-168.78 265.34,-365.4 362.25,-490 366.58,-495.56 372.01,-500.55 377.76,-504.91"/>
<polygon fill="#eeeeee" stroke="#eeeeee" points="375.48,-507.59 385.7,-510.39 379.45,-501.83 375.48,-507.59"/>
</g>
<!-- ctime -->
<g id="node26" class="node">
<title>ctime</title>
<polygon fill="#76abae" stroke="black" points="444.5,-36 390.5,-36 390.5,0 444.5,0 444.5,-36"/>
<text text-anchor="middle" x="417.5" y="-14.12" font-family="Times New Roman,serif" font-size="10.00">ctime</text>
</g>
<!-- logger.cpp&#45;&gt;ctime -->
<g id="edge29" class="edge">
<title>logger.cpp&#45;&gt;ctime</title>
<path fill="none" stroke="#eeeeee" d="M251.12,-79.22C285.46,-66.51 342.57,-45.37 379.88,-31.56"/>
<polygon fill="#eeeeee" stroke="#eeeeee" points="380.72,-34.98 388.88,-28.22 378.29,-28.41 380.72,-34.98"/>
</g>
<!-- chrono -->
<g id="node27" class="node">
<title>chrono</title>
<polygon fill="#76abae" stroke="black" points="444.5,-108 390.5,-108 390.5,-72 444.5,-72 444.5,-108"/>
<text text-anchor="middle" x="417.5" y="-86.12" font-family="Times New Roman,serif" font-size="10.00">chrono</text>
</g>
<!-- logger.cpp&#45;&gt;chrono -->
<g id="edge31" class="edge">
<title>logger.cpp&#45;&gt;chrono</title>
<path fill="none" stroke="#eeeeee" d="M251.12,-90C285.16,-90 341.59,-90 378.91,-90"/>
<polygon fill="#eeeeee" stroke="#eeeeee" points="378.79,-93.5 388.79,-90 378.79,-86.5 378.79,-93.5"/>
</g>
<!-- uncompiled_script.hpp&#45;&gt;string -->
<g id="edge36" class="edge">
<title>uncompiled_script.hpp&#45;&gt;string</title>
<path fill="none" stroke="#eeeeee" d="M1082.77,-560.42C1090.32,-565.53 1097.97,-571.49 1104.25,-578 1149.66,-625.11 1185.49,-693.73 1203.5,-732.16"/>
<polygon fill="#eeeeee" stroke="#eeeeee" points="1200.31,-733.61 1207.67,-741.23 1206.67,-730.69 1200.31,-733.61"/>
</g>
<!-- vector -->
<g id="node31" class="node">
<title>vector</title>
<polygon fill="#76abae" stroke="black" points="1244.25,-560 1190.25,-560 1190.25,-524 1244.25,-524 1244.25,-560"/>
<text text-anchor="middle" x="1217.25" y="-538.12" font-family="Times New Roman,serif" font-size="10.00">vector</text>
</g>
<!-- uncompiled_script.hpp&#45;&gt;vector -->
<g id="edge35" class="edge">
<title>uncompiled_script.hpp&#45;&gt;vector</title>
<path fill="none" stroke="#eeeeee" d="M1104.44,-542C1128.73,-542 1156.74,-542 1178.65,-542"/>
<polygon fill="#eeeeee" stroke="#eeeeee" points="1178.62,-545.5 1188.62,-542 1178.62,-538.5 1178.62,-545.5"/>
</g>
<!-- image.hpp&#45;&gt;string -->
<g id="edge44" class="edge">
<title>image.hpp&#45;&gt;string</title>
<path fill="none" stroke="#eeeeee" d="M1078.75,-339.8C1088.06,-345.52 1097.66,-352.95 1104.25,-362 1126.62,-392.73 1188.37,-644.58 1209.25,-731.58"/>
<polygon fill="#eeeeee" stroke="#eeeeee" points="1205.83,-732.34 1211.56,-741.25 1212.64,-730.71 1205.83,-732.34"/>
</g>
<!-- image.hpp&#45;&gt;SDL.h -->
<g id="edge43" class="edge">
<title>image.hpp&#45;&gt;SDL.h</title>
<path fill="none" stroke="#eeeeee" d="M1078.79,-340.56C1087.88,-346.26 1097.34,-353.49 1104.25,-362 1169.38,-442.22 1140.51,-487.43 1190.25,-578 1191.73,-580.69 1193.38,-583.42 1195.11,-586.11"/>
<polygon fill="#eeeeee" stroke="#eeeeee" points="1192.17,-588.01 1200.72,-594.27 1197.94,-584.05 1192.17,-588.01"/>
</g>
<!-- main.cpp -->
<g id="node35" class="node">
<title>main.cpp</title>
<polygon fill="#76abae" stroke="black" points="66.88,-874 12.88,-874 12.88,-838 66.88,-838 66.88,-874"/>
<text text-anchor="middle" x="39.88" y="-852.12" font-family="Times New Roman,serif" font-size="10.00">main.cpp</text>
</g>
<!-- main.cpp&#45;&gt;application.hpp -->
<g id="edge42" class="edge">
<title>main.cpp&#45;&gt;application.hpp</title>
<path fill="none" stroke="#eeeeee" d="M67.31,-861.31C94.15,-866.71 136.38,-875.19 169.64,-881.88"/>
<polygon fill="#eeeeee" stroke="#eeeeee" points="168.56,-885.23 179.05,-883.77 169.94,-878.37 168.56,-885.23"/>
</g>
<!-- renderer.cpp -->
<g id="node36" class="node">
<title>renderer.cpp</title>
<polygon fill="#76abae" stroke="black" points="450.62,-910 384.38,-910 384.38,-874 450.62,-874 450.62,-910"/>
<text text-anchor="middle" x="417.5" y="-888.12" font-family="Times New Roman,serif" font-size="10.00">renderer.cpp</text>
</g>
<!-- renderer.cpp&#45;&gt;renderer.hpp -->
<g id="edge45" class="edge">
<title>renderer.cpp&#45;&gt;renderer.hpp</title>
<path fill="none" stroke="#eeeeee" d="M450.71,-902.78C487.75,-915.18 548.75,-935.59 590.02,-949.41"/>
<polygon fill="#eeeeee" stroke="#eeeeee" points="588.82,-952.69 599.41,-952.55 591.04,-946.06 588.82,-952.69"/>
</g>
<!-- renderer.cpp&#45;&gt;graphic.hpp -->
<g id="edge46" class="edge">
<title>renderer.cpp&#45;&gt;graphic.hpp</title>
<path fill="none" stroke="#eeeeee" d="M428.3,-910.23C450.85,-952.02 508.31,-1057.85 558.75,-1145 578.02,-1178.29 600.98,-1216.05 616.36,-1241.07"/>
<polygon fill="#eeeeee" stroke="#eeeeee" points="613.23,-1242.67 621.45,-1249.35 619.19,-1239 613.23,-1242.67"/>
</g>
<!-- renderer.cpp&#45;&gt;iostream -->
<g id="edge47" class="edge">
<title>renderer.cpp&#45;&gt;iostream</title>
<path fill="none" stroke="#eeeeee" d="M450.71,-880.92C489.79,-867.48 555.54,-844.86 596.66,-830.72"/>
<polygon fill="#eeeeee" stroke="#eeeeee" points="597.55,-834.11 605.87,-827.55 595.28,-827.49 597.55,-834.11"/>
</g>
<!-- resources_loader.cpp -->
<g id="node37" class="node">
<title>resources_loader.cpp</title>
<polygon fill="#76abae" stroke="black" points="271.75,-436 170.25,-436 170.25,-400 271.75,-400 271.75,-436"/>
<text text-anchor="middle" x="221" y="-414.12" font-family="Times New Roman,serif" font-size="10.00">resources_loader.cpp</text>
</g>
<!-- resources_loader.cpp&#45;&gt;logger.hpp -->
<g id="edge55" class="edge">
<title>resources_loader.cpp&#45;&gt;logger.hpp</title>
<path fill="none" stroke="#eeeeee" d="M254.99,-436.32C288.88,-455.13 341.59,-484.41 377.51,-504.35"/>
<polygon fill="#eeeeee" stroke="#eeeeee" points="375.4,-507.18 385.84,-508.98 378.8,-501.06 375.4,-507.18"/>
</g>
<!-- resources_loader.cpp&#45;&gt;resources_loader.hpp -->
<g id="edge54" class="edge">
<title>resources_loader.cpp&#45;&gt;resources_loader.hpp</title>
<path fill="none" stroke="#eeeeee" d="M272.09,-427.27C297.3,-431.94 328.09,-437.64 354.76,-442.57"/>
<polygon fill="#eeeeee" stroke="#eeeeee" points="353.95,-445.98 364.42,-444.36 355.22,-439.1 353.95,-445.98"/>
</g>
<!-- resources_loader.cpp&#45;&gt;format -->
<g id="edge52" class="edge">
<title>resources_loader.cpp&#45;&gt;format</title>
<path fill="none" stroke="#eeeeee" d="M232.73,-436.1C264.94,-490.41 360.9,-652.23 399.82,-717.87"/>
<polygon fill="#eeeeee" stroke="#eeeeee" points="396.68,-719.43 404.79,-726.25 402.7,-715.86 396.68,-719.43"/>
</g>
<!-- resources_loader.cpp&#45;&gt;fstream -->
<g id="edge58" class="edge">
<title>resources_loader.cpp&#45;&gt;fstream</title>
<path fill="none" stroke="#eeeeee" d="M227.13,-399.79C240.65,-355.75 281.86,-243.87 362.25,-200 405.36,-176.47 429.72,-176.32 472.75,-200 561.34,-248.75 607.97,-369.17 625.42,-424.87"/>
<polygon fill="#eeeeee" stroke="#eeeeee" points="622.02,-425.72 628.27,-434.28 628.72,-423.69 622.02,-425.72"/>
</g>
<!-- resources_loader.cpp&#45;&gt;iostream -->
<g id="edge57" class="edge">
<title>resources_loader.cpp&#45;&gt;iostream</title>
<path fill="none" stroke="#eeeeee" d="M237.45,-436.45C293.02,-502.52 483.44,-726.37 558.75,-782 570.35,-790.57 584.31,-797.94 597.02,-803.73"/>
<polygon fill="#eeeeee" stroke="#eeeeee" points="595.37,-806.83 605.94,-807.62 598.17,-800.42 595.37,-806.83"/>
</g>
<!-- resources_loader.cpp&#45;&gt;image.hpp -->
<g id="edge56" class="edge">
<title>resources_loader.cpp&#45;&gt;image.hpp</title>
<path fill="none" stroke="#eeeeee" d="M272.12,-412.42C423.08,-395.6 871.48,-345.66 1008.07,-330.45"/>
<polygon fill="#eeeeee" stroke="#eeeeee" points="1008.15,-333.96 1017.7,-329.38 1007.37,-327 1008.15,-333.96"/>
</g>
<!-- document.h -->
<g id="node38" class="node">
<title>document.h</title>
<polygon fill="#76abae" stroke="black" points="449.5,-326 385.5,-326 385.5,-290 449.5,-290 449.5,-326"/>
<text text-anchor="middle" x="417.5" y="-304.12" font-family="Times New Roman,serif" font-size="10.00">document.h</text>
</g>
<!-- resources_loader.cpp&#45;&gt;document.h -->
<g id="edge51" class="edge">
<title>resources_loader.cpp&#45;&gt;document.h</title>
<path fill="none" stroke="#eeeeee" d="M254.55,-399.59C287.77,-380.8 339.41,-351.6 375.42,-331.24"/>
<polygon fill="#eeeeee" stroke="#eeeeee" points="376.83,-334.46 383.81,-326.49 373.38,-328.36 376.83,-334.46"/>
</g>
<!-- sstream -->
<g id="node39" class="node">
<title>sstream</title>
<polygon fill="#76abae" stroke="black" points="444.5,-254 390.5,-254 390.5,-218 444.5,-218 444.5,-254"/>
<text text-anchor="middle" x="417.5" y="-232.12" font-family="Times New Roman,serif" font-size="10.00">sstream</text>
</g>
<!-- resources_loader.cpp&#45;&gt;sstream -->
<g id="edge53" class="edge">
<title>resources_loader.cpp&#45;&gt;sstream</title>
<path fill="none" stroke="#eeeeee" d="M237.26,-399.69C261.87,-370.74 312.61,-313.45 362.25,-272 368.02,-267.18 374.46,-262.44 380.82,-258.05"/>
<polygon fill="#eeeeee" stroke="#eeeeee" points="382.37,-261.22 388.75,-252.76 378.49,-255.4 382.37,-261.22"/>
</g>
<!-- resource_container.cpp -->
<g id="node42" class="node">
<title>resource_container.cpp</title>
<polygon fill="#76abae" stroke="black" points="276.25,-691 165.75,-691 165.75,-655 276.25,-655 276.25,-691"/>
<text text-anchor="middle" x="221" y="-669.12" font-family="Times New Roman,serif" font-size="10.00">resource_container.cpp</text>
</g>
<!-- resource_container.cpp&#45;&gt;logger.hpp -->
<g id="edge62" class="edge">
<title>resource_container.cpp&#45;&gt;logger.hpp</title>
<path fill="none" stroke="#eeeeee" d="M246.24,-654.68C280.84,-628.53 344.49,-580.42 383.41,-551.01"/>
<polygon fill="#eeeeee" stroke="#eeeeee" points="385.19,-554.05 391.05,-545.23 380.96,-548.47 385.19,-554.05"/>
</g>
<!-- resource_container.cpp&#45;&gt;resource_container.hpp -->
<g id="edge63" class="edge">
<title>resource_container.cpp&#45;&gt;resource_container.hpp</title>
<path fill="none" stroke="#eeeeee" d="M276.73,-661.6C392.11,-637.58 659.93,-581.81 784.81,-555.81"/>
<polygon fill="#eeeeee" stroke="#eeeeee" points="785.52,-559.24 794.59,-553.77 784.09,-552.38 785.52,-559.24"/>
</g>
<!-- resource_container.cpp&#45;&gt;format -->
<g id="edge64" class="edge">
<title>resource_container.cpp&#45;&gt;format</title>
<path fill="none" stroke="#eeeeee" d="M271.08,-691.42C304.76,-704.06 348.74,-720.57 379.49,-732.11"/>
<polygon fill="#eeeeee" stroke="#eeeeee" points="378.16,-735.35 388.75,-735.59 380.62,-728.79 378.16,-735.35"/>
</g>
<!-- cpp_lua_functions.cpp -->
<g id="node43" class="node">
<title>cpp_lua_functions.cpp</title>
<polygon fill="#76abae" stroke="black" points="275.88,-1383 166.12,-1383 166.12,-1347 275.88,-1347 275.88,-1383"/>
<text text-anchor="middle" x="221" y="-1361.12" font-family="Times New Roman,serif" font-size="10.00">cpp_lua_functions.cpp</text>
</g>
<!-- cpp_lua_functions.cpp&#45;&gt;graphic.hpp -->
<g id="edge67" class="edge">
<title>cpp_lua_functions.cpp&#45;&gt;graphic.hpp</title>
<path fill="none" stroke="#eeeeee" d="M275.93,-1372.81C327.47,-1378.41 406.86,-1382.15 472.75,-1364 522.06,-1350.42 571.66,-1317.53 602.49,-1294.26"/>
<polygon fill="#eeeeee" stroke="#eeeeee" points="604.44,-1297.18 610.23,-1288.31 600.17,-1291.63 604.44,-1297.18"/>
</g>
<!-- cpp_lua_functions.cpp&#45;&gt;cpp_lua_functions.hpp -->
<g id="edge66" class="edge">
<title>cpp_lua_functions.cpp&#45;&gt;cpp_lua_functions.hpp</title>
<path fill="none" stroke="#eeeeee" d="M241.36,-1346.78C276,-1314.19 348.71,-1245.79 388.68,-1208.17"/>
<polygon fill="#eeeeee" stroke="#eeeeee" points="390.94,-1210.85 395.83,-1201.45 386.15,-1205.75 390.94,-1210.85"/>
</g>
<!-- cpp_lua_functions.cpp&#45;&gt;LuaBridge.h -->
<g id="edge68" class="edge">
<title>cpp_lua_functions.cpp&#45;&gt;LuaBridge.h</title>
<path fill="none" stroke="#eeeeee" d="M276.18,-1354.69C306.51,-1348.92 343.84,-1341.82 372.37,-1336.39"/>
<polygon fill="#eeeeee" stroke="#eeeeee" points="372.97,-1339.84 382.14,-1334.54 371.66,-1332.97 372.97,-1339.84"/>
</g>
<!-- cpp_lua_functions.cpp&#45;&gt;lua.hpp -->
<g id="edge65" class="edge">
<title>cpp_lua_functions.cpp&#45;&gt;lua.hpp</title>
<path fill="none" stroke="#eeeeee" d="M232.62,-1383.25C252.9,-1416.02 300.66,-1483.89 362.25,-1510 416.31,-1532.92 648.41,-1546.63 710.5,-1505 812.36,-1436.71 840.93,-1277.23 848.53,-1211.31"/>
<polygon fill="#eeeeee" stroke="#eeeeee" points="851.98,-1211.96 849.55,-1201.64 845.02,-1211.22 851.98,-1211.96"/>
</g>
</g>
</svg>
