<?xml version="1.0" encoding="UTF-8" standalone="no"?>
<!DOCTYPE svg PUBLIC "-//W3C//DTD SVG 1.1//EN"
 "http://www.w3.org/Graphics/SVG/1.1/DTD/svg11.dtd">
<!-- Generated by graphviz version 12.2.1 (20241206.2353)
 -->
<!-- Title: IncludeHierarchy Pages: 1 -->
<svg width="1252pt" height="1503pt"
 viewBox="0.00 0.00 1252.25 1502.62" xmlns="http://www.w3.org/2000/svg" xmlns:xlink="http://www.w3.org/1999/xlink">
<g id="graph0" class="graph" transform="scale(1 1) rotate(0) translate(4 1498.62)">
<title>IncludeHierarchy</title>
<polygon fill="#222831" stroke="none" points="-4,4 -4,-1498.62 1248.25,-1498.62 1248.25,4 -4,4"/>
<!-- application.cpp -->
<g id="node1" class="node">
<title>application.cpp</title>
<polygon fill="#76abae" stroke="black" points="79.75,-544 0,-544 0,-508 79.75,-508 79.75,-544"/>
<text text-anchor="middle" x="39.88" y="-522.12" font-family="Times New Roman,serif" font-size="10.00">application.cpp</text>
</g>
<!-- logger.hpp -->
<g id="node2" class="node">
<title>logger.hpp</title>
<polygon fill="#76abae" stroke="black" points="447.62,-326 387.38,-326 387.38,-290 447.62,-290 447.62,-326"/>
<text text-anchor="middle" x="417.5" y="-304.12" font-family="Times New Roman,serif" font-size="10.00">logger.hpp</text>
</g>
<!-- application.cpp&#45;&gt;logger.hpp -->
<g id="edge1" class="edge">
<title>application.cpp&#45;&gt;logger.hpp</title>
<path fill="none" stroke="#eeeeee" d="M47.65,-507.64C62.57,-470.07 102.06,-384.64 165.75,-345 230.7,-304.58 323.08,-301.99 375.67,-304.5"/>
<polygon fill="#eeeeee" stroke="#eeeeee" points="375.2,-307.98 385.39,-305.05 375.6,-300.99 375.2,-307.98"/>
</g>
<!-- application.hpp -->
<g id="node3" class="node">
<title>application.hpp</title>
<polygon fill="#76abae" stroke="black" points="261.25,-835 180.75,-835 180.75,-799 261.25,-799 261.25,-835"/>
<text text-anchor="middle" x="221" y="-813.12" font-family="Times New Roman,serif" font-size="10.00">application.hpp</text>
</g>
<!-- application.cpp&#45;&gt;application.hpp -->
<g id="edge2" class="edge">
<title>application.cpp&#45;&gt;application.hpp</title>
<path fill="none" stroke="#eeeeee" d="M52.08,-544.2C82.43,-593.5 166.36,-729.86 202.78,-789.02"/>
<polygon fill="#eeeeee" stroke="#eeeeee" points="199.78,-790.83 208.01,-797.51 205.74,-787.16 199.78,-790.83"/>
</g>
<!-- string -->
<g id="node16" class="node">
<title>string</title>
<polygon fill="#76abae" stroke="black" points="1244.25,-963 1190.25,-963 1190.25,-927 1244.25,-927 1244.25,-963"/>
<text text-anchor="middle" x="1217.25" y="-941.12" font-family="Times New Roman,serif" font-size="10.00">string</text>
</g>
<!-- logger.hpp&#45;&gt;string -->
<g id="edge35" class="edge">
<title>logger.hpp&#45;&gt;string</title>
<path fill="none" stroke="#eeeeee" d="M448.1,-312.51C554.1,-330.25 918.31,-405.12 1104.25,-620 1181.32,-709.06 1206.12,-853.94 1213.44,-915.66"/>
<polygon fill="#eeeeee" stroke="#eeeeee" points="1209.94,-915.79 1214.52,-925.35 1216.89,-915.02 1209.94,-915.79"/>
</g>
<!-- fstream -->
<g id="node28" class="node">
<title>fstream</title>
<polygon fill="#76abae" stroke="black" points="661.62,-235 607.62,-235 607.62,-199 661.62,-199 661.62,-235"/>
<text text-anchor="middle" x="634.62" y="-213.12" font-family="Times New Roman,serif" font-size="10.00">fstream</text>
</g>
<!-- logger.hpp&#45;&gt;fstream -->
<g id="edge33" class="edge">
<title>logger.hpp&#45;&gt;fstream</title>
<path fill="none" stroke="#eeeeee" d="M447.96,-295.54C486.71,-279.15 554.78,-250.35 596.86,-232.55"/>
<polygon fill="#eeeeee" stroke="#eeeeee" points="597.98,-235.88 605.82,-228.76 595.25,-229.43 597.98,-235.88"/>
</g>
<!-- iostream -->
<g id="node29" class="node">
<title>iostream</title>
<polygon fill="#76abae" stroke="black" points="661.62,-471 607.62,-471 607.62,-435 661.62,-435 661.62,-471"/>
<text text-anchor="middle" x="634.62" y="-449.12" font-family="Times New Roman,serif" font-size="10.00">iostream</text>
</g>
<!-- logger.hpp&#45;&gt;iostream -->
<g id="edge34" class="edge">
<title>logger.hpp&#45;&gt;iostream</title>
<path fill="none" stroke="#eeeeee" d="M446.41,-326.45C454.88,-332.07 464.21,-338.27 472.75,-344 515.98,-372.99 565.53,-406.62 598.08,-428.77"/>
<polygon fill="#eeeeee" stroke="#eeeeee" points="595.72,-431.4 605.95,-434.13 599.66,-425.61 595.72,-431.4"/>
</g>
<!-- renderer.hpp -->
<g id="node4" class="node">
<title>renderer.hpp</title>
<polygon fill="#76abae" stroke="black" points="668.12,-764 601.12,-764 601.12,-728 668.12,-728 668.12,-764"/>
<text text-anchor="middle" x="634.62" y="-742.12" font-family="Times New Roman,serif" font-size="10.00">renderer.hpp</text>
</g>
<!-- application.hpp&#45;&gt;renderer.hpp -->
<g id="edge3" class="edge">
<title>application.hpp&#45;&gt;renderer.hpp</title>
<path fill="none" stroke="#eeeeee" d="M261.64,-811.92C311.18,-805.4 398.47,-793.32 472.75,-780 512.59,-772.86 557.65,-763.2 589.92,-756"/>
<polygon fill="#eeeeee" stroke="#eeeeee" points="590.31,-759.5 599.3,-753.9 588.77,-752.67 590.31,-759.5"/>
</g>
<!-- resources_loader.hpp -->
<g id="node5" class="node">
<title>resources_loader.hpp</title>
<polygon fill="#76abae" stroke="black" points="468.62,-618 366.38,-618 366.38,-582 468.62,-582 468.62,-618"/>
<text text-anchor="middle" x="417.5" y="-596.12" font-family="Times New Roman,serif" font-size="10.00">resources_loader.hpp</text>
</g>
<!-- application.hpp&#45;&gt;resources_loader.hpp -->
<g id="edge4" class="edge">
<title>application.hpp&#45;&gt;resources_loader.hpp</title>
<path fill="none" stroke="#eeeeee" d="M233.26,-798.73C255.14,-764.19 306.19,-688.09 362.25,-636 366.44,-632.11 371.09,-628.35 375.86,-624.82"/>
<polygon fill="#eeeeee" stroke="#eeeeee" points="377.66,-627.83 383.84,-619.22 373.64,-622.1 377.66,-627.83"/>
</g>
<!-- input_manager.hpp -->
<g id="node6" class="node">
<title>input_manager.hpp</title>
<polygon fill="#76abae" stroke="black" points="899.88,-944 804.38,-944 804.38,-908 899.88,-908 899.88,-944"/>
<text text-anchor="middle" x="852.12" y="-922.12" font-family="Times New Roman,serif" font-size="10.00">input_manager.hpp</text>
</g>
<!-- application.hpp&#45;&gt;input_manager.hpp -->
<g id="edge5" class="edge">
<title>application.hpp&#45;&gt;input_manager.hpp</title>
<path fill="none" stroke="#eeeeee" d="M261.69,-834.37C323.66,-860.44 447.82,-908.49 558.75,-926 639.01,-938.67 733.22,-935.49 792.55,-931.33"/>
<polygon fill="#eeeeee" stroke="#eeeeee" points="792.71,-934.83 802.42,-930.61 792.19,-927.85 792.71,-934.83"/>
</g>
<!-- scripts_manager.hpp -->
<g id="node7" class="node">
<title>scripts_manager.hpp</title>
<polygon fill="#76abae" stroke="black" points="467.5,-982 367.5,-982 367.5,-946 467.5,-946 467.5,-982"/>
<text text-anchor="middle" x="417.5" y="-960.12" font-family="Times New Roman,serif" font-size="10.00">scripts_manager.hpp</text>
</g>
<!-- application.hpp&#45;&gt;scripts_manager.hpp -->
<g id="edge6" class="edge">
<title>application.hpp&#45;&gt;scripts_manager.hpp</title>
<path fill="none" stroke="#eeeeee" d="M246.24,-835.32C280.84,-861.47 344.49,-909.58 383.41,-938.99"/>
<polygon fill="#eeeeee" stroke="#eeeeee" points="380.96,-941.53 391.05,-944.77 385.19,-935.95 380.96,-941.53"/>
</g>
<!-- entt.hpp -->
<g id="node9" class="node">
<title>entt.hpp</title>
<polygon fill="#76abae" stroke="black" points="879.12,-836 825.12,-836 825.12,-800 879.12,-800 879.12,-836"/>
<text text-anchor="middle" x="852.12" y="-814.12" font-family="Times New Roman,serif" font-size="10.00">entt.hpp</text>
</g>
<!-- renderer.hpp&#45;&gt;entt.hpp -->
<g id="edge46" class="edge">
<title>renderer.hpp&#45;&gt;entt.hpp</title>
<path fill="none" stroke="#eeeeee" d="M668.35,-756.94C707.53,-770.02 772.97,-791.89 814,-805.6"/>
<polygon fill="#eeeeee" stroke="#eeeeee" points="812.85,-808.9 823.45,-808.75 815.07,-802.26 812.85,-808.9"/>
</g>
<!-- resource_container.hpp -->
<g id="node10" class="node">
<title>resource_container.hpp</title>
<polygon fill="#76abae" stroke="black" points="907.75,-764 796.5,-764 796.5,-728 907.75,-728 907.75,-764"/>
<text text-anchor="middle" x="852.12" y="-742.12" font-family="Times New Roman,serif" font-size="10.00">resource_container.hpp</text>
</g>
<!-- renderer.hpp&#45;&gt;resource_container.hpp -->
<g id="edge47" class="edge">
<title>renderer.hpp&#45;&gt;resource_container.hpp</title>
<path fill="none" stroke="#eeeeee" d="M668.35,-746C699.22,-746 746.39,-746 785.07,-746"/>
<polygon fill="#eeeeee" stroke="#eeeeee" points="784.74,-749.5 794.74,-746 784.74,-742.5 784.74,-749.5"/>
</g>
<!-- resources_loader.hpp&#45;&gt;resource_container.hpp -->
<g id="edge56" class="edge">
<title>resources_loader.hpp&#45;&gt;resource_container.hpp</title>
<path fill="none" stroke="#eeeeee" d="M468.97,-617.03C547.53,-643.54 699,-694.66 785.79,-723.95"/>
<polygon fill="#eeeeee" stroke="#eeeeee" points="784.53,-727.22 795.13,-727.1 786.77,-720.59 784.53,-727.22"/>
</g>
<!-- startup_options.hpp -->
<g id="node39" class="node">
<title>startup_options.hpp</title>
<polygon fill="#76abae" stroke="black" points="683.5,-618 585.75,-618 585.75,-582 683.5,-582 683.5,-618"/>
<text text-anchor="middle" x="634.62" y="-596.12" font-family="Times New Roman,serif" font-size="10.00">startup_options.hpp</text>
</g>
<!-- resources_loader.hpp&#45;&gt;startup_options.hpp -->
<g id="edge55" class="edge">
<title>resources_loader.hpp&#45;&gt;startup_options.hpp</title>
<path fill="none" stroke="#eeeeee" d="M468.94,-600C500.38,-600 540.99,-600 574.01,-600"/>
<polygon fill="#eeeeee" stroke="#eeeeee" points="573.84,-603.5 583.84,-600 573.84,-596.5 573.84,-603.5"/>
</g>
<!-- map -->
<g id="node15" class="node">
<title>map</title>
<polygon fill="#76abae" stroke="black" points="1076,-890 1022,-890 1022,-854 1076,-854 1076,-890"/>
<text text-anchor="middle" x="1049" y="-868.12" font-family="Times New Roman,serif" font-size="10.00">map</text>
</g>
<!-- input_manager.hpp&#45;&gt;map -->
<g id="edge15" class="edge">
<title>input_manager.hpp&#45;&gt;map</title>
<path fill="none" stroke="#eeeeee" d="M900.3,-912.93C934.21,-903.53 979.3,-891.04 1010.71,-882.33"/>
<polygon fill="#eeeeee" stroke="#eeeeee" points="1011.45,-885.76 1020.15,-879.72 1009.58,-879.01 1011.45,-885.76"/>
</g>
<!-- input_manager.hpp&#45;&gt;string -->
<g id="edge16" class="edge">
<title>input_manager.hpp&#45;&gt;string</title>
<path fill="none" stroke="#eeeeee" d="M900.22,-928.46C973.18,-932.28 1112.03,-939.55 1178.7,-943.04"/>
<polygon fill="#eeeeee" stroke="#eeeeee" points="1178.21,-946.51 1188.38,-943.54 1178.58,-939.52 1178.21,-946.51"/>
</g>
<!-- SDL.h -->
<g id="node17" class="node">
<title>SDL.h</title>
<polygon fill="#76abae" stroke="black" points="1244.25,-1146 1190.25,-1146 1190.25,-1110 1244.25,-1110 1244.25,-1146"/>
<text text-anchor="middle" x="1217.25" y="-1124.12" font-family="Times New Roman,serif" font-size="10.00">SDL.h</text>
</g>
<!-- input_manager.hpp&#45;&gt;SDL.h -->
<g id="edge17" class="edge">
<title>input_manager.hpp&#45;&gt;SDL.h</title>
<path fill="none" stroke="#eeeeee" d="M859.27,-944.46C874.35,-986.39 917.62,-1088.24 993.75,-1128 1052.62,-1158.75 1132.77,-1148.19 1179.07,-1137.95"/>
<polygon fill="#eeeeee" stroke="#eeeeee" points="1179.66,-1141.4 1188.6,-1135.72 1178.07,-1134.59 1179.66,-1141.4"/>
</g>
<!-- ScriptsExecutionEnviroment.hpp -->
<g id="node8" class="node">
<title>ScriptsExecutionEnviroment.hpp</title>
<polygon fill="#76abae" stroke="black" points="710.5,-836 558.75,-836 558.75,-800 710.5,-800 710.5,-836"/>
<text text-anchor="middle" x="634.62" y="-814.12" font-family="Times New Roman,serif" font-size="10.00">ScriptsExecutionEnviroment.hpp</text>
</g>
<!-- scripts_manager.hpp&#45;&gt;ScriptsExecutionEnviroment.hpp -->
<g id="edge13" class="edge">
<title>scripts_manager.hpp&#45;&gt;ScriptsExecutionEnviroment.hpp</title>
<path fill="none" stroke="#eeeeee" d="M438.83,-945.73C465.23,-922.58 513.3,-882.28 558.75,-854 565.74,-849.65 573.33,-845.45 580.91,-841.55"/>
<polygon fill="#eeeeee" stroke="#eeeeee" points="582.44,-844.7 589.83,-837.11 579.32,-838.44 582.44,-844.7"/>
</g>
<!-- script.hpp -->
<g id="node14" class="node">
<title>script.hpp</title>
<polygon fill="#76abae" stroke="black" points="662.88,-1127 606.38,-1127 606.38,-1091 662.88,-1091 662.88,-1127"/>
<text text-anchor="middle" x="634.62" y="-1105.12" font-family="Times New Roman,serif" font-size="10.00">script.hpp</text>
</g>
<!-- scripts_manager.hpp&#45;&gt;script.hpp -->
<g id="edge14" class="edge">
<title>scripts_manager.hpp&#45;&gt;script.hpp</title>
<path fill="none" stroke="#eeeeee" d="M446.41,-982.45C454.88,-988.07 464.21,-994.27 472.75,-1000 515.72,-1028.82 564.94,-1062.22 597.5,-1084.38"/>
<polygon fill="#eeeeee" stroke="#eeeeee" points="595.15,-1087.01 605.39,-1089.75 599.09,-1081.23 595.15,-1087.01"/>
</g>
<!-- ScriptsExecutionEnviroment.hpp&#45;&gt;input_manager.hpp -->
<g id="edge9" class="edge">
<title>ScriptsExecutionEnviroment.hpp&#45;&gt;input_manager.hpp</title>
<path fill="none" stroke="#eeeeee" d="M674.19,-836.32C685.88,-841.93 698.74,-848.16 710.5,-854 742.42,-869.84 778.15,-888.14 805.61,-902.33"/>
<polygon fill="#eeeeee" stroke="#eeeeee" points="803.87,-905.37 814.36,-906.86 807.09,-899.16 803.87,-905.37"/>
</g>
<!-- ScriptsExecutionEnviroment.hpp&#45;&gt;entt.hpp -->
<g id="edge7" class="edge">
<title>ScriptsExecutionEnviroment.hpp&#45;&gt;entt.hpp</title>
<path fill="none" stroke="#eeeeee" d="M711,-818C745.62,-818 785.16,-818 813.39,-818"/>
<polygon fill="#eeeeee" stroke="#eeeeee" points="813.23,-821.5 823.23,-818 813.23,-814.5 813.23,-821.5"/>
</g>
<!-- ScriptsExecutionEnviroment.hpp&#45;&gt;resource_container.hpp -->
<g id="edge8" class="edge">
<title>ScriptsExecutionEnviroment.hpp&#45;&gt;resource_container.hpp</title>
<path fill="none" stroke="#eeeeee" d="M690.84,-799.55C719.61,-789.94 754.99,-778.12 785.18,-768.03"/>
<polygon fill="#eeeeee" stroke="#eeeeee" points="786.24,-771.37 794.62,-764.88 784.02,-764.73 786.24,-771.37"/>
</g>
<!-- graphic.hpp -->
<g id="node13" class="node">
<title>graphic.hpp</title>
<polygon fill="#76abae" stroke="black" points="1081.38,-1110 1016.62,-1110 1016.62,-1074 1081.38,-1074 1081.38,-1110"/>
<text text-anchor="middle" x="1049" y="-1088.12" font-family="Times New Roman,serif" font-size="10.00">graphic.hpp</text>
</g>
<!-- resource_container.hpp&#45;&gt;graphic.hpp -->
<g id="edge41" class="edge">
<title>resource_container.hpp&#45;&gt;graphic.hpp</title>
<path fill="none" stroke="#eeeeee" d="M887.57,-764.43C894.87,-769.44 902.07,-775.35 907.75,-782 982.55,-869.65 1024.79,-1003.71 1040.66,-1062.56"/>
<polygon fill="#eeeeee" stroke="#eeeeee" points="1037.25,-1063.37 1043.18,-1072.16 1044.02,-1061.59 1037.25,-1063.37"/>
</g>
<!-- resource_container.hpp&#45;&gt;map -->
<g id="edge38" class="edge">
<title>resource_container.hpp&#45;&gt;map</title>
<path fill="none" stroke="#eeeeee" d="M881.46,-764.32C915.96,-786.63 974.27,-824.33 1011.93,-848.68"/>
<polygon fill="#eeeeee" stroke="#eeeeee" points="1009.94,-851.56 1020.23,-854.05 1013.74,-845.68 1009.94,-851.56"/>
</g>
<!-- uncompiled_script.hpp -->
<g id="node30" class="node">
<title>uncompiled_script.hpp</title>
<polygon fill="#76abae" stroke="black" points="1104.25,-674 993.75,-674 993.75,-638 1104.25,-638 1104.25,-674"/>
<text text-anchor="middle" x="1049" y="-652.12" font-family="Times New Roman,serif" font-size="10.00">uncompiled_script.hpp</text>
</g>
<!-- resource_container.hpp&#45;&gt;uncompiled_script.hpp -->
<g id="edge42" class="edge">
<title>resource_container.hpp&#45;&gt;uncompiled_script.hpp</title>
<path fill="none" stroke="#eeeeee" d="M893.03,-727.57C923.38,-713.56 965.32,-694.18 997.92,-679.13"/>
<polygon fill="#eeeeee" stroke="#eeeeee" points="999.16,-682.41 1006.77,-675.04 996.23,-676.06 999.16,-682.41"/>
</g>
<!-- memory -->
<g id="node32" class="node">
<title>memory</title>
<polygon fill="#76abae" stroke="black" points="1076,-818 1022,-818 1022,-782 1076,-782 1076,-818"/>
<text text-anchor="middle" x="1049" y="-796.12" font-family="Times New Roman,serif" font-size="10.00">memory</text>
</g>
<!-- resource_container.hpp&#45;&gt;memory -->
<g id="edge39" class="edge">
<title>resource_container.hpp&#45;&gt;memory</title>
<path fill="none" stroke="#eeeeee" d="M908.19,-761.26C940.98,-770.34 981.72,-781.63 1010.75,-789.68"/>
<polygon fill="#eeeeee" stroke="#eeeeee" points="1009.61,-792.99 1020.18,-792.29 1011.48,-786.25 1009.61,-792.99"/>
</g>
<!-- queue -->
<g id="node33" class="node">
<title>queue</title>
<polygon fill="#76abae" stroke="black" points="1076,-746 1022,-746 1022,-710 1076,-710 1076,-746"/>
<text text-anchor="middle" x="1049" y="-724.12" font-family="Times New Roman,serif" font-size="10.00">queue</text>
</g>
<!-- resource_container.hpp&#45;&gt;queue -->
<g id="edge40" class="edge">
<title>resource_container.hpp&#45;&gt;queue</title>
<path fill="none" stroke="#eeeeee" d="M908.19,-740.91C940.83,-737.9 981.36,-734.16 1010.36,-731.48"/>
<polygon fill="#eeeeee" stroke="#eeeeee" points="1010.5,-734.98 1020.13,-730.57 1009.85,-728.01 1010.5,-734.98"/>
</g>
<!-- components.hpp -->
<g id="node11" class="node">
<title>components.hpp</title>
<polygon fill="#76abae" stroke="black" points="459.25,-1418 375.75,-1418 375.75,-1382 459.25,-1382 459.25,-1418"/>
<text text-anchor="middle" x="417.5" y="-1396.12" font-family="Times New Roman,serif" font-size="10.00">components.hpp</text>
</g>
<!-- camera.hpp -->
<g id="node12" class="node">
<title>camera.hpp</title>
<polygon fill="#76abae" stroke="black" points="665.88,-1418 603.38,-1418 603.38,-1382 665.88,-1382 665.88,-1418"/>
<text text-anchor="middle" x="634.62" y="-1396.12" font-family="Times New Roman,serif" font-size="10.00">camera.hpp</text>
</g>
<!-- components.hpp&#45;&gt;camera.hpp -->
<g id="edge10" class="edge">
<title>components.hpp&#45;&gt;camera.hpp</title>
<path fill="none" stroke="#eeeeee" d="M459.72,-1400C497.65,-1400 553.62,-1400 591.75,-1400"/>
<polygon fill="#eeeeee" stroke="#eeeeee" points="591.46,-1403.5 601.46,-1400 591.46,-1396.5 591.46,-1403.5"/>
</g>
<!-- components.hpp&#45;&gt;graphic.hpp -->
<g id="edge11" class="edge">
<title>components.hpp&#45;&gt;graphic.hpp</title>
<path fill="none" stroke="#eeeeee" d="M459.27,-1415.96C516.74,-1436.04 624.2,-1464.62 710.5,-1436 873.99,-1381.78 992.8,-1192.29 1033.05,-1120.16"/>
<polygon fill="#eeeeee" stroke="#eeeeee" points="1035.94,-1122.18 1037.69,-1111.73 1029.81,-1118.81 1035.94,-1122.18"/>
</g>
<!-- components.hpp&#45;&gt;script.hpp -->
<g id="edge12" class="edge">
<title>components.hpp&#45;&gt;script.hpp</title>
<path fill="none" stroke="#eeeeee" d="M431.96,-1381.8C468.55,-1332.29 570.04,-1195.01 613.48,-1136.25"/>
<polygon fill="#eeeeee" stroke="#eeeeee" points="616.14,-1138.54 619.27,-1128.41 610.51,-1134.37 616.14,-1138.54"/>
</g>
<!-- graphic.hpp&#45;&gt;string -->
<g id="edge19" class="edge">
<title>graphic.hpp&#45;&gt;string</title>
<path fill="none" stroke="#eeeeee" d="M1072.63,-1073.62C1082.44,-1065.55 1094,-1055.91 1104.25,-1047 1133.34,-1021.71 1165.82,-991.95 1188.29,-971.13"/>
<polygon fill="#eeeeee" stroke="#eeeeee" points="1190.62,-973.74 1195.56,-964.37 1185.85,-968.61 1190.62,-973.74"/>
</g>
<!-- graphic.hpp&#45;&gt;SDL.h -->
<g id="edge18" class="edge">
<title>graphic.hpp&#45;&gt;SDL.h</title>
<path fill="none" stroke="#eeeeee" d="M1081.66,-1098.86C1109.36,-1104.85 1149.62,-1113.57 1178.89,-1119.91"/>
<polygon fill="#eeeeee" stroke="#eeeeee" points="1177.91,-1123.28 1188.43,-1121.97 1179.39,-1116.44 1177.91,-1123.28"/>
</g>
<!-- script.hpp&#45;&gt;string -->
<g id="edge28" class="edge">
<title>script.hpp&#45;&gt;string</title>
<path fill="none" stroke="#eeeeee" d="M663.24,-1101.2C758.05,-1074.42 1070.38,-986.2 1178.79,-955.58"/>
<polygon fill="#eeeeee" stroke="#eeeeee" points="1179.68,-958.97 1188.35,-952.88 1177.78,-952.23 1179.68,-958.97"/>
</g>
<!-- lua.hpp -->
<g id="node24" class="node">
<title>lua.hpp</title>
<polygon fill="#76abae" stroke="black" points="879.12,-1271 825.12,-1271 825.12,-1235 879.12,-1235 879.12,-1271"/>
<text text-anchor="middle" x="852.12" y="-1249.12" font-family="Times New Roman,serif" font-size="10.00">lua.hpp</text>
</g>
<!-- script.hpp&#45;&gt;lua.hpp -->
<g id="edge29" class="edge">
<title>script.hpp&#45;&gt;lua.hpp</title>
<path fill="none" stroke="#eeeeee" d="M662.92,-1127.24C701.59,-1153.08 772.37,-1200.37 815.24,-1229.02"/>
<polygon fill="#eeeeee" stroke="#eeeeee" points="813.21,-1231.87 823.47,-1234.52 817.1,-1226.05 813.21,-1231.87"/>
</g>
<!-- scripts_manager.cpp -->
<g id="node18" class="node">
<title>scripts_manager.cpp</title>
<polygon fill="#76abae" stroke="black" points="270.62,-1054 171.38,-1054 171.38,-1018 270.62,-1018 270.62,-1054"/>
<text text-anchor="middle" x="221" y="-1032.12" font-family="Times New Roman,serif" font-size="10.00">scripts_manager.cpp</text>
</g>
<!-- scripts_manager.cpp&#45;&gt;logger.hpp -->
<g id="edge22" class="edge">
<title>scripts_manager.cpp&#45;&gt;logger.hpp</title>
<path fill="none" stroke="#eeeeee" d="M228.21,-1017.75C239.16,-985.06 262.07,-914.17 276.25,-853 328.06,-629.5 237.26,-536.39 362.25,-344 366.21,-337.9 371.6,-332.6 377.46,-328.07"/>
<polygon fill="#eeeeee" stroke="#eeeeee" points="379.39,-330.99 385.66,-322.45 375.43,-325.22 379.39,-330.99"/>
</g>
<!-- scripts_manager.cpp&#45;&gt;scripts_manager.hpp -->
<g id="edge20" class="edge">
<title>scripts_manager.cpp&#45;&gt;scripts_manager.hpp</title>
<path fill="none" stroke="#eeeeee" d="M271.08,-1017.83C297.01,-1008.23 329.05,-996.37 356.46,-986.23"/>
<polygon fill="#eeeeee" stroke="#eeeeee" points="357.51,-989.57 365.68,-982.81 355.08,-983 357.51,-989.57"/>
</g>
<!-- scripts_manager.cpp&#45;&gt;script.hpp -->
<g id="edge21" class="edge">
<title>scripts_manager.cpp&#45;&gt;script.hpp</title>
<path fill="none" stroke="#eeeeee" d="M271.01,-1050.07C297.8,-1057.38 331.66,-1066.01 362.25,-1072 444.46,-1088.1 542.04,-1099.56 594.9,-1105.15"/>
<polygon fill="#eeeeee" stroke="#eeeeee" points="594.29,-1108.6 604.6,-1106.16 595.01,-1101.64 594.29,-1108.6"/>
</g>
<!-- cpp_lua_functions.hpp -->
<g id="node19" class="node">
<title>cpp_lua_functions.hpp</title>
<polygon fill="#76abae" stroke="black" points="472.75,-1272 362.25,-1272 362.25,-1236 472.75,-1236 472.75,-1272"/>
<text text-anchor="middle" x="417.5" y="-1250.12" font-family="Times New Roman,serif" font-size="10.00">cpp_lua_functions.hpp</text>
</g>
<!-- scripts_manager.cpp&#45;&gt;cpp_lua_functions.hpp -->
<g id="edge23" class="edge">
<title>scripts_manager.cpp&#45;&gt;cpp_lua_functions.hpp</title>
<path fill="none" stroke="#eeeeee" d="M233.24,-1054.38C255.08,-1089.12 306.07,-1165.65 362.25,-1218 366.43,-1221.9 371.08,-1225.66 375.85,-1229.19"/>
<polygon fill="#eeeeee" stroke="#eeeeee" points="373.63,-1231.91 383.83,-1234.79 377.65,-1226.18 373.63,-1231.91"/>
</g>
<!-- format -->
<g id="node20" class="node">
<title>format</title>
<polygon fill="#76abae" stroke="black" points="444.5,-762 390.5,-762 390.5,-726 444.5,-726 444.5,-762"/>
<text text-anchor="middle" x="417.5" y="-740.12" font-family="Times New Roman,serif" font-size="10.00">format</text>
</g>
<!-- scripts_manager.cpp&#45;&gt;format -->
<g id="edge24" class="edge">
<title>scripts_manager.cpp&#45;&gt;format</title>
<path fill="none" stroke="#eeeeee" d="M234.17,-1017.73C267.19,-968.16 358.64,-830.87 398.04,-771.71"/>
<polygon fill="#eeeeee" stroke="#eeeeee" points="400.87,-773.78 403.5,-763.52 395.04,-769.9 400.87,-773.78"/>
</g>
<!-- unordered_map -->
<g id="node21" class="node">
<title>unordered_map</title>
<polygon fill="#76abae" stroke="black" points="457.38,-1054 377.62,-1054 377.62,-1018 457.38,-1018 457.38,-1054"/>
<text text-anchor="middle" x="417.5" y="-1032.12" font-family="Times New Roman,serif" font-size="10.00">unordered_map</text>
</g>
<!-- scripts_manager.cpp&#45;&gt;unordered_map -->
<g id="edge25" class="edge">
<title>scripts_manager.cpp&#45;&gt;unordered_map</title>
<path fill="none" stroke="#eeeeee" d="M271.08,-1036C300.09,-1036 336.75,-1036 366,-1036"/>
<polygon fill="#eeeeee" stroke="#eeeeee" points="365.71,-1039.5 375.71,-1036 365.71,-1032.5 365.71,-1039.5"/>
</g>
<!-- LuaBridge.h -->
<g id="node22" class="node">
<title>LuaBridge.h</title>
<polygon fill="#76abae" stroke="black" points="451,-1200 384,-1200 384,-1164 451,-1164 451,-1200"/>
<text text-anchor="middle" x="417.5" y="-1178.12" font-family="Times New Roman,serif" font-size="10.00">LuaBridge.h</text>
</g>
<!-- scripts_manager.cpp&#45;&gt;LuaBridge.h -->
<g id="edge26" class="edge">
<title>scripts_manager.cpp&#45;&gt;LuaBridge.h</title>
<path fill="none" stroke="#eeeeee" d="M246.63,-1054.49C281.27,-1080.49 344.46,-1127.92 383.24,-1157.03"/>
<polygon fill="#eeeeee" stroke="#eeeeee" points="380.76,-1159.55 390.86,-1162.75 384.96,-1153.95 380.76,-1159.55"/>
</g>
<!-- cpp_lua_functions.hpp&#45;&gt;ScriptsExecutionEnviroment.hpp -->
<g id="edge64" class="edge">
<title>cpp_lua_functions.hpp&#45;&gt;ScriptsExecutionEnviroment.hpp</title>
<path fill="none" stroke="#eeeeee" d="M454.52,-1235.69C461.42,-1230.77 467.97,-1224.86 472.75,-1218 567.77,-1081.6 454.57,-983.54 558.75,-854 562.13,-849.8 566.12,-846.05 570.47,-842.72"/>
<polygon fill="#eeeeee" stroke="#eeeeee" points="572.21,-845.77 578.57,-837.3 568.32,-839.95 572.21,-845.77"/>
</g>
<!-- cpp_lua_functions.hpp&#45;&gt;lua.hpp -->
<g id="edge65" class="edge">
<title>cpp_lua_functions.hpp&#45;&gt;lua.hpp</title>
<path fill="none" stroke="#eeeeee" d="M472.85,-1253.87C561.82,-1253.67 736.31,-1253.27 813.2,-1253.09"/>
<polygon fill="#eeeeee" stroke="#eeeeee" points="813.17,-1256.59 823.17,-1253.06 813.16,-1249.59 813.17,-1256.59"/>
</g>
<!-- input_manager.cpp -->
<g id="node23" class="node">
<title>input_manager.cpp</title>
<polygon fill="#76abae" stroke="black" points="682,-908 587.25,-908 587.25,-872 682,-872 682,-908"/>
<text text-anchor="middle" x="634.62" y="-886.12" font-family="Times New Roman,serif" font-size="10.00">input_manager.cpp</text>
</g>
<!-- input_manager.cpp&#45;&gt;input_manager.hpp -->
<g id="edge27" class="edge">
<title>input_manager.cpp&#45;&gt;input_manager.hpp</title>
<path fill="none" stroke="#eeeeee" d="M682.39,-897.81C714.89,-903.24 758.44,-910.52 793.15,-916.31"/>
<polygon fill="#eeeeee" stroke="#eeeeee" points="792.15,-919.7 802.59,-917.89 793.3,-912.79 792.15,-919.7"/>
</g>
<!-- logger.cpp -->
<g id="node25" class="node">
<title>logger.cpp</title>
<polygon fill="#76abae" stroke="black" points="250.75,-108 191.25,-108 191.25,-72 250.75,-72 250.75,-108"/>
<text text-anchor="middle" x="221" y="-86.12" font-family="Times New Roman,serif" font-size="10.00">logger.cpp</text>
</g>
<!-- logger.cpp&#45;&gt;logger.hpp -->
<g id="edge31" class="edge">
<title>logger.cpp&#45;&gt;logger.hpp</title>
<path fill="none" stroke="#eeeeee" d="M233.24,-108.38C255.08,-143.12 306.07,-219.65 362.25,-272 367.02,-276.44 372.39,-280.71 377.85,-284.66"/>
<polygon fill="#eeeeee" stroke="#eeeeee" points="375.57,-287.33 385.79,-290.11 379.53,-281.56 375.57,-287.33"/>
</g>
<!-- ctime -->
<g id="node26" class="node">
<title>ctime</title>
<polygon fill="#76abae" stroke="black" points="444.5,-108 390.5,-108 390.5,-72 444.5,-72 444.5,-108"/>
<text text-anchor="middle" x="417.5" y="-86.12" font-family="Times New Roman,serif" font-size="10.00">ctime</text>
</g>
<!-- logger.cpp&#45;&gt;ctime -->
<g id="edge30" class="edge">
<title>logger.cpp&#45;&gt;ctime</title>
<path fill="none" stroke="#eeeeee" d="M251.12,-90C285.16,-90 341.59,-90 378.91,-90"/>
<polygon fill="#eeeeee" stroke="#eeeeee" points="378.79,-93.5 388.79,-90 378.79,-86.5 378.79,-93.5"/>
</g>
<!-- chrono -->
<g id="node27" class="node">
<title>chrono</title>
<polygon fill="#76abae" stroke="black" points="444.5,-36 390.5,-36 390.5,0 444.5,0 444.5,-36"/>
<text text-anchor="middle" x="417.5" y="-14.12" font-family="Times New Roman,serif" font-size="10.00">chrono</text>
</g>
<!-- logger.cpp&#45;&gt;chrono -->
<g id="edge32" class="edge">
<title>logger.cpp&#45;&gt;chrono</title>
<path fill="none" stroke="#eeeeee" d="M251.12,-79.22C285.46,-66.51 342.57,-45.37 379.88,-31.56"/>
<polygon fill="#eeeeee" stroke="#eeeeee" points="380.72,-34.98 388.88,-28.22 378.29,-28.41 380.72,-34.98"/>
</g>
<!-- uncompiled_script.hpp&#45;&gt;string -->
<g id="edge37" class="edge">
<title>uncompiled_script.hpp&#45;&gt;string</title>
<path fill="none" stroke="#eeeeee" d="M1084.25,-674.43C1091.49,-679.44 1098.64,-685.35 1104.25,-692 1162.46,-761 1195.57,-865.04 1209.05,-915.49"/>
<polygon fill="#eeeeee" stroke="#eeeeee" points="1205.64,-916.28 1211.54,-925.08 1212.42,-914.52 1205.64,-916.28"/>
</g>
<!-- vector -->
<g id="node31" class="node">
<title>vector</title>
<polygon fill="#76abae" stroke="black" points="1244.25,-674 1190.25,-674 1190.25,-638 1244.25,-638 1244.25,-674"/>
<text text-anchor="middle" x="1217.25" y="-652.12" font-family="Times New Roman,serif" font-size="10.00">vector</text>
</g>
<!-- uncompiled_script.hpp&#45;&gt;vector -->
<g id="edge36" class="edge">
<title>uncompiled_script.hpp&#45;&gt;vector</title>
<path fill="none" stroke="#eeeeee" d="M1104.44,-656C1128.73,-656 1156.74,-656 1178.65,-656"/>
<polygon fill="#eeeeee" stroke="#eeeeee" points="1178.62,-659.5 1188.62,-656 1178.62,-652.5 1178.62,-659.5"/>
</g>
<!-- main.cpp -->
<g id="node34" class="node">
<title>main.cpp</title>
<polygon fill="#76abae" stroke="black" points="66.88,-835 12.88,-835 12.88,-799 66.88,-799 66.88,-835"/>
<text text-anchor="middle" x="39.88" y="-813.12" font-family="Times New Roman,serif" font-size="10.00">main.cpp</text>
</g>
<!-- main.cpp&#45;&gt;application.hpp -->
<g id="edge43" class="edge">
<title>main.cpp&#45;&gt;application.hpp</title>
<path fill="none" stroke="#eeeeee" d="M67.31,-817C94.03,-817 136.02,-817 169.2,-817"/>
<polygon fill="#eeeeee" stroke="#eeeeee" points="169.02,-820.5 179.02,-817 169.02,-813.5 169.02,-820.5"/>
</g>
<!-- renderer.cpp -->
<g id="node35" class="node">
<title>renderer.cpp</title>
<polygon fill="#76abae" stroke="black" points="450.62,-690 384.38,-690 384.38,-654 450.62,-654 450.62,-690"/>
<text text-anchor="middle" x="417.5" y="-668.12" font-family="Times New Roman,serif" font-size="10.00">renderer.cpp</text>
</g>
<!-- renderer.cpp&#45;&gt;renderer.hpp -->
<g id="edge44" class="edge">
<title>renderer.cpp&#45;&gt;renderer.hpp</title>
<path fill="none" stroke="#eeeeee" d="M450.71,-683.08C487.75,-695.82 548.75,-716.8 590.02,-731"/>
<polygon fill="#eeeeee" stroke="#eeeeee" points="588.82,-734.29 599.41,-734.23 591.1,-727.67 588.82,-734.29"/>
</g>
<!-- renderer.cpp&#45;&gt;iostream -->
<g id="edge45" class="edge">
<title>renderer.cpp&#45;&gt;iostream</title>
<path fill="none" stroke="#eeeeee" d="M449.37,-653.54C457.3,-648.27 465.6,-642.24 472.75,-636 529.3,-586.63 584.75,-517.77 613.46,-480.16"/>
<polygon fill="#eeeeee" stroke="#eeeeee" points="616,-482.6 619.25,-472.51 610.42,-478.37 616,-482.6"/>
</g>
<!-- resources_loader.cpp -->
<g id="node36" class="node">
<title>resources_loader.cpp</title>
<polygon fill="#76abae" stroke="black" points="271.75,-399 170.25,-399 170.25,-363 271.75,-363 271.75,-399"/>
<text text-anchor="middle" x="221" y="-377.12" font-family="Times New Roman,serif" font-size="10.00">resources_loader.cpp</text>
</g>
<!-- resources_loader.cpp&#45;&gt;logger.hpp -->
<g id="edge52" class="edge">
<title>resources_loader.cpp&#45;&gt;logger.hpp</title>
<path fill="none" stroke="#eeeeee" d="M271.08,-362.58C303.65,-350.35 345.88,-334.51 376.42,-323.04"/>
<polygon fill="#eeeeee" stroke="#eeeeee" points="377.56,-326.35 385.69,-319.56 375.1,-319.8 377.56,-326.35"/>
</g>
<!-- resources_loader.cpp&#45;&gt;resources_loader.hpp -->
<g id="edge51" class="edge">
<title>resources_loader.cpp&#45;&gt;resources_loader.hpp</title>
<path fill="none" stroke="#eeeeee" d="M238.25,-399.3C272.57,-437.94 352.59,-528.04 392.7,-573.2"/>
<polygon fill="#eeeeee" stroke="#eeeeee" points="389.9,-575.32 399.16,-580.47 395.13,-570.67 389.9,-575.32"/>
</g>
<!-- resources_loader.cpp&#45;&gt;format -->
<g id="edge49" class="edge">
<title>resources_loader.cpp&#45;&gt;format</title>
<path fill="none" stroke="#eeeeee" d="M231.68,-399.47C242.91,-421.15 261.74,-458.3 276.25,-491 318.34,-585.82 296.93,-627.41 362.25,-708 367.44,-714.4 374.07,-720.07 380.9,-724.91"/>
<polygon fill="#eeeeee" stroke="#eeeeee" points="378.66,-727.64 388.95,-730.17 382.49,-721.77 378.66,-727.64"/>
</g>
<!-- resources_loader.cpp&#45;&gt;fstream -->
<g id="edge54" class="edge">
<title>resources_loader.cpp&#45;&gt;fstream</title>
<path fill="none" stroke="#eeeeee" d="M229.45,-362.67C246.33,-323.97 291.57,-234.65 362.25,-200 438.62,-162.56 541.93,-186.25 596.41,-203.56"/>
<polygon fill="#eeeeee" stroke="#eeeeee" points="595.24,-206.86 605.83,-206.66 597.43,-200.21 595.24,-206.86"/>
</g>
<!-- resources_loader.cpp&#45;&gt;iostream -->
<g id="edge53" class="edge">
<title>resources_loader.cpp&#45;&gt;iostream</title>
<path fill="none" stroke="#eeeeee" d="M272.01,-394.89C298.65,-401.93 332.06,-410.19 362.25,-416 444.99,-431.92 543.21,-443.53 595.83,-449.16"/>
<polygon fill="#eeeeee" stroke="#eeeeee" points="595.46,-452.64 605.77,-450.21 596.19,-445.68 595.46,-452.64"/>
</g>
<!-- document.h -->
<g id="node37" class="node">
<title>document.h</title>
<polygon fill="#76abae" stroke="black" points="449.5,-398 385.5,-398 385.5,-362 449.5,-362 449.5,-398"/>
<text text-anchor="middle" x="417.5" y="-376.12" font-family="Times New Roman,serif" font-size="10.00">document.h</text>
</g>
<!-- resources_loader.cpp&#45;&gt;document.h -->
<g id="edge48" class="edge">
<title>resources_loader.cpp&#45;&gt;document.h</title>
<path fill="none" stroke="#eeeeee" d="M272.09,-380.74C303.59,-380.58 343.8,-380.37 373.78,-380.22"/>
<polygon fill="#eeeeee" stroke="#eeeeee" points="373.65,-383.72 383.63,-380.17 373.61,-376.72 373.65,-383.72"/>
</g>
<!-- sstream -->
<g id="node38" class="node">
<title>sstream</title>
<polygon fill="#76abae" stroke="black" points="444.5,-254 390.5,-254 390.5,-218 444.5,-218 444.5,-254"/>
<text text-anchor="middle" x="417.5" y="-232.12" font-family="Times New Roman,serif" font-size="10.00">sstream</text>
</g>
<!-- resources_loader.cpp&#45;&gt;sstream -->
<g id="edge50" class="edge">
<title>resources_loader.cpp&#45;&gt;sstream</title>
<path fill="none" stroke="#eeeeee" d="M244.44,-362.72C271.8,-340.63 319.68,-302.6 362.25,-272 368.09,-267.8 374.38,-263.46 380.54,-259.32"/>
<polygon fill="#eeeeee" stroke="#eeeeee" points="382.37,-262.3 388.76,-253.84 378.49,-256.47 382.37,-262.3"/>
</g>
<!-- resource_container.cpp -->
<g id="node40" class="node">
<title>resource_container.cpp</title>
<polygon fill="#76abae" stroke="black" points="276.25,-545 165.75,-545 165.75,-509 276.25,-509 276.25,-545"/>
<text text-anchor="middle" x="221" y="-523.12" font-family="Times New Roman,serif" font-size="10.00">resource_container.cpp</text>
</g>
<!-- resource_container.cpp&#45;&gt;logger.hpp -->
<g id="edge57" class="edge">
<title>resource_container.cpp&#45;&gt;logger.hpp</title>
<path fill="none" stroke="#eeeeee" d="M233.21,-508.52C255.01,-473.57 305.94,-396.6 362.25,-344 367.01,-339.55 372.38,-335.28 377.84,-331.33"/>
<polygon fill="#eeeeee" stroke="#eeeeee" points="379.52,-334.43 385.78,-325.88 375.56,-328.66 379.52,-334.43"/>
</g>
<!-- resource_container.cpp&#45;&gt;resource_container.hpp -->
<g id="edge58" class="edge">
<title>resource_container.cpp&#45;&gt;resource_container.hpp</title>
<path fill="none" stroke="#eeeeee" d="M276.54,-517.5C371.22,-503.83 569.37,-487.94 710.5,-564 774.23,-598.34 818.22,-675.32 838.47,-717.33"/>
<polygon fill="#eeeeee" stroke="#eeeeee" points="835.27,-718.75 842.68,-726.32 841.61,-715.78 835.27,-718.75"/>
</g>
<!-- resource_container.cpp&#45;&gt;format -->
<g id="edge59" class="edge">
<title>resource_container.cpp&#45;&gt;format</title>
<path fill="none" stroke="#eeeeee" d="M233.26,-545.27C255.14,-579.81 306.19,-655.91 362.25,-708 367.87,-713.22 374.32,-718.2 380.77,-722.71"/>
<polygon fill="#eeeeee" stroke="#eeeeee" points="378.6,-725.46 388.86,-728.1 382.48,-719.64 378.6,-725.46"/>
</g>
<!-- cpp_lua_functions.cpp -->
<g id="node41" class="node">
<title>cpp_lua_functions.cpp</title>
<polygon fill="#76abae" stroke="black" points="275.88,-1308 166.12,-1308 166.12,-1272 275.88,-1272 275.88,-1308"/>
<text text-anchor="middle" x="221" y="-1286.12" font-family="Times New Roman,serif" font-size="10.00">cpp_lua_functions.cpp</text>
</g>
<!-- cpp_lua_functions.cpp&#45;&gt;graphic.hpp -->
<g id="edge62" class="edge">
<title>cpp_lua_functions.cpp&#45;&gt;graphic.hpp</title>
<path fill="none" stroke="#eeeeee" d="M233.74,-1308.36C255.1,-1340.11 303.59,-1404.83 362.25,-1436 499.58,-1508.97 559.03,-1505.23 710.5,-1470 805.65,-1447.87 838.47,-1441.88 907.75,-1373 982.48,-1298.71 1024.31,-1176.45 1040.32,-1120.98"/>
<polygon fill="#eeeeee" stroke="#eeeeee" points="1043.61,-1122.23 1042.94,-1111.66 1036.87,-1120.34 1043.61,-1122.23"/>
</g>
<!-- cpp_lua_functions.cpp&#45;&gt;cpp_lua_functions.hpp -->
<g id="edge61" class="edge">
<title>cpp_lua_functions.cpp&#45;&gt;cpp_lua_functions.hpp</title>
<path fill="none" stroke="#eeeeee" d="M276.18,-1279.97C299.27,-1275.7 326.43,-1270.67 350.67,-1266.18"/>
<polygon fill="#eeeeee" stroke="#eeeeee" points="351.25,-1269.64 360.45,-1264.37 349.98,-1262.75 351.25,-1269.64"/>
</g>
<!-- cpp_lua_functions.cpp&#45;&gt;LuaBridge.h -->
<g id="edge63" class="edge">
<title>cpp_lua_functions.cpp&#45;&gt;LuaBridge.h</title>
<path fill="none" stroke="#eeeeee" d="M254.99,-1271.68C287.79,-1253.47 338.22,-1225.47 373.99,-1205.6"/>
<polygon fill="#eeeeee" stroke="#eeeeee" points="375.3,-1208.88 382.35,-1200.96 371.9,-1202.76 375.3,-1208.88"/>
</g>
<!-- cpp_lua_functions.cpp&#45;&gt;lua.hpp -->
<g id="edge60" class="edge">
<title>cpp_lua_functions.cpp&#45;&gt;lua.hpp</title>
<path fill="none" stroke="#eeeeee" d="M276.09,-1292.7C366.45,-1296.41 553.63,-1300.68 710.5,-1282 745.85,-1277.79 785.53,-1269.25 813.7,-1262.52"/>
<polygon fill="#eeeeee" stroke="#eeeeee" points="814.29,-1265.98 823.18,-1260.22 812.63,-1259.18 814.29,-1265.98"/>
</g>
</g>
</svg>
